<svg width="327" height="97" viewBox="0 0 327 97" fill="none" xmlns="http://www.w3.org/2000/svg">
<path d="M92.625 85C92.625 85.4583 92.5208 85.8958 92.3125 86.3125C91.4792 86.7708 90.6042 87.0833 89.6875 87.25C88.8125 87.4583 87.9375 87.5625 87.0625 87.5625C86.6458 87.5625 86.1875 87.5417 85.6875 87.5C85.2292 87.5 84.8125 87.4583 84.4375 87.375C84.3125 87.3333 84.1667 87.25 84 87.125C83.8333 87 83.6667 86.9375 83.5 86.9375C83.0833 86.9375 82.6875 87 82.3125 87.125C81.9375 87.2917 81.5417 87.375 81.125 87.375C80.9167 87.375 80.7083 87.3125 80.5 87.1875C80.3333 87.0625 80.1458 86.9792 79.9375 86.9375C79.6458 86.8542 79.3542 86.8333 79.0625 86.875C78.7708 86.9167 78.4583 86.9375 78.125 86.9375C77.6667 86.9375 77.25 86.875 76.875 86.75C76.5417 86.625 76.2292 86.3958 75.9375 86.0625C74.8958 85.9375 73.875 85.7292 72.875 85.4375C71.875 85.1875 70.875 84.8958 69.875 84.5625C68.875 84.2708 67.875 83.9792 66.875 83.6875C65.875 83.4375 64.8542 83.2708 63.8125 83.1875C63.5625 82.8958 63.2708 82.6667 62.9375 82.5C62.6042 82.375 62.3542 82.1458 62.1875 81.8125C61.9792 81.8125 61.8333 81.8333 61.75 81.875C61.6667 81.9583 61.5208 82 61.3125 82C60.6042 81.4167 59.8333 80.9167 59 80.5C58.2083 80.0833 57.375 79.6875 56.5 79.3125C55.6667 78.9375 54.8333 78.5417 54 78.125C53.2083 77.75 52.4583 77.25 51.75 76.625H51.4375C51.1042 76.6667 50.8125 76.5833 50.5625 76.375C50.3542 76.2083 50.0833 76.125 49.75 76.125C49.5417 76.125 49.375 76.1458 49.25 76.1875C49.125 75.8542 48.9375 75.5833 48.6875 75.375C48.4375 75.1667 48.1667 74.9583 47.875 74.75C47.625 74.5833 47.375 74.3958 47.125 74.1875C46.875 74.0208 46.6875 73.7917 46.5625 73.5C45.5208 73.125 44.5 72.6667 43.5 72.125C42.5417 71.625 41.6875 70.9583 40.9375 70.125C40.1042 70.0417 39.4167 69.7917 38.875 69.375C38.3333 68.9167 37.8333 68.3542 37.375 67.6875C36.375 67.3542 35.4583 66.9167 34.625 66.375C33.7917 65.8333 32.9583 65.2708 32.125 64.6875C31.3333 64.1042 30.4792 63.5833 29.5625 63.125C28.6875 62.625 27.6875 62.2708 26.5625 62.0625C26.5208 61.7708 26.3958 61.5625 26.1875 61.4375C25.9792 61.2708 25.7292 61.1458 25.4375 61.0625C25.1875 60.9375 24.9375 60.8333 24.6875 60.75C24.4375 60.6667 24.25 60.5 24.125 60.25C24 60.25 23.875 60.25 23.75 60.25C23.625 60.2083 23.5 60.1875 23.375 60.1875C23.25 60.1875 23.1042 60.2083 22.9375 60.25C22.8125 60.25 22.6875 60.25 22.5625 60.25L22.625 60.0625C22.625 59.8958 22.5625 59.7917 22.4375 59.75C22.3542 59.7083 22.2292 59.6667 22.0625 59.625C21.8958 59.5833 21.75 59.5208 21.625 59.4375C21.5 59.3542 21.4375 59.1667 21.4375 58.875H21.25C20.7917 58.875 20.375 58.7917 20 58.625C19.625 58.4583 19.2083 58.3333 18.75 58.25C18.6667 58.7083 18.625 59.1458 18.625 59.5625V60.6875C18.625 62.5625 18.8333 64.5417 19.25 66.625C19.6667 68.6667 20.3125 70.5 21.1875 72.125C22.0625 72.4583 22.8125 72.8958 23.4375 73.4375C24.0625 73.9792 24.6667 74.6042 25.25 75.3125C25.2917 76.4375 24.875 77.375 24 78.125C23.1667 78.9167 22.1875 79.3125 21.0625 79.3125C20.4375 79.3125 19.8542 79.1458 19.3125 78.8125C18.8125 78.5208 18.3958 78.0833 18.0625 77.5C17.8125 77.5 17.5833 77.5417 17.375 77.625C17.1667 77.75 16.9167 77.8125 16.625 77.8125C16.5 77.8125 16.375 77.7917 16.25 77.75C15.8333 77.0417 15.4167 76.4167 15 75.875C14.625 75.3333 14.375 74.6042 14.25 73.6875C13.7917 73.4792 13.5 73.1042 13.375 72.5625C13.2917 72.0208 13.0625 71.5833 12.6875 71.25C12.5208 69.375 12.2917 67.5 12 65.625C11.75 63.75 11.625 61.875 11.625 60C11.625 59.5833 11.6458 59.1667 11.6875 58.75C11.7292 58.2917 11.7708 57.8333 11.8125 57.375C11.7292 57.1667 11.6042 56.9792 11.4375 56.8125C11.3125 56.6042 11.2083 56.3958 11.125 56.1875C10.2917 56.3958 9.41667 56.6042 8.5 56.8125C7.625 56.9792 6.72917 57.0625 5.8125 57.0625C5.22917 57.0625 4.52083 56.9792 3.6875 56.8125C2.85417 56.6042 2.20833 56.3333 1.75 56C1.41667 55.7917 1.1875 55.4167 1.0625 54.875C0.895833 54.2917 0.8125 53.7917 0.8125 53.375C0.8125 52.6667 0.9375 51.9583 1.1875 51.25C1.4375 50.5 1.77083 49.8542 2.1875 49.3125C4.22917 48.4792 6.125 47.4583 7.875 46.25C9.66667 45.0417 11.4167 43.7292 13.125 42.3125C13.1667 41.8958 13.2292 41.4792 13.3125 41.0625C13.4375 40.6458 13.5 40.2083 13.5 39.75C13.5 39.25 13.375 38.7708 13.125 38.3125C13.375 38.0625 13.5 37.75 13.5 37.375C13.5 36.9583 13.6042 36.5833 13.8125 36.25V35.875C13.8125 35.7083 13.7917 35.5417 13.75 35.375C13.75 35.2083 13.6875 35.0417 13.5625 34.875C13.8542 33.25 14.0833 31.6458 14.25 30.0625C14.4167 28.4375 14.5 26.7708 14.5 25.0625C14.5 24.9375 14.5625 24.6042 14.6875 24.0625C14.8542 23.4792 14.9583 23.0833 15 22.875C15.1667 21.9167 15.2708 20.9792 15.3125 20.0625C15.3958 19.1042 15.5 18.1458 15.625 17.1875C15.6667 16.8542 15.75 16.4167 15.875 15.875C16 15.3333 16.0625 14.9583 16.0625 14.75C16.0625 14.4583 16 14.2708 15.875 14.1875C15.7917 14.0625 15.7083 13.875 15.625 13.625C15.875 12.6667 16 11.7083 16 10.75C16.0417 9.75 16.125 8.77083 16.25 7.8125C16.9583 7.52083 17.5208 7.22917 17.9375 6.9375C18.3542 6.64583 18.9583 6.5 19.75 6.5H19.875C19.9583 7 20.1458 7.47917 20.4375 7.9375C20.7292 8.35417 21.0208 8.79167 21.3125 9.25C21.6458 9.66667 21.9375 10.0833 22.1875 10.5C22.4375 10.875 22.5625 11.25 22.5625 11.625C22.5625 12.3333 22.5 13.1042 22.375 13.9375C22.25 14.7708 22.1458 15.5417 22.0625 16.25C21.8542 18.125 21.6667 19.9792 21.5 21.8125C21.3333 23.6042 21.0833 25.4375 20.75 27.3125C20.875 27.8958 20.9375 28.4375 20.9375 28.9375C20.9375 29.6875 20.875 30.4375 20.75 31.1875C20.625 31.9375 20.5625 32.7083 20.5625 33.5C20.5625 33.875 20.5833 34.2708 20.625 34.6875C20.7083 35.1042 20.8333 35.4792 21 35.8125C22.4167 35.4375 23.6875 34.6667 24.8125 33.5C24.9792 33.3333 25.1458 33.125 25.3125 32.875C25.5208 32.5833 25.7292 32.3542 25.9375 32.1875C26.3542 31.8542 26.7917 31.5625 27.25 31.3125C27.75 31.0208 28.2292 30.7292 28.6875 30.4375C29.7708 29.7292 30.8125 29 31.8125 28.25C32.8542 27.4583 33.8958 26.6875 34.9375 25.9375C38.0208 23.6875 41 21.3542 43.875 18.9375C46.7917 16.4792 49.625 13.8958 52.375 11.1875C52.5 10.4792 52.75 9.91667 53.125 9.5C53.5 9.08333 53.8333 8.58333 54.125 8C54.9167 7.70833 55.6042 7.27083 56.1875 6.6875C56.4375 6.77083 56.6875 6.83333 56.9375 6.875C57.2292 6.875 57.5 6.875 57.75 6.875C58.0417 6.875 58.3125 6.89583 58.5625 6.9375C58.8542 6.9375 59.1042 7 59.3125 7.125C59.3542 7.75 59.4167 8.3125 59.5 8.8125C59.5833 9.3125 59.8333 9.79167 60.25 10.25C60.25 10.3333 60.25 10.4167 60.25 10.5C60.2917 10.5833 60.3125 10.6667 60.3125 10.75C60.3125 11.2083 60.1875 11.5833 59.9375 11.875C59.6875 12.1667 59.5417 12.5208 59.5 12.9375L56.25 16.1875C55.1667 17.2708 54.1667 18.4375 53.25 19.6875C52.9167 19.7292 52.625 19.8333 52.375 20C52.125 20.1667 51.875 20.3542 51.625 20.5625C51.4167 20.7292 51.1875 20.8958 50.9375 21.0625C50.6875 21.2292 50.4167 21.3542 50.125 21.4375C49.375 22.4375 48.5208 23.3542 47.5625 24.1875C46.6042 24.9792 45.625 25.75 44.625 26.5C43.625 27.25 42.625 28.0208 41.625 28.8125C40.6667 29.5625 39.7708 30.3958 38.9375 31.3125C38.0625 31.7292 37.2083 32.2292 36.375 32.8125C35.5833 33.3542 34.9375 34.0417 34.4375 34.875H34.125C33.9167 34.875 33.75 34.9375 33.625 35.0625C33.5 35.1458 33.3333 35.1875 33.125 35.1875C30.875 37.1458 28.5417 39 26.125 40.75C23.7083 42.4583 21.3958 44.3333 19.1875 46.375V47.9375C19.8958 48.3542 20.6667 48.75 21.5 49.125C22.3333 49.4583 23.1458 49.8333 23.9375 50.25C24.7708 50.6667 25.5417 51.125 26.25 51.625C27 52.0833 27.6458 52.6458 28.1875 53.3125C28.2708 53.2708 28.375 53.25 28.5 53.25C28.875 53.25 29.1667 53.375 29.375 53.625C29.5833 53.8333 29.9375 53.8958 30.4375 53.8125C30.6042 54.4792 30.9792 54.9583 31.5625 55.25C32.1458 55.5417 32.7292 55.7917 33.3125 56C33.8125 56.5 34.2708 56.9792 34.6875 57.4375C35.1042 57.8542 35.7083 58.125 36.5 58.25C36.5833 58.4167 36.6458 58.6042 36.6875 58.8125C36.7292 59.0208 36.8125 59.2083 36.9375 59.375C37.7292 59.625 38.4792 59.9792 39.1875 60.4375C39.9375 60.8958 40.6667 61.375 41.375 61.875C42.0833 62.3333 42.7917 62.7917 43.5 63.25C44.25 63.6667 45.0417 64 45.875 64.25C46 64.6667 46.2292 64.9583 46.5625 65.125C46.9375 65.2917 47.2292 65.5417 47.4375 65.875H48.5625C48.6875 66.0833 48.8542 66.2917 49.0625 66.5C49.2708 66.6667 49.4167 66.9167 49.5 67.25C49.8333 67.3333 50.2083 67.4583 50.625 67.625C51.0417 67.75 51.4167 67.9167 51.75 68.125C51.875 68.25 51.9583 68.3958 52 68.5625C52.0833 68.7292 52.2083 68.875 52.375 69C52.625 69.2083 53 69.375 53.5 69.5C54.0417 69.5833 54.5 69.7292 54.875 69.9375C55.625 70.3542 56.3542 70.8125 57.0625 71.3125C57.7708 71.8542 58.5208 72.3542 59.3125 72.8125L61.75 74.125C62.1667 74.3333 62.5417 74.5625 62.875 74.8125C63.25 75.0625 63.625 75.2917 64 75.5C64.75 75.8333 65.5417 76.0417 66.375 76.125C67.25 76.25 68.0417 76.4792 68.75 76.8125C68.9583 76.9375 69.1042 77.0833 69.1875 77.25C69.2708 77.4583 69.4167 77.625 69.625 77.75C69.9583 77.9583 70.4792 78.1042 71.1875 78.1875C71.8958 78.2708 72.4792 78.4167 72.9375 78.625C73.5208 78.875 74.0833 79.1042 74.625 79.3125C75.2083 79.5625 75.7917 79.8542 76.375 80.1875C77.625 80.2708 78.8542 80.4167 80.0625 80.625C81.3125 80.8333 82.5417 81.0417 83.75 81.25C84.9583 81.4583 86.1667 81.6458 87.375 81.8125C88.625 81.9792 89.875 82.0417 91.125 82C91.125 82.0833 91.1667 82.125 91.25 82.125C91.375 82.1667 91.4792 82.1875 91.5625 82.1875C91.8542 82.6458 92.1042 83.1042 92.3125 83.5625C92.5208 84.0208 92.625 84.5 92.625 85ZM104.938 85.875C104.812 86.5833 104.521 87.0833 104.062 87.375C103.646 87.7083 103.25 88.1667 102.875 88.75H102.625C102.208 88.75 101.792 88.7917 101.375 88.875C101 88.9583 100.604 89.0625 100.188 89.1875C99.9792 89.1042 99.7292 89.0417 99.4375 89C99.1458 88.9583 98.9583 88.8125 98.875 88.5625C98.5417 88.7292 98.0833 88.8125 97.5 88.8125C96.5417 88.8125 95.625 88.5417 94.75 88C93.9167 87.4583 93.0417 87.0417 92.125 86.75C91.875 86.25 91.5625 85.7917 91.1875 85.375C90.8542 85 90.5 84.625 90.125 84.25C89.7917 83.875 89.4583 83.4792 89.125 83.0625C88.7917 82.6458 88.5208 82.1458 88.3125 81.5625C88.2292 81.3125 88.125 81.1667 88 81.125C87.875 81.0833 87.6875 81.0833 87.4375 81.125C87.4792 80.6667 87.4167 80.2708 87.25 79.9375C87.125 79.6042 86.8125 79.3958 86.3125 79.3125C86.3125 78.7708 86.2292 78.3125 86.0625 77.9375C85.8958 77.5625 85.6875 77.2292 85.4375 76.9375C85.2292 76.6875 84.9792 76.4167 84.6875 76.125C84.4375 75.8333 84.2292 75.4792 84.0625 75.0625C83.6875 74.9792 83.3125 74.9167 82.9375 74.875C82.6042 74.875 82.2292 74.875 81.8125 74.875C79.8125 74.875 77.875 75.25 76 76C75.7917 76.0833 75.5625 76.1875 75.3125 76.3125C75.1042 76.4375 74.8958 76.5417 74.6875 76.625C74.6042 76.625 74.5208 76.625 74.4375 76.625C74.3958 76.6667 74.3333 76.6875 74.25 76.6875C73.9583 76.6875 73.6875 76.625 73.4375 76.5C73.1875 76.4167 72.9167 76.375 72.625 76.375C72.5 76.375 72.3542 76.3958 72.1875 76.4375C72.0625 76.5208 71.9375 76.5833 71.8125 76.625C71.1875 76.8333 70.6042 76.9583 70.0625 77C68.3542 77.3333 66.5417 77.5833 64.625 77.75C62.75 77.9167 61.0208 78.3542 59.4375 79.0625C59.1042 79.2292 58.8958 79.4792 58.8125 79.8125C58.7292 80.1875 58.7083 80.5417 58.75 80.875C58.2917 81.2083 57.9375 81.6458 57.6875 82.1875C57.4792 82.7292 57.2708 83.2917 57.0625 83.875C56.8958 84.5 56.7083 85.1042 56.5 85.6875C56.2917 86.2708 56 86.7708 55.625 87.1875C55.75 87.4375 55.8125 87.7083 55.8125 88C55.8125 88.625 55.6042 89.25 55.1875 89.875C54.7708 90.5 54.4583 91.1042 54.25 91.6875C54.0417 92.2708 53.875 92.8333 53.75 93.375C53.625 93.9583 53.4375 94.4792 53.1875 94.9375C52.9375 95.3958 52.6042 95.7708 52.1875 96.0625C51.7292 96.3542 51.1042 96.5 50.3125 96.5C49.5625 96.5 48.9167 96.3542 48.375 96.0625C47.8333 95.7708 47.3958 95.3958 47.0625 94.9375C46.7292 94.4792 46.4583 93.9375 46.25 93.3125C46.0417 92.6875 45.875 92.0625 45.75 91.4375C46.2083 90.5208 46.6458 89.7292 47.0625 89.0625C47.4792 88.3958 47.7917 87.5417 48 86.5C48.75 85.9583 49.3125 85.2917 49.6875 84.5C50.0208 83.75 50.2083 82.9167 50.25 82C50.7083 81.7083 51.0417 81.3125 51.25 80.8125C51.4167 80.3542 51.5208 79.8542 51.5625 79.3125C50.5625 79.2292 49.5208 79.1458 48.4375 79.0625C47.3125 78.9792 46.2708 78.7708 45.3125 78.4375C45.3125 78.3542 45.3333 78.2708 45.375 78.1875C45.375 78.1042 45.375 78.0208 45.375 77.9375C45.375 77.3958 45.25 76.8958 45 76.4375C44.75 76.0208 44.625 75.5625 44.625 75.0625V74.5625C44.9583 74.2292 45.2708 73.875 45.5625 73.5C45.8125 73.1667 46.0833 72.8542 46.375 72.5625C46.6667 72.2708 47 72.0208 47.375 71.8125C47.75 71.6458 48.2292 71.5625 48.8125 71.5625C49.6042 71.5625 50.375 71.6042 51.125 71.6875C51.875 71.8125 52.6458 71.875 53.4375 71.875C53.9792 71.875 54.5417 71.8125 55.125 71.6875C56.0417 69.8125 56.8542 67.9167 57.5625 66C58.2708 64.0417 58.8125 62.0625 59.1875 60.0625C59.4792 59.6458 59.75 59.1667 60 58.625C60.25 58.0417 60.4375 57.4375 60.5625 56.8125C60.7292 56.1875 60.8333 55.5833 60.875 55C60.9583 54.375 61 53.8125 61 53.3125C61.4583 52.7708 61.7708 52.1042 61.9375 51.3125C62.1458 50.5208 62.3125 49.7083 62.4375 48.875C62.5625 48 62.6875 47.1458 62.8125 46.3125C62.9792 45.4792 63.2708 44.75 63.6875 44.125V43.5625C63.7292 42.9375 63.6667 42.375 63.5 41.875C63.7083 41.7917 63.8333 41.6042 63.875 41.3125C63.9167 41.0208 64 40.7708 64.125 40.5625C64.1667 38.6458 64.375 36.7708 64.75 34.9375C65.125 33.0625 65.4375 31.1875 65.6875 29.3125V29.125C65.6875 28.9167 65.6042 28.8125 65.4375 28.8125C65.3125 28.7708 65.25 28.6458 65.25 28.4375C65.25 28.0625 65.2917 27.5625 65.375 26.9375C65.5 26.3125 65.5833 25.7917 65.625 25.375C65.875 23.125 66 20.8958 66 18.6875C66 16.8125 65.9375 14.9583 65.8125 13.125C65.6875 11.2917 65.5625 9.4375 65.4375 7.5625L65.9375 6.8125C66.1042 6.5625 66.25 6.3125 66.375 6.0625C66.7917 5.89583 67.125 5.72917 67.375 5.5625C67.6667 5.35417 68.0417 5.25 68.5 5.25C68.625 5.25 68.7292 5.27083 68.8125 5.3125C68.8958 5.3125 68.9792 5.3125 69.0625 5.3125C69.3125 5.47917 69.5 5.70833 69.625 6C69.7917 6.29167 69.9375 6.5625 70.0625 6.8125C70.2292 7.0625 70.4375 7.27083 70.6875 7.4375C70.9375 7.60417 71.2917 7.64583 71.75 7.5625C71.9583 8.72917 72.5417 9.33333 73.5 9.375C73.7083 9.95833 73.9583 10.5417 74.25 11.125C74.5833 11.7083 75.0208 12.1667 75.5625 12.5C75.5208 12.6667 75.5 12.8958 75.5 13.1875C75.5 13.7708 75.625 14.3333 75.875 14.875C76.1667 15.4167 76.5208 15.9167 76.9375 16.375V16.5C76.9375 16.9583 76.7708 17.2708 76.4375 17.4375C76.8125 17.8542 77.0833 18.3542 77.25 18.9375C77.4167 19.5208 77.5625 20.125 77.6875 20.75C77.8125 21.3333 77.9583 21.8958 78.125 22.4375C78.3333 22.9792 78.6667 23.3958 79.125 23.6875V23.875C79.125 24.0833 79.0417 24.2083 78.875 24.25C78.75 24.2917 78.6875 24.4167 78.6875 24.625C79.4375 26 79.9583 27.5 80.25 29.125C80.5417 30.75 80.9167 32.3125 81.375 33.8125C81.5417 33.9792 81.7292 34.0833 81.9375 34.125C82.1875 34.1667 82.375 34.2708 82.5 34.4375C82.25 34.6042 82.125 34.8958 82.125 35.3125C82.125 35.7292 82.0208 36.0417 81.8125 36.25C82.1458 36.5417 82.2917 36.9792 82.25 37.5625C82.25 38.1042 82.4167 38.5 82.75 38.75V39C82.75 39.1667 82.7083 39.3125 82.625 39.4375C82.5417 39.5208 82.5 39.6458 82.5 39.8125V40.0625C82.8333 41.5208 83.0833 42.9792 83.25 44.4375C83.4583 45.8958 83.6667 47.3542 83.875 48.8125C84.0833 50.2708 84.3125 51.7292 84.5625 53.1875C84.8125 54.6042 85.1667 56 85.625 57.375C85.6667 57.4167 85.6875 57.4792 85.6875 57.5625C85.6875 57.7708 85.6042 57.8958 85.4375 57.9375C85.2708 57.9375 85.1875 58.0417 85.1875 58.25C85.1875 58.4583 85.25 58.7083 85.375 59C85.5417 59.25 85.7083 59.4583 85.875 59.625C85.8333 59.7917 85.8125 60.0417 85.8125 60.375C85.8125 61 85.9167 61.6042 86.125 62.1875C86.375 62.7708 86.625 63.3542 86.875 63.9375C87.1667 64.4792 87.4167 65.0625 87.625 65.6875C87.8333 66.3125 87.9167 66.9792 87.875 67.6875C88.125 68.0625 88.4375 68.375 88.8125 68.625C89.2292 68.875 89.6458 69.1042 90.0625 69.3125C90.4792 69.5208 90.8542 69.7708 91.1875 70.0625C91.5625 70.3542 91.8125 70.75 91.9375 71.25C91.6042 71.5417 91.375 71.8958 91.25 72.3125C91.125 72.7708 90.8958 73.1667 90.5625 73.5C90.8542 74.2083 91.1875 74.8542 91.5625 75.4375C91.9792 76.0625 92.3958 76.6667 92.8125 77.25L94.125 79C94.5833 79.5833 94.9792 80.2083 95.3125 80.875C95.7708 80.875 96.1042 81 96.3125 81.25C96.5208 81.5 96.8542 81.6042 97.3125 81.5625C97.4792 81.8958 97.5417 82.2708 97.5 82.6875C98.3333 82.3958 99.1667 82.25 100 82.25C100.458 82.25 100.875 82.2708 101.25 82.3125C101.667 82.3542 102.083 82.375 102.5 82.375C103 82.375 103.438 82.3125 103.812 82.1875C103.979 82.4375 104.104 82.7083 104.188 83C104.271 83.3333 104.333 83.6667 104.375 84L104.562 85C104.646 85.3333 104.771 85.625 104.938 85.875ZM81.375 68.5625C80.7917 65.6875 80.1875 62.8333 79.5625 60C78.9792 57.125 78.4583 54.2292 78 51.3125C77.75 49.7708 77.5625 48.2292 77.4375 46.6875C77.3125 45.1458 77.1458 43.625 76.9375 42.125C76.7708 40.5833 76.5208 39.0625 76.1875 37.5625C75.8958 36.0625 75.4583 34.5833 74.875 33.125V33C74.875 32.875 74.9167 32.7708 75 32.6875C75.0833 32.6042 75.125 32.4583 75.125 32.25V32C74.5833 31.625 74.2083 31.1042 74 30.4375C73.7917 29.7292 73.6042 29 73.4375 28.25C73.3125 27.4583 73.125 26.7083 72.875 26C72.6667 25.25 72.2917 24.625 71.75 24.125C71.5417 26.5417 71.3125 28.9583 71.0625 31.375C70.8542 33.75 70.7083 36.1458 70.625 38.5625C70.2083 38.8125 69.9375 39.2292 69.8125 39.8125C69.6875 40.3958 69.625 40.9167 69.625 41.375C69.625 41.7083 69.6458 42.0625 69.6875 42.4375C69.7292 42.7708 69.8125 43.125 69.9375 43.5C69.1875 45.375 68.6458 47.3125 68.3125 49.3125C67.9792 51.2708 67.6042 53.2292 67.1875 55.1875C67.1458 55.3125 67.0625 55.6042 66.9375 56.0625C66.8542 56.4792 66.75 56.9167 66.625 57.375C66.5 57.8333 66.3958 58.25 66.3125 58.625C66.2292 58.9583 66.1875 59.1458 66.1875 59.1875C66.1458 59.4792 66.125 59.7708 66.125 60.0625C66.1667 60.3542 66.1875 60.6458 66.1875 60.9375L65.25 61.875C65.0833 63.4583 64.7708 65 64.3125 66.5C63.8958 67.9583 63.4583 69.4583 63 71C63.2917 71.0417 63.5625 71.0625 63.8125 71.0625C64.1042 71.1042 64.3958 71.125 64.6875 71.125C66.0208 71.125 67.3542 71.0417 68.6875 70.875C70.0625 70.6667 71.4167 70.4792 72.75 70.3125C73.2083 70.2292 73.6875 70.1667 74.1875 70.125C74.6875 70.0417 75.1667 70 75.625 70C75.8333 69.9583 76.0833 69.9583 76.375 70C76.6667 70 76.9167 69.9792 77.125 69.9375C77.4583 69.8542 77.6667 69.7292 77.75 69.5625C77.875 69.3542 78.1042 69.2292 78.4375 69.1875C78.6875 69.3125 78.9792 69.375 79.3125 69.375C79.6875 69.375 80.0417 69.2917 80.375 69.125C80.7083 68.9583 81.0417 68.7708 81.375 68.5625ZM150.312 13.1875C150.062 13.6042 149.875 14.0417 149.75 14.5C149.667 14.9583 149.604 15.4167 149.562 15.875H149.125C148.792 15.875 148.5 15.8333 148.25 15.75C148 15.625 147.708 15.5208 147.375 15.4375C147.542 17.0208 147.646 18.625 147.688 20.25C147.729 21.875 147.75 23.4792 147.75 25.0625C147.75 27.0625 147.729 29.0625 147.688 31.0625C147.646 33.0208 147.625 35 147.625 37C147.625 37.9583 147.562 38.9167 147.438 39.875C147.354 40.7917 147.104 41.6875 146.688 42.5625C146.771 43.2708 146.833 43.9583 146.875 44.625C146.917 45.25 146.938 45.9167 146.938 46.625C146.938 48.5833 146.812 50.5417 146.562 52.5C146.354 54.4167 146.083 56.3333 145.75 58.25C145.625 59 145.5 59.7708 145.375 60.5625C145.292 61.3125 145.146 62.0417 144.938 62.75C144.854 62.9583 144.729 63.1667 144.562 63.375C144.438 63.5833 144.333 63.7917 144.25 64C143.75 65.0833 143.188 66.1667 142.562 67.25C141.979 68.2917 141.271 69.25 140.438 70.125C139.812 70.1667 139.208 70.3333 138.625 70.625C138.042 70.9167 137.5 71.0625 137 71.0625C136.542 71.0625 136.167 70.8333 135.875 70.375L135.25 70.625C135.042 70.7083 134.812 70.7708 134.562 70.8125C133.146 70.2292 131.792 69.5208 130.5 68.6875C129.25 67.8542 128.208 66.7708 127.375 65.4375H127.125C126.75 65.4375 126.479 65.3542 126.312 65.1875C126.104 64.9792 125.875 64.7292 125.625 64.4375C125.417 64.1042 125.229 63.8125 125.062 63.5625C124.562 62.7708 124.021 61.9792 123.438 61.1875C122.854 60.3958 122.167 59.7292 121.375 59.1875C121.042 57.9375 120.542 56.875 119.875 56C119.208 55.0833 118.521 54.1042 117.812 53.0625C117.271 50.9792 116.271 49.0417 114.812 47.25C115.021 47.0417 115.125 46.8958 115.125 46.8125C115.125 46.6042 115.042 46.4375 114.875 46.3125C114.75 46.1458 114.688 45.9792 114.688 45.8125C114.688 45.6458 114.729 45.5208 114.812 45.4375C114.271 44.8542 113.812 44.2083 113.438 43.5C113.104 42.75 112.771 42 112.438 41.25C112.146 40.5 111.812 39.75 111.438 39C111.104 38.25 110.688 37.5625 110.188 36.9375C109.729 37.2292 109.438 37.5833 109.312 38C109.229 38.4167 109.188 38.8542 109.188 39.3125C109.188 39.6458 109.188 39.9792 109.188 40.3125C109.229 40.6458 109.25 40.9792 109.25 41.3125C109.25 42.1458 109.146 42.9583 108.938 43.75C108.771 44.5417 108.646 45.3542 108.562 46.1875C108.521 46.7708 108.5 47.4167 108.5 48.125C108.542 48.8333 108.521 49.5417 108.438 50.25C108.396 50.9583 108.292 51.6458 108.125 52.3125C107.958 52.9792 107.667 53.5417 107.25 54C107 56.375 106.688 58.75 106.312 61.125C105.938 63.5 105.583 65.875 105.25 68.25C105.167 68.6667 105.083 69.1875 105 69.8125C104.917 70.4375 104.812 71.0625 104.688 71.6875C104.604 72.3542 104.521 72.9792 104.438 73.5625C104.396 74.1875 104.375 74.6875 104.375 75.0625C104.375 75.4792 104.479 75.875 104.688 76.25C104.896 76.6667 105 77.0625 105 77.4375C105 77.7292 104.896 77.8958 104.688 77.9375C104.521 78.0208 104.417 78.1875 104.375 78.4375C104.667 79.3542 104.812 80.3958 104.812 81.5625C104.812 81.8958 104.792 82.2292 104.75 82.5625C104.708 82.9375 104.646 83.2917 104.562 83.625C104.479 83.8333 104.333 84.0208 104.125 84.1875C103.917 84.3958 103.812 84.5833 103.812 84.75C103.812 84.9167 103.896 85.0417 104.062 85.125C103.812 85.375 103.5 85.5417 103.125 85.625C102.75 85.7083 102.479 85.9375 102.312 86.3125C101.896 85.9792 101.479 85.6667 101.062 85.375C100.646 85.125 100.25 84.8333 99.875 84.5L99.6875 84.4375C99.3958 84.4375 99.1458 84.5208 98.9375 84.6875C98.7708 84.8958 98.5417 85 98.25 85C98.1667 85 98.0833 84.9792 98 84.9375C97.9583 84.9375 97.8958 84.9375 97.8125 84.9375L97.4375 83.3125C97.3125 82.7708 97.1458 82.2708 96.9375 81.8125C97.2708 80.9375 97.4792 79.9375 97.5625 78.8125C97.6875 77.7292 97.8125 76.625 97.9375 75.5C98.0625 74.375 98.25 73.2917 98.5 72.25C98.75 71.25 99.2083 70.375 99.875 69.625C99.875 69.2917 99.75 69.0625 99.5 68.9375C99.2917 68.8125 99.1875 68.5417 99.1875 68.125C99.1875 68.0417 99.2083 67.8958 99.25 67.6875C99.3333 67.4792 99.3958 67.25 99.4375 67C99.5208 66.75 99.5833 66.5208 99.625 66.3125C99.7083 66.0625 99.7708 65.875 99.8125 65.75C100.146 64.125 100.396 62.4583 100.562 60.75C100.771 59.0417 101.292 57.4583 102.125 56C102.083 55.8333 102.062 55.5833 102.062 55.25C102.062 54.5417 102.125 53.8542 102.25 53.1875C102.417 52.5208 102.5 51.8333 102.5 51.125C102.5 50.5417 102.438 50 102.312 49.5C102.438 49.0417 102.604 48.6042 102.812 48.1875C103.062 47.7292 103.188 47.2708 103.188 46.8125C103.188 46.3958 103.042 46.1042 102.75 45.9375C102.958 45.7708 103.083 45.5833 103.125 45.375C103.208 45.1667 103.25 44.9583 103.25 44.75C103.292 44.5417 103.333 44.3542 103.375 44.1875C103.458 43.9792 103.625 43.8125 103.875 43.6875C103.833 43.2708 103.792 42.875 103.75 42.5C103.75 42.125 103.75 41.7292 103.75 41.3125C103.75 39.7708 103.833 38.25 104 36.75C104.167 35.2083 104.25 33.6458 104.25 32.0625C104.25 30.5208 104.125 29.0208 103.875 27.5625L104.562 26.1875C104.146 25.8542 103.875 25.3125 103.75 24.5625C103.625 23.8125 103.542 23 103.5 22.125C103.458 21.25 103.375 20.3958 103.25 19.5625C103.167 18.6875 102.938 17.9792 102.562 17.4375V16.875C102.562 16.2083 102.521 15.5625 102.438 14.9375C102.354 14.3125 102.312 13.6875 102.312 13.0625V12.5C102.521 12.4167 102.667 12.2708 102.75 12.0625C102.875 11.8542 102.958 11.6458 103 11.4375H103.25C103.75 11.4375 104.25 11.3958 104.75 11.3125C105.25 11.2292 105.75 11.1875 106.25 11.1875H107.062C107.562 11.5625 108 12 108.375 12.5C108.75 13 109.208 13.4583 109.75 13.875V15C110.125 15.5 110.417 16.0417 110.625 16.625C110.833 17.2083 111.042 17.8125 111.25 18.4375C111.5 19.0625 111.75 19.6667 112 20.25C112.25 20.8333 112.604 21.3333 113.062 21.75C112.979 22.1667 112.938 22.5 112.938 22.75C112.938 23.2917 112.979 23.8333 113.062 24.375C113.188 24.9167 113.271 25.4375 113.312 25.9375C113.479 26.1458 113.625 26.4167 113.75 26.75C113.875 27.0417 114.083 27.2292 114.375 27.3125C114.583 28.9375 115 30.4792 115.625 31.9375C116.292 33.3958 116.771 34.9167 117.062 36.5C117.396 36.8333 117.646 37.25 117.812 37.75C117.979 38.2083 118.146 38.6667 118.312 39.125C118.521 39.5833 118.729 40.0208 118.938 40.4375C119.188 40.8125 119.542 41.0833 120 41.25C120.25 42.25 120.562 43.25 120.938 44.25C121.312 45.25 121.896 46.1042 122.688 46.8125C122.688 47.6458 122.812 48.375 123.062 49C123.354 49.5833 123.667 50.1458 124 50.6875C124.375 51.1875 124.708 51.6875 125 52.1875C125.292 52.6875 125.479 53.2292 125.562 53.8125C126.146 54.6875 126.812 55.5 127.562 56.25C128.354 57 129.146 57.7292 129.938 58.4375C130.771 59.1042 131.583 59.7917 132.375 60.5C133.167 61.2083 133.896 61.9583 134.562 62.75C135.021 62.7917 135.396 62.8958 135.688 63.0625C136.021 63.1875 136.396 63.2917 136.812 63.375C137.104 63.1667 137.333 62.9167 137.5 62.625C137.708 62.2917 137.896 61.9583 138.062 61.625C138.229 61.2917 138.396 60.9792 138.562 60.6875C138.771 60.3542 139.021 60.0625 139.312 59.8125C139.312 59.7292 139.292 59.6667 139.25 59.625C139.25 59.5417 139.25 59.4583 139.25 59.375C139.25 58.9167 139.312 58.5625 139.438 58.3125C139.604 58.0208 139.792 57.7083 140 57.375V55.75C140.333 55.125 140.562 54.4583 140.688 53.75C140.812 53.0417 140.875 52.3333 140.875 51.625C140.875 51.0417 140.854 50.4583 140.812 49.875C140.771 49.25 140.75 48.625 140.75 48C140.75 47.625 140.771 47.25 140.812 46.875C140.854 46.4583 140.938 46.0833 141.062 45.75C141.146 45.6667 141.292 45.5417 141.5 45.375C141.708 45.1667 141.812 45.0417 141.812 45C141.812 44.7917 141.75 44.5833 141.625 44.375C141.5 44.1667 141.438 43.9583 141.438 43.75C141.438 43.4583 141.562 43.2292 141.812 43.0625V42.6875C141.812 42.4792 141.771 42.2917 141.688 42.125C141.646 41.9167 141.521 41.7708 141.312 41.6875C141.521 41.4375 141.667 41.1458 141.75 40.8125C141.833 40.4375 141.875 40.0625 141.875 39.6875C141.917 39.2708 141.917 38.875 141.875 38.5C141.875 38.125 141.875 37.7708 141.875 37.4375C141.875 37.0625 141.896 36.6667 141.938 36.25C141.979 35.8333 142.146 35.4792 142.438 35.1875C142.312 34.6875 142.229 34.2083 142.188 33.75C142.146 33.25 142.125 32.75 142.125 32.25C142.125 31.375 142.167 30.5 142.25 29.625C142.333 28.75 142.375 27.8542 142.375 26.9375C142.375 26.6042 142.354 26.2708 142.312 25.9375C142.271 25.5625 142.25 25.2083 142.25 24.875C142.25 24.5417 142.312 24.3958 142.438 24.4375C142.604 24.4375 142.688 24.3333 142.688 24.125C142.688 23.8333 142.646 23.5417 142.562 23.25C142.521 22.9583 142.479 22.6667 142.438 22.375C142.354 21.6667 142.292 20.9583 142.25 20.25C142.208 19.5 142.188 18.75 142.188 18C142.188 17.5417 142.188 17.0833 142.188 16.625C142.229 16.125 142.312 15.6458 142.438 15.1875C142.188 14.8125 142.021 14.4583 141.938 14.125C141.896 13.75 141.854 13.4167 141.812 13.125L141.688 12.1875C141.646 11.8542 141.521 11.5208 141.312 11.1875C141.271 11.1458 141.25 11.0208 141.25 10.8125C141.25 10.4792 141.333 10.2292 141.5 10.0625C141.292 9.35417 141 8.66667 140.625 8C140.292 7.33333 140.083 6.60417 140 5.8125C139.542 5.5625 139.188 5.16667 138.938 4.625C138.729 4.04167 138.625 3.52083 138.625 3.0625C138.625 2.52083 138.771 2 139.062 1.5C139.354 0.958333 139.812 0.6875 140.438 0.6875C140.688 0.6875 140.917 0.770833 141.125 0.9375C141.375 1.0625 141.604 1.22917 141.812 1.4375C142.062 1.60417 142.292 1.77083 142.5 1.9375C142.75 2.0625 143 2.125 143.25 2.125C143.417 2.125 143.667 2.08333 144 2C144.458 2.625 144.917 3.20833 145.375 3.75C145.875 4.25 146.375 4.77083 146.875 5.3125C146.875 6.02083 147 6.66667 147.25 7.25C147.5 7.83333 147.771 8.39583 148.062 8.9375C148.354 9.4375 148.604 9.9375 148.812 10.4375C149.062 10.9375 149.167 11.4792 149.125 12.0625C149.208 12.3542 149.375 12.5625 149.625 12.6875C149.875 12.8125 150.104 12.9792 150.312 13.1875ZM227.375 60.375C227.375 60.9167 227.229 61.4167 226.938 61.875C226.646 62.2917 226.562 62.7917 226.688 63.375C226.521 63.6667 226.292 63.8958 226 64.0625C225.75 64.2292 225.667 64.5417 225.75 65C224.875 65.4583 224.062 66.0417 223.312 66.75C222.604 67.4167 221.833 68.0625 221 68.6875C220.5 69.0625 220.062 69.3333 219.688 69.5C219.354 69.625 218.938 69.8333 218.438 70.125L216.875 71.125C216.167 71.5 215.438 71.875 214.688 72.25C213.979 72.625 213.333 73.1042 212.75 73.6875C211.875 73.7292 210.979 73.9583 210.062 74.375C209.146 74.8333 208.271 75.2292 207.438 75.5625C207.104 75.6875 206.771 75.7708 206.438 75.8125C206.104 75.8958 205.771 76.0208 205.438 76.1875L204.438 76.625C203.854 76.9167 203.167 77.2083 202.375 77.5C201.583 77.8333 200.875 78 200.25 78C199.875 78.1667 199.562 78.4583 199.312 78.875C197.938 79.3333 196.521 79.6875 195.062 79.9375C193.604 80.1875 192.188 80.5833 190.812 81.125C190.354 81.3333 189.875 81.6042 189.375 81.9375C188.917 82.3125 188.417 82.4792 187.875 82.4375C187.75 82.6458 187.667 82.8958 187.625 83.1875C187.583 83.4792 187.521 83.7708 187.438 84.0625H187.25C187.083 84.0625 187 83.9792 187 83.8125C187.042 83.6458 186.979 83.5625 186.812 83.5625C186.688 83.5625 186.604 83.5833 186.562 83.625C186.021 83.75 185.5 83.8542 185 83.9375C184.542 84.0208 184.021 84.0625 183.438 84.0625C183.104 84.0625 182.562 84.0208 181.812 83.9375C181.104 83.8542 180.583 83.75 180.25 83.625C180 83.5 179.792 83.2708 179.625 82.9375C179.458 82.6042 179.292 82.25 179.125 81.875C179 81.5 178.875 81.1042 178.75 80.6875C178.667 80.3125 178.583 80 178.5 79.75C178.625 79.2917 178.833 78.9167 179.125 78.625C179.417 78.3333 179.646 77.9583 179.812 77.5C180.188 77.4583 180.562 77.3958 180.938 77.3125C181.312 77.2292 181.688 77.2083 182.062 77.25C183.354 76.875 184.646 76.5 185.938 76.125C187.271 75.7917 188.583 75.4375 189.875 75.0625C191.167 74.6875 192.438 74.2708 193.688 73.8125C194.938 73.3542 196.146 72.7917 197.312 72.125H198.625C199.375 71.7083 200.208 71.3542 201.125 71.0625C202.042 70.7708 202.792 70.2917 203.375 69.625C204.75 69.3333 206.188 68.9375 207.688 68.4375C209.188 67.9375 210.438 67.1458 211.438 66.0625C212.062 65.9792 212.604 65.8333 213.062 65.625C213.521 65.375 213.958 65.125 214.375 64.875L215.625 64.0625C216.042 63.7708 216.521 63.5417 217.062 63.375C217.396 63.0417 217.708 62.6875 218 62.3125C218.292 61.9375 218.646 61.625 219.062 61.375C218.938 60.7083 218.604 60.2083 218.062 59.875C217.521 59.5417 217.042 59.1458 216.625 58.6875H215.25C214.167 58.0208 213 57.5208 211.75 57.1875C210.542 56.8125 209.333 56.4167 208.125 56C208.042 55.9583 207.938 55.9375 207.812 55.9375C207.521 55.9375 207.333 56.0417 207.25 56.25C207.208 56.4583 207.042 56.5417 206.75 56.5C206.375 56.25 205.979 56.1042 205.562 56.0625C205.146 55.9792 204.708 55.9375 204.25 55.9375C203.667 55.9375 203.083 55.9792 202.5 56.0625C201.958 56.1042 201.396 56.125 200.812 56.125C200.521 56.125 200.229 56.1042 199.938 56.0625C199.646 56.0208 199.354 55.9167 199.062 55.75H198.25C197.375 55.75 196.5 55.7917 195.625 55.875C194.792 55.9167 193.958 55.9375 193.125 55.9375C192.667 55.9375 192.229 55.9375 191.812 55.9375C191.396 55.8958 190.979 55.8333 190.562 55.75C189.688 56.1667 188.75 56.4583 187.75 56.625C186.75 56.7917 185.708 56.9167 184.625 57C183.583 57.0833 182.542 57.1667 181.5 57.25C180.458 57.2917 179.458 57.3958 178.5 57.5625C178.25 57.5208 178 57.5 177.75 57.5C177.542 57.4583 177.333 57.4375 177.125 57.4375C176.917 57.4375 176.688 57.4583 176.438 57.5C176.229 57.5 176.021 57.5208 175.812 57.5625C175.271 56.9792 174.604 56.5625 173.812 56.3125C173.062 56.0208 172.312 55.8333 171.562 55.75C170.979 55.0417 170.542 54.3333 170.25 53.625C170 52.875 169.833 52.0417 169.75 51.125H170C170.292 51.125 170.417 50.9792 170.375 50.6875C170.375 50.3958 170.479 50.1458 170.688 49.9375C170.896 49.6875 171.167 49.5208 171.5 49.4375C171.875 49.3125 172.229 49.1875 172.562 49.0625C172.896 48.9375 173.208 48.7917 173.5 48.625C173.833 48.4167 174.083 48.1042 174.25 47.6875H175.062C175.229 47.6875 175.396 47.7083 175.562 47.75C175.771 47.75 175.938 47.8125 176.062 47.9375C176.229 47.7708 176.438 47.625 176.688 47.5C176.938 47.375 177.167 47.25 177.375 47.125C177.625 47 177.833 46.8542 178 46.6875C178.167 46.5208 178.271 46.2708 178.312 45.9375C178.354 46.0625 178.458 46.125 178.625 46.125C178.792 46.125 178.938 46.0833 179.062 46C179.229 45.9167 179.417 45.8958 179.625 45.9375C179.833 45.3542 180.188 45.0417 180.688 45C181.188 44.9583 181.646 44.8125 182.062 44.5625C182.354 44.3958 182.625 44.2083 182.875 44C183.125 43.75 183.396 43.5208 183.688 43.3125L187.438 40.4375L193.188 36.0625C195.104 34.6042 197.062 33.25 199.062 32C199.146 31.75 199.271 31.5625 199.438 31.4375C199.604 31.3125 199.771 31.1875 199.938 31.0625C200.104 30.8958 200.229 30.7292 200.312 30.5625C200.438 30.3958 200.479 30.1458 200.438 29.8125C201.021 29.6875 201.458 29.4583 201.75 29.125C202.083 28.7917 202.375 28.4375 202.625 28.0625C202.875 27.6458 203.125 27.25 203.375 26.875C203.667 26.4583 204.042 26.1458 204.5 25.9375C204.458 25.8125 204.438 25.625 204.438 25.375C204.438 25.0417 204.458 24.7083 204.5 24.375C204.583 24.0417 204.75 23.75 205 23.5C204.625 22.625 203.979 22 203.062 21.625C202.146 21.2083 201.271 20.8542 200.438 20.5625H200.25C200.042 20.5625 199.917 20.6667 199.875 20.875C199.875 21.0417 199.771 21.1667 199.562 21.25C198.896 21.0833 198.146 21 197.312 21C196.479 21 195.646 21.0625 194.812 21.1875C194.021 21.3125 193.208 21.3333 192.375 21.25C192.25 21.4167 192.104 21.5833 191.938 21.75C191.812 21.9167 191.646 22.0625 191.438 22.1875C190.562 22.2292 189.688 22.3542 188.812 22.5625L186.188 23.1875L184.75 23.5C184.542 23.5833 184.396 23.7292 184.312 23.9375C184.229 24.1458 184.167 24.375 184.125 24.625C183.875 24.5833 183.708 24.4792 183.625 24.3125C183.583 24.1458 183.438 24.0208 183.188 23.9375C182.229 24.5208 181.188 25 180.062 25.375C178.979 25.75 178 26.3333 177.125 27.125C176.833 26.7917 176.417 26.625 175.875 26.625C175.417 26.625 174.917 26.7708 174.375 27.0625C173.833 27.3542 173.5 27.7292 173.375 28.1875C172.958 28.1042 172.646 28.0625 172.438 28.0625C171.979 28.0625 171.583 28.1875 171.25 28.4375C170.958 28.6875 170.667 28.9792 170.375 29.3125C170.083 29.6042 169.771 29.8958 169.438 30.1875C169.104 30.4792 168.688 30.6458 168.188 30.6875C168.188 30.8958 168.188 31.125 168.188 31.375C168.229 31.5833 168.25 31.8125 168.25 32.0625C168.25 33.9375 168.146 35.8125 167.938 37.6875C167.729 39.5208 167.625 41.375 167.625 43.25C167.625 43.6667 167.646 44.0833 167.688 44.5C167.729 44.875 167.75 45.2917 167.75 45.75C167.75 45.875 167.646 46.1458 167.438 46.5625C167.271 46.9792 167.146 47.2917 167.062 47.5C167.229 47.9583 167.292 48.4167 167.25 48.875C167.25 49.3333 167.354 49.7708 167.562 50.1875C167.188 50.5208 167 50.9792 167 51.5625C167 51.8125 167 52.0625 167 52.3125C167.042 52.5625 167.062 52.8125 167.062 53.0625V53.8125C166.938 54.6458 166.854 55.5 166.812 56.375C166.771 57.2083 166.75 58.0417 166.75 58.875C166.75 59.25 166.75 59.8958 166.75 60.8125C166.792 61.6875 166.854 62.6875 166.938 63.8125C167.021 64.8958 167.146 66.0208 167.312 67.1875C167.479 68.3542 167.688 69.4375 167.938 70.4375C168.229 71.3958 168.583 72.1875 169 72.8125C169.417 73.4375 169.917 73.75 170.5 73.75C170.625 73.75 170.771 73.7292 170.938 73.6875C171.146 73.6458 171.25 73.5417 171.25 73.375C171.25 73.2083 171.208 73.0625 171.125 72.9375C171.083 72.8125 171.062 72.6667 171.062 72.5L171.125 72.375C171.458 72.5417 171.812 72.6458 172.188 72.6875C172.604 72.7292 173.021 72.7708 173.438 72.8125C173.854 72.8542 174.25 72.9167 174.625 73C175 73.125 175.333 73.3542 175.625 73.6875C175.458 74.0208 175.375 74.375 175.375 74.75C175.375 75.25 175.5 75.7083 175.75 76.125C176 76.5833 176.167 77.0417 176.25 77.5C175.458 77.75 174.729 78.0208 174.062 78.3125C173.438 78.6458 172.812 78.9375 172.188 79.1875C171.562 79.4792 170.896 79.7292 170.188 79.9375C169.479 80.1875 168.667 80.3542 167.75 80.4375C167.167 80.0625 166.667 79.7292 166.25 79.4375C165.833 79.1458 165.271 78.9583 164.562 78.875C163.479 77.4167 162.583 75.7708 161.875 73.9375C161.167 72.1458 160.604 70.2708 160.188 68.3125C159.812 66.3542 159.542 64.3958 159.375 62.4375C159.25 60.4375 159.188 58.5625 159.188 56.8125C159.188 54.8958 159.25 53 159.375 51.125C159.542 49.2083 159.75 47.2917 160 45.375C160.083 44.7917 160.167 44.2083 160.25 43.625C160.333 43 160.417 42.3958 160.5 41.8125C160.583 41.6042 160.646 41.375 160.688 41.125C160.771 40.8333 160.812 40.5833 160.812 40.375C160.812 39.6667 160.792 38.9583 160.75 38.25C160.708 37.5417 160.688 36.8542 160.688 36.1875C160.688 35.1458 160.75 34.0833 160.875 33C160.917 32.7917 160.979 32.5208 161.062 32.1875C161.188 31.8542 161.25 31.5625 161.25 31.3125C161.25 30.9792 161.167 30.75 161 30.625C160.833 30.5 160.688 30.2917 160.562 30C160.688 29.5833 160.792 29.1875 160.875 28.8125C160.958 28.3958 161 27.9792 161 27.5625C161 26.7708 160.854 26.0833 160.562 25.5C160.771 24.4167 161.083 23.3542 161.5 22.3125C161.917 21.2708 162.646 20.4792 163.688 19.9375C164.521 19.9792 165.354 20.0625 166.188 20.1875C167.062 20.3125 167.812 20.6667 168.438 21.25C168.729 21.0833 169.062 20.9792 169.438 20.9375L170.625 20.8125C171.042 20.7708 171.417 20.7083 171.75 20.625C172.083 20.5 172.375 20.2708 172.625 19.9375C173.458 19.7708 174.354 19.5417 175.312 19.25C176.271 18.9167 177.104 18.5417 177.812 18.125H179.188C179.479 17.9167 179.812 17.7708 180.188 17.6875L181.375 17.375C181.792 17.25 182.167 17.125 182.5 17C182.875 16.875 183.167 16.6667 183.375 16.375H183.625C184.583 16.375 185.521 16.1667 186.438 15.75C187.354 15.3333 188.25 14.9583 189.125 14.625C189.333 14.5417 189.646 14.3958 190.062 14.1875C190.521 13.9792 190.833 13.875 191 13.875C191.583 13.7917 192.167 13.75 192.75 13.75C193.333 13.7083 193.917 13.625 194.5 13.5C195.833 13.2917 197.146 13.0625 198.438 12.8125C199.771 12.5208 201.104 12.375 202.438 12.375C202.896 12.375 203.312 12.3958 203.688 12.4375C204.104 12.4375 204.542 12.4583 205 12.5C205.042 12.6667 205.146 12.8125 205.312 12.9375C205.479 13.0208 205.625 13.1042 205.75 13.1875C205.917 13.2708 206.062 13.3958 206.188 13.5625C206.312 13.6875 206.354 13.875 206.312 14.125C206.396 14.2083 206.479 14.25 206.562 14.25C206.688 14.25 206.792 14.1875 206.875 14.0625C207 13.9375 207.167 13.875 207.375 13.875H207.688C208.229 14.4583 208.75 15.0208 209.25 15.5625C209.792 16.0625 210.458 16.4792 211.25 16.8125C211.583 18.0625 211.979 19.2917 212.438 20.5C212.896 21.7083 213.125 23 213.125 24.375C213.125 25.2083 213 26.0208 212.75 26.8125C212.167 27.1042 211.75 27.5625 211.5 28.1875C211.25 28.8125 211.021 29.4167 210.812 30C209.646 30.5833 208.667 31.3542 207.875 32.3125C207.083 33.2708 206.271 34.2292 205.438 35.1875H204.438C204.271 35.1875 204.146 35.25 204.062 35.375L203.5 36C203.125 36.3333 202.708 36.6667 202.25 37C201.833 37.3333 201.521 37.7708 201.312 38.3125C200.021 39.0208 198.771 39.8125 197.562 40.6875C196.396 41.5625 195.271 42.4792 194.188 43.4375C193.729 43.8125 193.271 44.25 192.812 44.75C192.354 45.2083 191.896 45.6042 191.438 45.9375C191.188 46.1458 190.896 46.3333 190.562 46.5C190.271 46.625 190 46.7917 189.75 47C189.208 47.4167 188.708 47.8542 188.25 48.3125C187.792 48.7292 187.312 49.125 186.812 49.5C188.688 49.4167 190.583 49.375 192.5 49.375C194.417 49.3333 196.312 49.2917 198.188 49.25C199.146 49.25 200.083 49.2292 201 49.1875C201.917 49.1042 202.854 49.0625 203.812 49.0625C203.979 49.0625 204.125 49.1042 204.25 49.1875C204.375 49.2292 204.521 49.2708 204.688 49.3125C205.396 49.4375 206.021 49.5833 206.562 49.75C208.562 50.125 210.562 50.4583 212.562 50.75C214.562 51.0417 216.521 51.5208 218.438 52.1875C218.979 52.3958 219.375 52.625 219.625 52.875C219.917 53.125 220.417 53.1875 221.125 53.0625C221.708 53.6458 222.333 54.1042 223 54.4375C223.708 54.7708 224.417 55.0625 225.125 55.3125C225.667 56.1458 226.167 56.9375 226.625 57.6875C227.125 58.4375 227.375 59.3333 227.375 60.375ZM281 85.875C280.875 86.5833 280.583 87.0833 280.125 87.375C279.708 87.7083 279.312 88.1667 278.938 88.75H278.688C278.271 88.75 277.854 88.7917 277.438 88.875C277.062 88.9583 276.667 89.0625 276.25 89.1875C276.042 89.1042 275.792 89.0417 275.5 89C275.208 88.9583 275.021 88.8125 274.938 88.5625C274.604 88.7292 274.146 88.8125 273.562 88.8125C272.604 88.8125 271.688 88.5417 270.812 88C269.979 87.4583 269.104 87.0417 268.188 86.75C267.938 86.25 267.625 85.7917 267.25 85.375C266.917 85 266.562 84.625 266.188 84.25C265.854 83.875 265.521 83.4792 265.188 83.0625C264.854 82.6458 264.583 82.1458 264.375 81.5625C264.292 81.3125 264.188 81.1667 264.062 81.125C263.938 81.0833 263.75 81.0833 263.5 81.125C263.542 80.6667 263.479 80.2708 263.312 79.9375C263.188 79.6042 262.875 79.3958 262.375 79.3125C262.375 78.7708 262.292 78.3125 262.125 77.9375C261.958 77.5625 261.75 77.2292 261.5 76.9375C261.292 76.6875 261.042 76.4167 260.75 76.125C260.5 75.8333 260.292 75.4792 260.125 75.0625C259.75 74.9792 259.375 74.9167 259 74.875C258.667 74.875 258.292 74.875 257.875 74.875C255.875 74.875 253.938 75.25 252.062 76C251.854 76.0833 251.625 76.1875 251.375 76.3125C251.167 76.4375 250.958 76.5417 250.75 76.625C250.667 76.625 250.583 76.625 250.5 76.625C250.458 76.6667 250.396 76.6875 250.312 76.6875C250.021 76.6875 249.75 76.625 249.5 76.5C249.25 76.4167 248.979 76.375 248.688 76.375C248.562 76.375 248.417 76.3958 248.25 76.4375C248.125 76.5208 248 76.5833 247.875 76.625C247.25 76.8333 246.667 76.9583 246.125 77C244.417 77.3333 242.604 77.5833 240.688 77.75C238.812 77.9167 237.083 78.3542 235.5 79.0625C235.167 79.2292 234.958 79.4792 234.875 79.8125C234.792 80.1875 234.771 80.5417 234.812 80.875C234.354 81.2083 234 81.6458 233.75 82.1875C233.542 82.7292 233.333 83.2917 233.125 83.875C232.958 84.5 232.771 85.1042 232.562 85.6875C232.354 86.2708 232.062 86.7708 231.688 87.1875C231.812 87.4375 231.875 87.7083 231.875 88C231.875 88.625 231.667 89.25 231.25 89.875C230.833 90.5 230.521 91.1042 230.312 91.6875C230.104 92.2708 229.938 92.8333 229.812 93.375C229.688 93.9583 229.5 94.4792 229.25 94.9375C229 95.3958 228.667 95.7708 228.25 96.0625C227.792 96.3542 227.167 96.5 226.375 96.5C225.625 96.5 224.979 96.3542 224.438 96.0625C223.896 95.7708 223.458 95.3958 223.125 94.9375C222.792 94.4792 222.521 93.9375 222.312 93.3125C222.104 92.6875 221.938 92.0625 221.812 91.4375C222.271 90.5208 222.708 89.7292 223.125 89.0625C223.542 88.3958 223.854 87.5417 224.062 86.5C224.812 85.9583 225.375 85.2917 225.75 84.5C226.083 83.75 226.271 82.9167 226.312 82C226.771 81.7083 227.104 81.3125 227.312 80.8125C227.479 80.3542 227.583 79.8542 227.625 79.3125C226.625 79.2292 225.583 79.1458 224.5 79.0625C223.375 78.9792 222.333 78.7708 221.375 78.4375C221.375 78.3542 221.396 78.2708 221.438 78.1875C221.438 78.1042 221.438 78.0208 221.438 77.9375C221.438 77.3958 221.312 76.8958 221.062 76.4375C220.812 76.0208 220.688 75.5625 220.688 75.0625V74.5625C221.021 74.2292 221.333 73.875 221.625 73.5C221.875 73.1667 222.146 72.8542 222.438 72.5625C222.729 72.2708 223.062 72.0208 223.438 71.8125C223.812 71.6458 224.292 71.5625 224.875 71.5625C225.667 71.5625 226.438 71.6042 227.188 71.6875C227.938 71.8125 228.708 71.875 229.5 71.875C230.042 71.875 230.604 71.8125 231.188 71.6875C232.104 69.8125 232.917 67.9167 233.625 66C234.333 64.0417 234.875 62.0625 235.25 60.0625C235.542 59.6458 235.812 59.1667 236.062 58.625C236.312 58.0417 236.5 57.4375 236.625 56.8125C236.792 56.1875 236.896 55.5833 236.938 55C237.021 54.375 237.062 53.8125 237.062 53.3125C237.521 52.7708 237.833 52.1042 238 51.3125C238.208 50.5208 238.375 49.7083 238.5 48.875C238.625 48 238.75 47.1458 238.875 46.3125C239.042 45.4792 239.333 44.75 239.75 44.125V43.5625C239.792 42.9375 239.729 42.375 239.562 41.875C239.771 41.7917 239.896 41.6042 239.938 41.3125C239.979 41.0208 240.062 40.7708 240.188 40.5625C240.229 38.6458 240.438 36.7708 240.812 34.9375C241.188 33.0625 241.5 31.1875 241.75 29.3125V29.125C241.75 28.9167 241.667 28.8125 241.5 28.8125C241.375 28.7708 241.312 28.6458 241.312 28.4375C241.312 28.0625 241.354 27.5625 241.438 26.9375C241.562 26.3125 241.646 25.7917 241.688 25.375C241.938 23.125 242.062 20.8958 242.062 18.6875C242.062 16.8125 242 14.9583 241.875 13.125C241.75 11.2917 241.625 9.4375 241.5 7.5625L242 6.8125C242.167 6.5625 242.312 6.3125 242.438 6.0625C242.854 5.89583 243.188 5.72917 243.438 5.5625C243.729 5.35417 244.104 5.25 244.562 5.25C244.688 5.25 244.792 5.27083 244.875 5.3125C244.958 5.3125 245.042 5.3125 245.125 5.3125C245.375 5.47917 245.562 5.70833 245.688 6C245.854 6.29167 246 6.5625 246.125 6.8125C246.292 7.0625 246.5 7.27083 246.75 7.4375C247 7.60417 247.354 7.64583 247.812 7.5625C248.021 8.72917 248.604 9.33333 249.562 9.375C249.771 9.95833 250.021 10.5417 250.312 11.125C250.646 11.7083 251.083 12.1667 251.625 12.5C251.583 12.6667 251.562 12.8958 251.562 13.1875C251.562 13.7708 251.688 14.3333 251.938 14.875C252.229 15.4167 252.583 15.9167 253 16.375V16.5C253 16.9583 252.833 17.2708 252.5 17.4375C252.875 17.8542 253.146 18.3542 253.312 18.9375C253.479 19.5208 253.625 20.125 253.75 20.75C253.875 21.3333 254.021 21.8958 254.188 22.4375C254.396 22.9792 254.729 23.3958 255.188 23.6875V23.875C255.188 24.0833 255.104 24.2083 254.938 24.25C254.812 24.2917 254.75 24.4167 254.75 24.625C255.5 26 256.021 27.5 256.312 29.125C256.604 30.75 256.979 32.3125 257.438 33.8125C257.604 33.9792 257.792 34.0833 258 34.125C258.25 34.1667 258.438 34.2708 258.562 34.4375C258.312 34.6042 258.188 34.8958 258.188 35.3125C258.188 35.7292 258.083 36.0417 257.875 36.25C258.208 36.5417 258.354 36.9792 258.312 37.5625C258.312 38.1042 258.479 38.5 258.812 38.75V39C258.812 39.1667 258.771 39.3125 258.688 39.4375C258.604 39.5208 258.562 39.6458 258.562 39.8125V40.0625C258.896 41.5208 259.146 42.9792 259.312 44.4375C259.521 45.8958 259.729 47.3542 259.938 48.8125C260.146 50.2708 260.375 51.7292 260.625 53.1875C260.875 54.6042 261.229 56 261.688 57.375C261.729 57.4167 261.75 57.4792 261.75 57.5625C261.75 57.7708 261.667 57.8958 261.5 57.9375C261.333 57.9375 261.25 58.0417 261.25 58.25C261.25 58.4583 261.312 58.7083 261.438 59C261.604 59.25 261.771 59.4583 261.938 59.625C261.896 59.7917 261.875 60.0417 261.875 60.375C261.875 61 261.979 61.6042 262.188 62.1875C262.438 62.7708 262.688 63.3542 262.938 63.9375C263.229 64.4792 263.479 65.0625 263.688 65.6875C263.896 66.3125 263.979 66.9792 263.938 67.6875C264.188 68.0625 264.5 68.375 264.875 68.625C265.292 68.875 265.708 69.1042 266.125 69.3125C266.542 69.5208 266.917 69.7708 267.25 70.0625C267.625 70.3542 267.875 70.75 268 71.25C267.667 71.5417 267.438 71.8958 267.312 72.3125C267.188 72.7708 266.958 73.1667 266.625 73.5C266.917 74.2083 267.25 74.8542 267.625 75.4375C268.042 76.0625 268.458 76.6667 268.875 77.25L270.188 79C270.646 79.5833 271.042 80.2083 271.375 80.875C271.833 80.875 272.167 81 272.375 81.25C272.583 81.5 272.917 81.6042 273.375 81.5625C273.542 81.8958 273.604 82.2708 273.562 82.6875C274.396 82.3958 275.229 82.25 276.062 82.25C276.521 82.25 276.938 82.2708 277.312 82.3125C277.729 82.3542 278.146 82.375 278.562 82.375C279.062 82.375 279.5 82.3125 279.875 82.1875C280.042 82.4375 280.167 82.7083 280.25 83C280.333 83.3333 280.396 83.6667 280.438 84L280.625 85C280.708 85.3333 280.833 85.625 281 85.875ZM257.438 68.5625C256.854 65.6875 256.25 62.8333 255.625 60C255.042 57.125 254.521 54.2292 254.062 51.3125C253.812 49.7708 253.625 48.2292 253.5 46.6875C253.375 45.1458 253.208 43.625 253 42.125C252.833 40.5833 252.583 39.0625 252.25 37.5625C251.958 36.0625 251.521 34.5833 250.938 33.125V33C250.938 32.875 250.979 32.7708 251.062 32.6875C251.146 32.6042 251.188 32.4583 251.188 32.25V32C250.646 31.625 250.271 31.1042 250.062 30.4375C249.854 29.7292 249.667 29 249.5 28.25C249.375 27.4583 249.188 26.7083 248.938 26C248.729 25.25 248.354 24.625 247.812 24.125C247.604 26.5417 247.375 28.9583 247.125 31.375C246.917 33.75 246.771 36.1458 246.688 38.5625C246.271 38.8125 246 39.2292 245.875 39.8125C245.75 40.3958 245.688 40.9167 245.688 41.375C245.688 41.7083 245.708 42.0625 245.75 42.4375C245.792 42.7708 245.875 43.125 246 43.5C245.25 45.375 244.708 47.3125 244.375 49.3125C244.042 51.2708 243.667 53.2292 243.25 55.1875C243.208 55.3125 243.125 55.6042 243 56.0625C242.917 56.4792 242.812 56.9167 242.688 57.375C242.562 57.8333 242.458 58.25 242.375 58.625C242.292 58.9583 242.25 59.1458 242.25 59.1875C242.208 59.4792 242.188 59.7708 242.188 60.0625C242.229 60.3542 242.25 60.6458 242.25 60.9375L241.312 61.875C241.146 63.4583 240.833 65 240.375 66.5C239.958 67.9583 239.521 69.4583 239.062 71C239.354 71.0417 239.625 71.0625 239.875 71.0625C240.167 71.1042 240.458 71.125 240.75 71.125C242.083 71.125 243.417 71.0417 244.75 70.875C246.125 70.6667 247.479 70.4792 248.812 70.3125C249.271 70.2292 249.75 70.1667 250.25 70.125C250.75 70.0417 251.229 70 251.688 70C251.896 69.9583 252.146 69.9583 252.438 70C252.729 70 252.979 69.9792 253.188 69.9375C253.521 69.8542 253.729 69.7292 253.812 69.5625C253.938 69.3542 254.167 69.2292 254.5 69.1875C254.75 69.3125 255.042 69.375 255.375 69.375C255.75 69.375 256.104 69.2917 256.438 69.125C256.771 68.9583 257.104 68.7708 257.438 68.5625ZM326.375 13.1875C326.125 13.6042 325.938 14.0417 325.812 14.5C325.729 14.9583 325.667 15.4167 325.625 15.875H325.188C324.854 15.875 324.562 15.8333 324.312 15.75C324.062 15.625 323.771 15.5208 323.438 15.4375C323.604 17.0208 323.708 18.625 323.75 20.25C323.792 21.875 323.812 23.4792 323.812 25.0625C323.812 27.0625 323.792 29.0625 323.75 31.0625C323.708 33.0208 323.688 35 323.688 37C323.688 37.9583 323.625 38.9167 323.5 39.875C323.417 40.7917 323.167 41.6875 322.75 42.5625C322.833 43.2708 322.896 43.9583 322.938 44.625C322.979 45.25 323 45.9167 323 46.625C323 48.5833 322.875 50.5417 322.625 52.5C322.417 54.4167 322.146 56.3333 321.812 58.25C321.688 59 321.562 59.7708 321.438 60.5625C321.354 61.3125 321.208 62.0417 321 62.75C320.917 62.9583 320.792 63.1667 320.625 63.375C320.5 63.5833 320.396 63.7917 320.312 64C319.812 65.0833 319.25 66.1667 318.625 67.25C318.042 68.2917 317.333 69.25 316.5 70.125C315.875 70.1667 315.271 70.3333 314.688 70.625C314.104 70.9167 313.562 71.0625 313.062 71.0625C312.604 71.0625 312.229 70.8333 311.938 70.375L311.312 70.625C311.104 70.7083 310.875 70.7708 310.625 70.8125C309.208 70.2292 307.854 69.5208 306.562 68.6875C305.312 67.8542 304.271 66.7708 303.438 65.4375H303.188C302.812 65.4375 302.542 65.3542 302.375 65.1875C302.167 64.9792 301.938 64.7292 301.688 64.4375C301.479 64.1042 301.292 63.8125 301.125 63.5625C300.625 62.7708 300.083 61.9792 299.5 61.1875C298.917 60.3958 298.229 59.7292 297.438 59.1875C297.104 57.9375 296.604 56.875 295.938 56C295.271 55.0833 294.583 54.1042 293.875 53.0625C293.333 50.9792 292.333 49.0417 290.875 47.25C291.083 47.0417 291.188 46.8958 291.188 46.8125C291.188 46.6042 291.104 46.4375 290.938 46.3125C290.812 46.1458 290.75 45.9792 290.75 45.8125C290.75 45.6458 290.792 45.5208 290.875 45.4375C290.333 44.8542 289.875 44.2083 289.5 43.5C289.167 42.75 288.833 42 288.5 41.25C288.208 40.5 287.875 39.75 287.5 39C287.167 38.25 286.75 37.5625 286.25 36.9375C285.792 37.2292 285.5 37.5833 285.375 38C285.292 38.4167 285.25 38.8542 285.25 39.3125C285.25 39.6458 285.25 39.9792 285.25 40.3125C285.292 40.6458 285.312 40.9792 285.312 41.3125C285.312 42.1458 285.208 42.9583 285 43.75C284.833 44.5417 284.708 45.3542 284.625 46.1875C284.583 46.7708 284.562 47.4167 284.562 48.125C284.604 48.8333 284.583 49.5417 284.5 50.25C284.458 50.9583 284.354 51.6458 284.188 52.3125C284.021 52.9792 283.729 53.5417 283.312 54C283.062 56.375 282.75 58.75 282.375 61.125C282 63.5 281.646 65.875 281.312 68.25C281.229 68.6667 281.146 69.1875 281.062 69.8125C280.979 70.4375 280.875 71.0625 280.75 71.6875C280.667 72.3542 280.583 72.9792 280.5 73.5625C280.458 74.1875 280.438 74.6875 280.438 75.0625C280.438 75.4792 280.542 75.875 280.75 76.25C280.958 76.6667 281.062 77.0625 281.062 77.4375C281.062 77.7292 280.958 77.8958 280.75 77.9375C280.583 78.0208 280.479 78.1875 280.438 78.4375C280.729 79.3542 280.875 80.3958 280.875 81.5625C280.875 81.8958 280.854 82.2292 280.812 82.5625C280.771 82.9375 280.708 83.2917 280.625 83.625C280.542 83.8333 280.396 84.0208 280.188 84.1875C279.979 84.3958 279.875 84.5833 279.875 84.75C279.875 84.9167 279.958 85.0417 280.125 85.125C279.875 85.375 279.562 85.5417 279.188 85.625C278.812 85.7083 278.542 85.9375 278.375 86.3125C277.958 85.9792 277.542 85.6667 277.125 85.375C276.708 85.125 276.312 84.8333 275.938 84.5L275.75 84.4375C275.458 84.4375 275.208 84.5208 275 84.6875C274.833 84.8958 274.604 85 274.312 85C274.229 85 274.146 84.9792 274.062 84.9375C274.021 84.9375 273.958 84.9375 273.875 84.9375L273.5 83.3125C273.375 82.7708 273.208 82.2708 273 81.8125C273.333 80.9375 273.542 79.9375 273.625 78.8125C273.75 77.7292 273.875 76.625 274 75.5C274.125 74.375 274.312 73.2917 274.562 72.25C274.812 71.25 275.271 70.375 275.938 69.625C275.938 69.2917 275.812 69.0625 275.562 68.9375C275.354 68.8125 275.25 68.5417 275.25 68.125C275.25 68.0417 275.271 67.8958 275.312 67.6875C275.396 67.4792 275.458 67.25 275.5 67C275.583 66.75 275.646 66.5208 275.688 66.3125C275.771 66.0625 275.833 65.875 275.875 65.75C276.208 64.125 276.458 62.4583 276.625 60.75C276.833 59.0417 277.354 57.4583 278.188 56C278.146 55.8333 278.125 55.5833 278.125 55.25C278.125 54.5417 278.188 53.8542 278.312 53.1875C278.479 52.5208 278.562 51.8333 278.562 51.125C278.562 50.5417 278.5 50 278.375 49.5C278.5 49.0417 278.667 48.6042 278.875 48.1875C279.125 47.7292 279.25 47.2708 279.25 46.8125C279.25 46.3958 279.104 46.1042 278.812 45.9375C279.021 45.7708 279.146 45.5833 279.188 45.375C279.271 45.1667 279.312 44.9583 279.312 44.75C279.354 44.5417 279.396 44.3542 279.438 44.1875C279.521 43.9792 279.688 43.8125 279.938 43.6875C279.896 43.2708 279.854 42.875 279.812 42.5C279.812 42.125 279.812 41.7292 279.812 41.3125C279.812 39.7708 279.896 38.25 280.062 36.75C280.229 35.2083 280.312 33.6458 280.312 32.0625C280.312 30.5208 280.188 29.0208 279.938 27.5625L280.625 26.1875C280.208 25.8542 279.938 25.3125 279.812 24.5625C279.688 23.8125 279.604 23 279.562 22.125C279.521 21.25 279.438 20.3958 279.312 19.5625C279.229 18.6875 279 17.9792 278.625 17.4375V16.875C278.625 16.2083 278.583 15.5625 278.5 14.9375C278.417 14.3125 278.375 13.6875 278.375 13.0625V12.5C278.583 12.4167 278.729 12.2708 278.812 12.0625C278.938 11.8542 279.021 11.6458 279.062 11.4375H279.312C279.812 11.4375 280.312 11.3958 280.812 11.3125C281.312 11.2292 281.812 11.1875 282.312 11.1875H283.125C283.625 11.5625 284.062 12 284.438 12.5C284.812 13 285.271 13.4583 285.812 13.875V15C286.188 15.5 286.479 16.0417 286.688 16.625C286.896 17.2083 287.104 17.8125 287.312 18.4375C287.562 19.0625 287.812 19.6667 288.062 20.25C288.312 20.8333 288.667 21.3333 289.125 21.75C289.042 22.1667 289 22.5 289 22.75C289 23.2917 289.042 23.8333 289.125 24.375C289.25 24.9167 289.333 25.4375 289.375 25.9375C289.542 26.1458 289.688 26.4167 289.812 26.75C289.938 27.0417 290.146 27.2292 290.438 27.3125C290.646 28.9375 291.062 30.4792 291.688 31.9375C292.354 33.3958 292.833 34.9167 293.125 36.5C293.458 36.8333 293.708 37.25 293.875 37.75C294.042 38.2083 294.208 38.6667 294.375 39.125C294.583 39.5833 294.792 40.0208 295 40.4375C295.25 40.8125 295.604 41.0833 296.062 41.25C296.312 42.25 296.625 43.25 297 44.25C297.375 45.25 297.958 46.1042 298.75 46.8125C298.75 47.6458 298.875 48.375 299.125 49C299.417 49.5833 299.729 50.1458 300.062 50.6875C300.438 51.1875 300.771 51.6875 301.062 52.1875C301.354 52.6875 301.542 53.2292 301.625 53.8125C302.208 54.6875 302.875 55.5 303.625 56.25C304.417 57 305.208 57.7292 306 58.4375C306.833 59.1042 307.646 59.7917 308.438 60.5C309.229 61.2083 309.958 61.9583 310.625 62.75C311.083 62.7917 311.458 62.8958 311.75 63.0625C312.083 63.1875 312.458 63.2917 312.875 63.375C313.167 63.1667 313.396 62.9167 313.562 62.625C313.771 62.2917 313.958 61.9583 314.125 61.625C314.292 61.2917 314.458 60.9792 314.625 60.6875C314.833 60.3542 315.083 60.0625 315.375 59.8125C315.375 59.7292 315.354 59.6667 315.312 59.625C315.312 59.5417 315.312 59.4583 315.312 59.375C315.312 58.9167 315.375 58.5625 315.5 58.3125C315.667 58.0208 315.854 57.7083 316.062 57.375V55.75C316.396 55.125 316.625 54.4583 316.75 53.75C316.875 53.0417 316.938 52.3333 316.938 51.625C316.938 51.0417 316.917 50.4583 316.875 49.875C316.833 49.25 316.812 48.625 316.812 48C316.812 47.625 316.833 47.25 316.875 46.875C316.917 46.4583 317 46.0833 317.125 45.75C317.208 45.6667 317.354 45.5417 317.562 45.375C317.771 45.1667 317.875 45.0417 317.875 45C317.875 44.7917 317.812 44.5833 317.688 44.375C317.562 44.1667 317.5 43.9583 317.5 43.75C317.5 43.4583 317.625 43.2292 317.875 43.0625V42.6875C317.875 42.4792 317.833 42.2917 317.75 42.125C317.708 41.9167 317.583 41.7708 317.375 41.6875C317.583 41.4375 317.729 41.1458 317.812 40.8125C317.896 40.4375 317.938 40.0625 317.938 39.6875C317.979 39.2708 317.979 38.875 317.938 38.5C317.938 38.125 317.938 37.7708 317.938 37.4375C317.938 37.0625 317.958 36.6667 318 36.25C318.042 35.8333 318.208 35.4792 318.5 35.1875C318.375 34.6875 318.292 34.2083 318.25 33.75C318.208 33.25 318.188 32.75 318.188 32.25C318.188 31.375 318.229 30.5 318.312 29.625C318.396 28.75 318.438 27.8542 318.438 26.9375C318.438 26.6042 318.417 26.2708 318.375 25.9375C318.333 25.5625 318.312 25.2083 318.312 24.875C318.312 24.5417 318.375 24.3958 318.5 24.4375C318.667 24.4375 318.75 24.3333 318.75 24.125C318.75 23.8333 318.708 23.5417 318.625 23.25C318.583 22.9583 318.542 22.6667 318.5 22.375C318.417 21.6667 318.354 20.9583 318.312 20.25C318.271 19.5 318.25 18.75 318.25 18C318.25 17.5417 318.25 17.0833 318.25 16.625C318.292 16.125 318.375 15.6458 318.5 15.1875C318.25 14.8125 318.083 14.4583 318 14.125C317.958 13.75 317.917 13.4167 317.875 13.125L317.75 12.1875C317.708 11.8542 317.583 11.5208 317.375 11.1875C317.333 11.1458 317.312 11.0208 317.312 10.8125C317.312 10.4792 317.396 10.2292 317.562 10.0625C317.354 9.35417 317.062 8.66667 316.688 8C316.354 7.33333 316.146 6.60417 316.062 5.8125C315.604 5.5625 315.25 5.16667 315 4.625C314.792 4.04167 314.688 3.52083 314.688 3.0625C314.688 2.52083 314.833 2 315.125 1.5C315.417 0.958333 315.875 0.6875 316.5 0.6875C316.75 0.6875 316.979 0.770833 317.188 0.9375C317.438 1.0625 317.667 1.22917 317.875 1.4375C318.125 1.60417 318.354 1.77083 318.562 1.9375C318.812 2.0625 319.062 2.125 319.312 2.125C319.479 2.125 319.729 2.08333 320.062 2C320.521 2.625 320.979 3.20833 321.438 3.75C321.938 4.25 322.438 4.77083 322.938 5.3125C322.938 6.02083 323.062 6.66667 323.312 7.25C323.562 7.83333 323.833 8.39583 324.125 8.9375C324.417 9.4375 324.667 9.9375 324.875 10.4375C325.125 10.9375 325.229 11.4792 325.188 12.0625C325.271 12.3542 325.438 12.5625 325.688 12.6875C325.938 12.8125 326.167 12.9792 326.375 13.1875Z" fill="white"/>
</svg>
