<svg width="327" height="97" viewBox="0 0 327 97" fill="none" xmlns="http://www.w3.org/2000/svg"><path d="M92.625 85c0 .458-.104.896-.313 1.313a8.613 8.613 0 01-2.624.937 11.3 11.3 0 01-2.626.313c-.416 0-.874-.021-1.374-.063-.459 0-.876-.042-1.25-.125a1.627 1.627 0 01-.438-.25.831.831 0 00-.5-.188 3.73 3.73 0 00-1.188.188 2.89 2.89 0 01-1.187.25c-.208 0-.417-.063-.625-.188a1.375 1.375 0 00-.563-.25 2.08 2.08 0 00-.874-.062 6.633 6.633 0 01-.938.063c-.458 0-.875-.063-1.25-.188-.333-.125-.646-.354-.938-.688a19.002 19.002 0 01-3.062-.624c-1-.25-2-.542-3-.876l-3-.874c-1-.25-2.02-.417-3.063-.5a2.784 2.784 0 00-.874-.688 1.346 1.346 0 01-.75-.688c-.209 0-.355.021-.438.063-.083.083-.23.125-.438.125A12.227 12.227 0 0059 80.5a34.79 34.79 0 00-2.5-1.188 67.794 67.794 0 01-2.5-1.187 9.63 9.63 0 01-2.25-1.5h-.313a1.098 1.098 0 01-.874-.25c-.209-.167-.48-.25-.813-.25-.208 0-.375.02-.5.063a1.903 1.903 0 00-.563-.813c-.25-.208-.52-.417-.812-.625-.25-.167-.5-.354-.75-.563a1.528 1.528 0 01-.563-.687 22.238 22.238 0 01-3.062-1.375 9.083 9.083 0 01-2.563-2c-.833-.083-1.52-.333-2.062-.75a8.491 8.491 0 01-1.5-1.688c-1-.333-1.917-.77-2.75-1.312a87.954 87.954 0 01-2.5-1.688 17.508 17.508 0 00-2.563-1.562c-.875-.5-1.875-.854-3-1.063-.041-.291-.166-.5-.375-.624a2.113 2.113 0 00-.75-.376c-.25-.124-.5-.229-.75-.312a.948.948 0 01-.562-.5h-.375a1.179 1.179 0 00-.375-.063c-.125 0-.27.021-.438.063h-.375l.063-.188c0-.166-.063-.27-.188-.312a1.936 1.936 0 00-.375-.125 1.39 1.39 0 01-.437-.188c-.125-.083-.188-.27-.188-.562h-.187c-.458 0-.875-.083-1.25-.25a5.482 5.482 0 00-1.25-.375 7.345 7.345 0 00-.125 1.313v1.124c0 1.876.208 3.855.625 5.938.417 2.042 1.063 3.875 1.938 5.5.875.333 1.625.77 2.25 1.313.625.541 1.229 1.166 1.812 1.874.042 1.126-.375 2.063-1.25 2.813-.833.792-1.813 1.188-2.938 1.188a3.28 3.28 0 01-1.75-.5c-.5-.292-.916-.73-1.25-1.313-.25 0-.479.042-.687.125a1.431 1.431 0 01-1.125.125A18.295 18.295 0 0015 75.875c-.375-.542-.625-1.27-.75-2.188-.458-.208-.75-.583-.875-1.124-.083-.542-.313-.98-.688-1.313A86.296 86.296 0 0012 65.625 42.516 42.516 0 0111.625 60c0-.417.02-.833.063-1.25l.124-1.375a1.665 1.665 0 00-.374-.563 4.37 4.37 0 01-.313-.624c-.833.208-1.708.416-2.625.624-.875.167-1.77.25-2.688.25-.583 0-1.291-.083-2.125-.25-.833-.208-1.479-.479-1.937-.812-.333-.208-.563-.583-.688-1.125-.166-.583-.25-1.083-.25-1.5 0-.708.125-1.417.375-2.125.25-.75.584-1.396 1-1.938a29.776 29.776 0 005.688-3.062 66.27 66.27 0 005.25-3.938c.042-.416.104-.833.188-1.25.124-.416.187-.854.187-1.312 0-.5-.125-.98-.375-1.438.25-.25.375-.562.375-.937 0-.417.104-.792.313-1.125v-.375c0-.167-.021-.333-.063-.5a.831.831 0 00-.188-.5c.292-1.625.521-3.23.688-4.813a48.98 48.98 0 00.25-5c0-.125.063-.458.188-1 .166-.583.27-.979.312-1.187.167-.958.27-1.896.313-2.813.083-.958.187-1.916.312-2.875.042-.333.125-.77.25-1.312s.188-.917.188-1.125c0-.292-.063-.48-.188-.563a2.45 2.45 0 01-.25-.562c.25-.958.375-1.917.375-2.875.042-1 .125-1.98.25-2.938.708-.291 1.27-.583 1.688-.875.416-.291 1.02-.437 1.812-.437h.125c.083.5.27.98.563 1.438.291.416.583.854.875 1.312.333.417.625.833.875 1.25.25.375.375.75.375 1.125 0 .708-.063 1.48-.188 2.313-.125.833-.23 1.604-.313 2.312-.208 1.875-.395 3.73-.562 5.563a66.788 66.788 0 01-.75 5.5c.125.583.188 1.125.188 1.625 0 .75-.063 1.5-.188 2.25s-.188 1.52-.188 2.312c0 .375.021.77.063 1.188.083.416.208.791.375 1.124 1.417-.374 2.688-1.145 3.813-2.312.166-.167.333-.375.5-.625a3.42 3.42 0 01.625-.688 8.995 8.995 0 011.312-.874c.5-.292.98-.584 1.438-.875a59.21 59.21 0 003.125-2.188 150.293 150.293 0 013.125-2.313 165.48 165.48 0 008.937-7 148.526 148.526 0 008.5-7.75c.125-.708.375-1.27.75-1.687a6.718 6.718 0 001-1.5 5.633 5.633 0 002.063-1.313c.25.084.5.146.75.188h.812c.292 0 .563.02.813.063.291 0 .541.062.75.187.041.625.104 1.188.187 1.688s.333.979.75 1.437v.25a.554.554 0 01.063.25c0 .458-.126.833-.376 1.125-.25.292-.395.646-.437 1.063l-3.25 3.25a30.188 30.188 0 00-3 3.5 2 2 0 00-.875.312c-.25.167-.5.354-.75.563a9.817 9.817 0 01-.688.5c-.25.166-.52.291-.812.375-.75 1-1.604 1.916-2.563 2.75a79.569 79.569 0 01-2.937 2.312c-1 .75-2 1.52-3 2.313a21.713 21.713 0 00-2.688 2.5c-.874.416-1.729.916-2.562 1.5a6.552 6.552 0 00-1.938 2.062h-.312a.676.676 0 00-.5.188c-.125.083-.292.124-.5.124a99.93 99.93 0 01-7 5.563 68.213 68.213 0 00-6.938 5.625v1.563c.709.416 1.48.812 2.313 1.187.833.333 1.646.708 2.438 1.125.833.417 1.604.875 2.312 1.375a7.54 7.54 0 011.938 1.688.695.695 0 01.312-.063c.375 0 .667.125.875.375.208.208.563.27 1.063.188.166.666.541 1.145 1.125 1.437.583.292 1.166.542 1.75.75.5.5.958.98 1.374 1.438.417.416 1.021.687 1.813.812.083.167.146.354.188.563.041.208.124.395.25.562.791.25 1.541.604 2.25 1.063.75.458 1.479.937 2.187 1.437L43.5 63.25c.75.417 1.542.75 2.375 1 .125.417.354.708.688.875.374.167.666.417.874.75h1.126c.124.208.291.417.5.625.208.167.354.417.437.75.333.083.708.208 1.125.375a4.61 4.61 0 011.125.5c.125.125.208.27.25.438.083.166.208.312.375.437.25.208.625.375 1.125.5.542.083 1 .23 1.375.438.75.416 1.48.874 2.188 1.374a21.096 21.096 0 002.25 1.5l2.437 1.313c.417.208.792.438 1.125.688.375.25.75.479 1.125.687.75.333 1.542.542 2.375.625a8.307 8.307 0 012.375.688c.208.124.354.27.438.437.083.208.229.375.437.5.333.208.854.354 1.563.438.708.083 1.291.229 1.75.437.583.25 1.145.48 1.687.688.583.25 1.167.541 1.75.874 1.25.084 2.48.23 3.688.438 1.25.208 2.479.417 3.687.625 1.208.208 2.417.396 3.625.563 1.25.166 2.5.229 3.75.187 0 .083.042.125.125.125.125.042.23.063.313.063.291.458.541.916.75 1.374.208.459.312.938.312 1.438zm12.313.875c-.126.708-.417 1.208-.876 1.5-.416.333-.812.792-1.187 1.375h-.25c-.417 0-.833.042-1.25.125-.375.083-.771.188-1.187.313a3.296 3.296 0 00-.75-.188c-.292-.042-.48-.188-.563-.438-.333.167-.792.25-1.375.25-.958 0-1.875-.27-2.75-.812a10.82 10.82 0 00-2.625-1.25c-.25-.5-.563-.958-.938-1.375-.333-.375-.687-.75-1.062-1.125-.333-.375-.667-.77-1-1.188a5.154 5.154 0 01-.813-1.5c-.083-.25-.187-.395-.312-.437-.125-.042-.313-.042-.563 0 .042-.458-.02-.854-.187-1.188-.125-.333-.438-.541-.938-.624 0-.542-.083-1-.25-1.376a4.059 4.059 0 00-.624-1c-.209-.25-.459-.52-.75-.812a3.766 3.766 0 01-.626-1.063c-.374-.083-.75-.145-1.124-.187h-1.126c-2 0-3.937.375-5.812 1.125a9.157 9.157 0 00-.688.313 4.37 4.37 0 01-.624.312h-.25c-.042.042-.105.063-.188.063-.292 0-.563-.063-.813-.188a2.555 2.555 0 00-.812-.125c-.125 0-.27.02-.438.063a1.58 1.58 0 01-.374.187 7.35 7.35 0 01-1.75.375c-1.709.333-3.521.583-5.438.75-1.875.167-3.604.604-5.188 1.313-.333.166-.541.416-.624.75-.084.374-.105.729-.063 1.062-.458.333-.813.77-1.063 1.313a74.693 74.693 0 00-.624 1.687c-.167.625-.355 1.23-.563 1.813a4.45 4.45 0 01-.875 1.5c.125.25.188.52.188.812 0 .625-.209 1.25-.626 1.875a8.376 8.376 0 00-.937 1.813 15.175 15.175 0 00-.5 1.687 5.77 5.77 0 01-.563 1.563c-.25.458-.583.833-1 1.124-.458.292-1.083.438-1.874.438-.75 0-1.396-.146-1.938-.438a3.848 3.848 0 01-1.313-1.124 5.93 5.93 0 01-.812-1.626 15.61 15.61 0 01-.5-1.874c.458-.917.896-1.709 1.313-2.376.416-.666.729-1.52.937-2.562a5.18 5.18 0 001.688-2c.333-.75.52-1.583.562-2.5a2.53 2.53 0 001-1.188c.167-.458.27-.958.313-1.5-1-.083-2.042-.166-3.126-.25a12.228 12.228 0 01-3.124-.624c0-.084.02-.167.062-.25v-.25c0-.542-.125-1.042-.375-1.5a2.623 2.623 0 01-.375-1.376v-.5c.333-.333.646-.687.938-1.062.25-.333.52-.646.812-.938a4.484 4.484 0 011-.75c.375-.166.854-.25 1.438-.25.791 0 1.562.042 2.312.126.75.124 1.52.187 2.313.187a8.05 8.05 0 001.687-.188A61.405 61.405 0 0057.563 66a38.052 38.052 0 001.624-5.938c.292-.416.563-.895.813-1.437.25-.583.438-1.188.563-1.813.166-.624.27-1.229.312-1.812.083-.625.125-1.188.125-1.688.458-.541.77-1.208.938-2 .208-.791.374-1.604.5-2.437.124-.875.25-1.73.374-2.563.167-.833.459-1.562.876-2.187v-.563c.041-.624-.021-1.187-.188-1.687.208-.083.333-.27.375-.563.042-.291.125-.541.25-.75.042-1.916.25-3.791.625-5.624.375-1.876.688-3.75.938-5.626v-.187c0-.208-.084-.313-.25-.313-.126-.041-.188-.166-.188-.375 0-.375.042-.875.125-1.5.125-.625.208-1.145.25-1.562.25-2.25.375-4.48.375-6.688 0-1.875-.063-3.729-.188-5.562-.124-1.833-.25-3.688-.374-5.563l.5-.75c.166-.25.312-.5.437-.75.417-.166.75-.333 1-.5.292-.208.667-.312 1.125-.312.125 0 .23.02.313.063h.25c.25.166.437.395.562.687.167.292.313.563.438.813.166.25.374.458.624.625.25.166.605.208 1.063.125.208 1.166.792 1.77 1.75 1.812.208.583.458 1.167.75 1.75.333.583.77 1.042 1.313 1.375a2.965 2.965 0 00-.063.688c0 .583.125 1.145.375 1.687a7.526 7.526 0 001.063 1.5v.125c0 .458-.167.77-.5.938.374.416.645.916.812 1.5.167.583.313 1.187.438 1.812.124.583.27 1.146.437 1.688.208.541.542.958 1 1.25v.187c0 .208-.083.333-.25.375-.125.042-.188.167-.188.375a14.782 14.782 0 011.563 4.5 40.548 40.548 0 001.125 4.688c.167.166.354.27.563.312.25.042.437.146.562.313-.25.166-.375.458-.375.874 0 .417-.104.73-.313.938.334.292.48.73.438 1.313 0 .541.167.937.5 1.187V39a.77.77 0 01-.125.438c-.083.083-.125.208-.125.374v.25c.333 1.459.583 2.917.75 4.376l.625 4.374c.208 1.459.438 2.917.688 4.376.25 1.416.604 2.812 1.062 4.187.042.042.063.104.063.188 0 .208-.084.333-.25.374-.167 0-.25.105-.25.313 0 .208.062.458.187.75.167.25.333.458.5.625-.042.167-.063.417-.063.75 0 .625.105 1.23.313 1.813l.75 1.75c.292.541.542 1.124.75 1.75.208.624.292 1.291.25 2 .25.374.563.687.938.937.416.25.833.48 1.25.688a5.29 5.29 0 011.124.75c.376.291.626.687.75 1.187a2.244 2.244 0 00-.687 1.063 2.63 2.63 0 01-.688 1.187c.292.708.626 1.354 1 1.938.417.624.834 1.229 1.25 1.812L94.126 79c.458.583.854 1.208 1.188 1.875.458 0 .791.125 1 .375.208.25.541.354 1 .313.166.333.229.708.187 1.124a7.525 7.525 0 012.5-.437c.458 0 .875.02 1.25.063.417.041.833.062 1.25.062.5 0 .938-.063 1.312-.188.167.25.292.521.376.813.083.333.145.667.187 1l.187 1c.084.333.209.625.376.875zM81.375 68.562A516.554 516.554 0 0079.562 60 199.18 199.18 0 0178 51.312a58.335 58.335 0 01-.563-4.624 80.408 80.408 0 00-.5-4.563 41.668 41.668 0 00-.75-4.563c-.291-1.5-.729-2.979-1.312-4.437V33c0-.125.042-.23.125-.313.083-.083.125-.229.125-.437V32c-.542-.375-.917-.896-1.125-1.563a33.564 33.564 0 01-.563-2.187 12.695 12.695 0 00-.562-2.25 3.922 3.922 0 00-1.125-1.875 425.852 425.852 0 01-.688 7.25c-.208 2.375-.354 4.77-.437 7.188-.417.25-.688.666-.813 1.25a7.546 7.546 0 00-.187 1.562c0 .333.02.688.063 1.063.041.333.124.687.25 1.062a27.996 27.996 0 00-1.626 5.813 145.624 145.624 0 01-1.124 5.874c-.042.126-.126.417-.25.876-.084.416-.188.854-.313 1.312-.125.458-.23.875-.313 1.25-.083.333-.124.52-.124.563a6.175 6.175 0 00-.063.874c.042.292.063.584.063.876l-.938.937a24.609 24.609 0 01-.938 4.625A441.552 441.552 0 0163 71c.292.042.563.063.813.063.291.041.583.062.874.062 1.334 0 2.667-.083 4-.25 1.376-.208 2.73-.396 4.063-.563.458-.083.938-.145 1.438-.187.5-.083.979-.125 1.437-.125.208-.042.458-.042.75 0 .292 0 .542-.02.75-.063.333-.083.542-.208.625-.374.125-.209.354-.334.688-.376.25.126.541.188.874.188.376 0 .73-.083 1.063-.25.333-.167.667-.354 1-.563zm68.937-55.374a5.2 5.2 0 00-.562 1.312c-.083.458-.146.917-.188 1.375h-.437c-.333 0-.625-.042-.875-.125a4.284 4.284 0 00-.875-.313c.167 1.584.271 3.188.313 4.813.041 1.625.062 3.23.062 4.813 0 2-.021 4-.062 6a276.923 276.923 0 00-.063 5.937c0 .958-.063 1.917-.187 2.875a7.901 7.901 0 01-.75 2.688c.083.708.145 1.395.187 2.062.042.625.063 1.292.063 2a46.35 46.35 0 01-.376 5.875 90.84 90.84 0 01-.812 5.75c-.125.75-.25 1.52-.375 2.313a12.71 12.71 0 01-.437 2.187 2.502 2.502 0 01-.376.625 4.44 4.44 0 00-.312.625 39.997 39.997 0 01-1.688 3.25c-.583 1.042-1.291 2-2.124 2.875a4.717 4.717 0 00-1.813.5c-.583.292-1.125.438-1.625.438-.458 0-.833-.23-1.125-.688l-.625.25a3.318 3.318 0 01-.688.188 25.16 25.16 0 01-4.062-2.126c-1.25-.833-2.292-1.916-3.125-3.25h-.25c-.375 0-.646-.083-.813-.25a13.54 13.54 0 01-.687-.75 33.914 33.914 0 00-.563-.874 40.28 40.28 0 00-1.624-2.376 8.547 8.547 0 00-2.063-2c-.333-1.25-.833-2.312-1.5-3.187a114.551 114.551 0 01-2.063-2.938c-.541-2.083-1.541-4.02-3-5.812.209-.208.313-.354.313-.438a.593.593 0 00-.25-.5.83.83 0 01-.187-.5c0-.166.041-.291.124-.374-.541-.584-1-1.23-1.374-1.938l-1-2.25a26.98 26.98 0 00-1-2.25 9.416 9.416 0 00-1.25-2.063c-.459.292-.75.646-.876 1.063a6.708 6.708 0 00-.124 1.313v1c.041.333.062.666.062 1 0 .833-.104 1.645-.312 2.437a22.959 22.959 0 00-.376 2.438c-.041.583-.062 1.229-.062 1.937a12.08 12.08 0 01-.062 2.125 11.197 11.197 0 01-.313 2.063c-.167.666-.458 1.229-.875 1.687a137.83 137.83 0 01-.938 7.125c-.374 2.375-.729 4.75-1.062 7.125-.083.417-.167.938-.25 1.563-.083.624-.188 1.25-.312 1.874-.084.667-.167 1.292-.25 1.876a23.502 23.502 0 00-.063 1.5c0 .416.104.812.313 1.187.208.417.312.813.312 1.188 0 .291-.104.458-.312.5-.167.083-.271.25-.313.5.292.916.437 1.958.437 3.124 0 .334-.02.667-.062 1-.042.376-.104.73-.188 1.063a1.382 1.382 0 01-.437.563c-.208.208-.313.395-.313.562 0 .167.084.292.25.375-.25.25-.562.417-.937.5-.375.083-.646.313-.813.688a24.023 24.023 0 00-1.25-.938 7.95 7.95 0 01-1.187-.875l-.188-.063c-.291 0-.541.084-.75.25-.166.209-.395.313-.687.313a.554.554 0 01-.25-.063h-.188l-.374-1.624a7.921 7.921 0 00-.5-1.5c.333-.876.541-1.876.624-3 .126-1.084.25-2.188.376-3.313.124-1.125.312-2.208.562-3.25.25-1 .708-1.875 1.375-2.625 0-.333-.125-.563-.375-.688-.208-.124-.313-.395-.313-.812 0-.083.021-.23.063-.438.083-.208.146-.437.188-.687.083-.25.145-.48.187-.688l.188-.562c.333-1.625.583-3.292.749-5a12.55 12.55 0 011.563-4.75c-.042-.167-.063-.417-.063-.75 0-.708.063-1.396.188-2.063.167-.666.25-1.354.25-2.062 0-.583-.062-1.125-.188-1.625.126-.458.292-.896.5-1.313.25-.458.376-.916.376-1.374 0-.417-.146-.709-.438-.876.208-.166.333-.354.375-.562.083-.208.125-.417.125-.625.042-.208.083-.396.125-.563.083-.208.25-.374.5-.5-.042-.416-.083-.812-.125-1.187v-1.188c0-1.541.083-3.062.25-4.562.167-1.542.25-3.104.25-4.688 0-1.541-.125-3.041-.375-4.5l.687-1.375c-.416-.333-.687-.875-.812-1.625a20.987 20.987 0 01-.25-2.437 25.513 25.513 0 00-.25-2.563c-.083-.875-.312-1.583-.688-2.125v-.562c0-.667-.041-1.313-.124-1.938a14.061 14.061 0 01-.126-1.874V12.5a.753.753 0 00.438-.438c.125-.208.208-.416.25-.624h.25c.5 0 1-.042 1.5-.126.5-.083 1-.124 1.5-.124h.812c.5.374.938.812 1.313 1.312s.833.958 1.375 1.375V15c.375.5.667 1.042.875 1.625.208.583.417 1.188.625 1.813.25.625.5 1.229.75 1.812s.604 1.083 1.062 1.5a5.39 5.39 0 00-.124 1c0 .542.041 1.083.124 1.625.126.542.209 1.063.25 1.563.167.208.313.479.438.812.125.292.333.48.625.563a17.235 17.235 0 001.25 4.625 19.326 19.326 0 011.437 4.562c.334.333.584.75.75 1.25l.5 1.375c.209.458.417.896.626 1.313.25.374.604.645 1.062.812.25 1 .562 2 .938 3 .374 1 .958 1.854 1.75 2.563 0 .833.124 1.562.374 2.187.292.583.605 1.146.938 1.688.375.5.708 1 1 1.5.292.5.479 1.041.562 1.624a16 16 0 002 2.438c.792.75 1.584 1.48 2.376 2.188a58.348 58.348 0 012.437 2.062 22.13 22.13 0 012.187 2.25c.459.042.834.146 1.126.313.333.124.708.229 1.124.312.292-.208.521-.458.688-.75.208-.333.396-.667.562-1 .167-.333.334-.646.5-.938.209-.333.459-.624.75-.874 0-.084-.02-.146-.062-.188v-.25c0-.458.062-.813.188-1.063.166-.291.354-.604.562-.937V55.75a6.733 6.733 0 00.688-2c.124-.708.187-1.417.187-2.125 0-.583-.021-1.167-.063-1.75A28.637 28.637 0 01140.75 48c0-.375.021-.75.062-1.125.042-.417.126-.792.25-1.125.084-.083.23-.208.438-.375.208-.208.312-.333.312-.375 0-.208-.062-.417-.187-.625a1.205 1.205 0 01-.187-.625c0-.292.124-.52.374-.688v-.374c0-.209-.041-.396-.124-.563a.572.572 0 00-.376-.438c.209-.25.355-.541.438-.874.083-.376.125-.75.125-1.126a5.608 5.608 0 000-1.187v-1.063c0-.374.021-.77.063-1.187.041-.417.208-.77.5-1.063-.126-.5-.209-.979-.25-1.437-.042-.5-.063-1-.063-1.5 0-.875.042-1.75.125-2.625.083-.875.125-1.77.125-2.688 0-.333-.021-.666-.063-1a9.805 9.805 0 01-.062-1.062c0-.333.062-.48.188-.438.166 0 .25-.104.25-.312 0-.292-.042-.583-.126-.875l-.124-.875a36.268 36.268 0 01-.25-4.375v-1.375c.041-.5.124-.98.25-1.438-.25-.374-.417-.729-.5-1.062a32.397 32.397 0 00-.126-1l-.124-.938a2.46 2.46 0 00-.376-1c-.041-.041-.062-.166-.062-.374 0-.334.083-.584.25-.75A9.873 9.873 0 00140.625 8 6.33 6.33 0 01140 5.812c-.458-.25-.812-.645-1.062-1.187-.209-.583-.313-1.104-.313-1.563 0-.541.146-1.062.437-1.562.292-.542.75-.813 1.376-.813.25 0 .479.084.687.25.25.125.479.292.687.5.25.167.48.334.688.5.25.125.5.188.75.188.167 0 .417-.042.75-.125.458.625.917 1.208 1.375 1.75.5.5 1 1.02 1.5 1.563 0 .708.125 1.354.375 1.937s.521 1.146.812 1.688c.292.5.542 1 .75 1.5.25.5.355 1.041.313 1.624.083.292.25.5.5.626.25.124.479.291.687.5zm77.063 47.187c0 .542-.146 1.042-.437 1.5-.292.417-.376.917-.25 1.5-.167.292-.396.52-.688.688-.25.166-.333.479-.25.937a10.928 10.928 0 00-2.438 1.75A27.034 27.034 0 01221 68.688c-.5.374-.938.645-1.312.812-.334.125-.75.333-1.25.625l-1.563 1c-.708.375-1.437.75-2.187 1.125a8.053 8.053 0 00-1.938 1.438c-.875.041-1.771.27-2.688.687-.916.458-1.791.854-2.624 1.188a4.41 4.41 0 01-1 .25 4.86 4.86 0 00-1 .374l-1 .438a20.54 20.54 0 01-2.063.875c-.792.333-1.5.5-2.125.5-.375.167-.688.458-.938.875a28.767 28.767 0 01-4.25 1.063c-1.458.25-2.874.645-4.25 1.187-.458.208-.937.48-1.437.813-.458.374-.958.541-1.5.5a1.997 1.997 0 00-.25.75 6.663 6.663 0 01-.187.874h-.188c-.167 0-.25-.083-.25-.25.042-.166-.021-.25-.188-.25-.124 0-.208.021-.25.063-.541.125-1.062.23-1.562.313a8.79 8.79 0 01-1.562.124c-.334 0-.876-.041-1.626-.124-.708-.084-1.229-.188-1.562-.313-.25-.125-.458-.354-.625-.688a25.875 25.875 0 01-.5-1.062c-.125-.375-.25-.77-.375-1.188a9.664 9.664 0 00-.25-.937c.125-.458.333-.833.625-1.125.292-.292.521-.667.687-1.125.376-.042.75-.104 1.126-.188.374-.083.75-.104 1.124-.062l3.876-1.125c1.333-.333 2.645-.688 3.937-1.063a58.205 58.205 0 003.813-1.25 23.783 23.783 0 003.624-1.687h1.313a13.66 13.66 0 012.5-1.063c.917-.291 1.667-.77 2.25-1.437a39.787 39.787 0 004.313-1.188c1.5-.5 2.75-1.291 3.75-2.374.624-.084 1.166-.23 1.624-.438.459-.25.896-.5 1.313-.75l1.25-.813c.417-.291.896-.52 1.437-.687.334-.333.646-.688.938-1.063a3.838 3.838 0 011.062-.937c-.124-.667-.458-1.167-1-1.5a6.639 6.639 0 01-1.437-1.188h-1.375a13.054 13.054 0 00-3.5-1.5c-1.208-.374-2.417-.77-3.625-1.187a.694.694 0 00-.313-.063c-.291 0-.479.105-.562.313-.042.208-.208.292-.5.25a2.583 2.583 0 00-1.188-.438 6.676 6.676 0 00-1.312-.124c-.583 0-1.167.041-1.75.124-.542.042-1.104.063-1.688.063a6.16 6.16 0 01-.874-.063 2.468 2.468 0 01-.876-.312h-.812c-.875 0-1.75.042-2.625.125-.833.042-1.667.063-2.5.063h-1.313a13 13 0 01-1.25-.188 10.52 10.52 0 01-2.812.875c-1 .167-2.042.292-3.125.375l-3.125.25a22.814 22.814 0 00-3 .313c-.25-.042-.5-.063-.75-.063a3.177 3.177 0 00-.625-.063c-.208 0-.437.021-.687.063-.209 0-.417.02-.626.063a4.538 4.538 0 00-2-1.25c-.75-.292-1.5-.48-2.25-.563-.583-.708-1.02-1.417-1.312-2.125a11.05 11.05 0 01-.5-2.5h.25c.292 0 .417-.146.375-.438 0-.291.104-.541.313-.75a1.5 1.5 0 01.812-.5c.375-.124.729-.25 1.062-.374.334-.126.646-.271.938-.438.333-.208.583-.52.75-.938h.812c.167 0 .334.021.5.063.209 0 .376.063.5.188a2.39 2.39 0 01.626-.438c.25-.125.479-.25.687-.375.25-.125.458-.27.625-.438.167-.166.271-.416.312-.75.042.126.146.188.313.188a.766.766 0 00.437-.125.854.854 0 01.563-.063c.208-.583.563-.895 1.063-.937.5-.042.958-.188 1.374-.438.292-.166.563-.354.813-.562.25-.25.521-.48.813-.688l3.75-2.874 5.75-4.376A77.641 77.641 0 01199.062 32c.084-.25.209-.438.376-.563l.5-.375a1.96 1.96 0 00.374-.5c.126-.166.167-.416.126-.75.583-.125 1.02-.354 1.312-.687.333-.333.625-.688.875-1.063.25-.416.5-.812.75-1.187.292-.417.667-.73 1.125-.938-.042-.125-.062-.312-.062-.562 0-.333.02-.667.062-1 .083-.333.25-.625.5-.875-.375-.875-1.021-1.5-1.938-1.875a31.518 31.518 0 00-2.624-1.063h-.188c-.208 0-.333.105-.375.313 0 .167-.104.292-.313.375-.666-.167-1.416-.25-2.25-.25-.833 0-1.666.063-2.5.188a9.502 9.502 0 01-2.437.062 4.763 4.763 0 01-.437.5 1.737 1.737 0 01-.5.438c-.876.041-1.75.166-2.626.375l-2.624.625-1.438.312a.759.759 0 00-.438.438 3.356 3.356 0 00-.187.687c-.25-.042-.417-.146-.5-.313-.042-.166-.187-.291-.437-.375-.959.584-2 1.063-3.126 1.438a8.476 8.476 0 00-2.937 1.75c-.292-.333-.708-.5-1.25-.5-.458 0-.958.146-1.5.438-.542.291-.875.666-1 1.125-.417-.084-.729-.125-.937-.125-.459 0-.855.125-1.188.375-.292.25-.583.541-.875.875-.292.291-.604.583-.937.875-.334.291-.75.458-1.25.5v.687c.041.208.062.438.062.688 0 1.874-.104 3.75-.312 5.624a49.071 49.071 0 00-.313 5.563c0 .417.021.833.063 1.25.041.375.062.792.062 1.25 0 .125-.104.396-.312.813l-.376.937c.167.458.23.917.188 1.375 0 .458.104.896.312 1.313-.374.333-.562.791-.562 1.374v.75c.042.25.062.5.062.75v.75a25.809 25.809 0 00-.25 2.563 50.868 50.868 0 00-.062 2.5v1.938c.042.874.104 1.874.188 3a52.42 52.42 0 00.374 3.374 32.29 32.29 0 00.626 3.25c.291.959.645 1.75 1.062 2.376.417.624.917.937 1.5.937.125 0 .271-.02.438-.063.208-.041.312-.145.312-.312a.773.773 0 00-.125-.438 1.375 1.375 0 01-.063-.437l.063-.125c.333.167.687.27 1.063.313l1.25.124c.416.042.812.105 1.187.188.375.125.708.354 1 .688a2.34 2.34 0 00-.25 1.062c0 .5.125.958.375 1.375.25.458.417.917.5 1.375-.792.25-1.521.52-2.188.813-.624.333-1.25.624-1.874.874-.626.292-1.292.542-2 .75-.709.25-1.521.417-2.438.5a47.3 47.3 0 01-1.5-1c-.417-.291-.979-.479-1.688-.562-1.083-1.458-1.979-3.104-2.687-4.938a35.154 35.154 0 01-1.687-5.624 56.676 56.676 0 01-.813-5.876c-.125-2-.187-3.874-.187-5.624 0-1.917.062-3.813.187-5.688.167-1.917.375-3.833.625-5.75l.25-1.75c.083-.625.167-1.23.25-1.813.083-.208.146-.437.188-.687.083-.292.124-.542.124-.75 0-.708-.02-1.417-.062-2.125a34.844 34.844 0 01-.062-2.063c0-1.041.062-2.104.187-3.187.042-.208.104-.48.187-.813.126-.333.188-.624.188-.874 0-.334-.083-.563-.25-.688-.167-.125-.312-.333-.438-.625.126-.417.23-.813.313-1.188.083-.416.125-.833.125-1.25 0-.791-.146-1.479-.438-2.062.209-1.083.521-2.146.938-3.188.417-1.041 1.146-1.833 2.188-2.375.833.042 1.666.125 2.5.25.874.125 1.624.48 2.25 1.063.291-.167.624-.27 1-.313l1.187-.125a7.897 7.897 0 001.125-.187c.333-.125.625-.354.875-.688a28.424 28.424 0 002.687-.687c.959-.333 1.792-.708 2.5-1.125h1.376a2.7 2.7 0 011-.438l1.187-.312c.417-.125.792-.25 1.125-.375.375-.125.667-.333.875-.625h.25c.958 0 1.896-.208 2.813-.625a46.293 46.293 0 012.687-1.125c.208-.083.521-.23.937-.438.459-.208.771-.312.938-.312a12.364 12.364 0 011.75-.125 12.647 12.647 0 001.75-.25c1.333-.208 2.646-.438 3.938-.688a18.66 18.66 0 014-.437c.458 0 .874.02 1.25.063.416 0 .854.02 1.312.062a.79.79 0 00.312.438c.167.083.313.166.438.25.167.083.312.208.438.374.124.126.166.313.124.563.084.083.167.125.25.125.126 0 .23-.063.313-.188a.676.676 0 01.5-.187h.313c.541.583 1.062 1.146 1.562 1.688.542.5 1.208.916 2 1.25.333 1.25.729 2.479 1.188 3.687.458 1.208.687 2.5.687 3.875 0 .833-.125 1.646-.375 2.438-.583.291-1 .75-1.25 1.375a53.22 53.22 0 00-.688 1.812 8.953 8.953 0 00-2.937 2.313c-.792.958-1.604 1.916-2.437 2.874h-1a.423.423 0 00-.376.188L203.5 36c-.375.333-.792.667-1.25 1a3.04 3.04 0 00-.938 1.313 35.592 35.592 0 00-3.75 2.374 53.996 53.996 0 00-3.374 2.75c-.459.376-.917.813-1.376 1.313-.458.458-.916.854-1.374 1.188-.25.208-.542.395-.876.562a3.297 3.297 0 00-.812.5 15.3 15.3 0 00-1.5 1.313c-.458.416-.938.812-1.438 1.187 1.876-.083 3.771-.125 5.688-.125l5.688-.125c.958 0 1.895-.02 2.812-.063a31.07 31.07 0 012.812-.124c.167 0 .313.041.438.124.125.042.271.084.438.126.708.124 1.333.27 1.874.437 2 .375 4 .708 6 1 2 .292 3.959.77 5.876 1.438.541.208.937.437 1.187.687.292.25.792.313 1.5.188A7.214 7.214 0 00223 54.437c.708.334 1.417.626 2.125.876a99.017 99.017 0 011.5 2.374c.5.75.75 1.646.75 2.688zM281 85.875c-.125.708-.417 1.208-.875 1.5-.417.333-.813.792-1.187 1.375h-.25c-.417 0-.834.042-1.25.125-.376.083-.771.188-1.188.313a3.276 3.276 0 00-.75-.188c-.292-.042-.479-.188-.562-.438-.334.167-.792.25-1.376.25-.958 0-1.874-.27-2.75-.812a10.821 10.821 0 00-2.624-1.25c-.25-.5-.563-.958-.938-1.375a26.76 26.76 0 00-1.062-1.125 29.08 29.08 0 01-1-1.188 5.131 5.131 0 01-.813-1.5c-.083-.25-.187-.395-.313-.437-.124-.042-.312-.042-.562 0 .042-.458-.021-.854-.188-1.188-.124-.333-.437-.541-.937-.624 0-.542-.083-1-.25-1.376a4.068 4.068 0 00-.625-1c-.208-.25-.458-.52-.75-.812a3.774 3.774 0 01-.625-1.063c-.375-.083-.75-.145-1.125-.187h-1.125c-2 0-3.937.375-5.813 1.125a9.208 9.208 0 00-.687.313 4.37 4.37 0 01-.625.312h-.25c-.042.042-.104.063-.188.063-.291 0-.562-.063-.812-.188a2.555 2.555 0 00-.812-.125c-.126 0-.271.02-.438.063a1.58 1.58 0 01-.375.187 7.348 7.348 0 01-1.75.375 51.907 51.907 0 01-5.437.75c-1.876.167-3.605.604-5.188 1.313-.333.166-.542.416-.625.75-.083.374-.104.729-.063 1.062a3.3 3.3 0 00-1.062 1.313 74.693 74.693 0 00-.625 1.687c-.167.625-.354 1.23-.563 1.813a4.46 4.46 0 01-.874 1.5c.124.25.187.52.187.812 0 .625-.208 1.25-.625 1.875a8.397 8.397 0 00-.938 1.813 15.458 15.458 0 00-.5 1.687 5.737 5.737 0 01-.562 1.563 3.25 3.25 0 01-1 1.124c-.458.292-1.083.438-1.875.438-.75 0-1.396-.146-1.937-.438a3.844 3.844 0 01-1.313-1.124 5.96 5.96 0 01-.813-1.626 15.856 15.856 0 01-.5-1.874c.459-.917.896-1.709 1.313-2.376.417-.666.729-1.52.937-2.562a5.181 5.181 0 001.688-2c.333-.75.521-1.583.562-2.5a2.524 2.524 0 001-1.188c.167-.458.271-.958.313-1.5-1-.083-2.042-.166-3.125-.25a12.226 12.226 0 01-3.125-.624c0-.084.021-.167.063-.25v-.25c0-.542-.126-1.042-.376-1.5a2.622 2.622 0 01-.374-1.376v-.5c.333-.333.645-.687.937-1.062.25-.333.521-.646.813-.938a4.446 4.446 0 011-.75c.374-.166.854-.25 1.437-.25.792 0 1.563.042 2.313.126.75.124 1.52.187 2.312.187.542 0 1.104-.063 1.688-.188A61.509 61.509 0 00233.625 66a38.085 38.085 0 001.625-5.938 9.27 9.27 0 00.812-1.437c.25-.583.438-1.188.563-1.813a9.73 9.73 0 00.313-1.812c.083-.625.124-1.188.124-1.688.459-.541.771-1.208.938-2 .208-.791.375-1.604.5-2.437.125-.875.25-1.73.375-2.563.167-.833.458-1.562.875-2.187v-.563c.042-.624-.021-1.187-.188-1.687.209-.083.334-.27.376-.563.041-.291.124-.541.25-.75a31.45 31.45 0 01.624-5.624c.376-1.876.688-3.75.938-5.626v-.187c0-.208-.083-.313-.25-.313-.125-.041-.188-.166-.188-.375 0-.375.042-.875.126-1.5.124-.625.208-1.145.25-1.562.25-2.25.374-4.48.374-6.688 0-1.875-.062-3.729-.187-5.562-.125-1.833-.25-3.688-.375-5.563l.5-.75c.167-.25.312-.5.438-.75.416-.166.75-.333 1-.5.291-.208.666-.312 1.124-.312.126 0 .23.02.313.063h.25c.25.166.437.395.563.687.166.292.312.563.437.813.167.25.375.458.625.625.25.166.604.208 1.062.125.209 1.166.792 1.77 1.75 1.812.209.583.459 1.167.75 1.75a3.79 3.79 0 001.313 1.375 2.944 2.944 0 00-.063.688c0 .583.126 1.145.376 1.687a7.484 7.484 0 001.062 1.5v.125c0 .458-.167.77-.5.938.375.416.646.916.812 1.5.167.583.313 1.187.438 1.812.125.583.271 1.146.438 1.688a2.49 2.49 0 001 1.25v.187c0 .208-.084.333-.25.375-.126.042-.188.167-.188.375a14.763 14.763 0 011.562 4.5 40.467 40.467 0 001.126 4.688c.166.166.354.27.562.312.25.042.438.146.562.313-.25.166-.374.458-.374.874 0 .417-.105.73-.313.938.333.292.479.73.437 1.313 0 .541.167.937.5 1.187V39a.772.772 0 01-.124.438c-.084.083-.126.208-.126.374v.25c.334 1.459.584 2.917.75 4.376l.626 4.374c.208 1.459.437 2.917.687 4.376.25 1.416.604 2.812 1.063 4.187.041.042.062.104.062.188 0 .208-.083.333-.25.374-.167 0-.25.105-.25.313 0 .208.062.458.188.75.166.25.333.458.5.625-.042.167-.063.417-.063.75 0 .625.104 1.23.313 1.813l.75 1.75c.291.541.541 1.124.75 1.75.208.624.291 1.291.25 2 .25.374.562.687.937.937.417.25.833.48 1.25.688.417.208.792.458 1.125.75.375.291.625.687.75 1.187a2.255 2.255 0 00-.688 1.063 2.622 2.622 0 01-.687 1.187c.292.708.625 1.354 1 1.938.417.624.833 1.229 1.25 1.812l1.313 1.75c.458.583.854 1.208 1.187 1.875.458 0 .792.125 1 .375.208.25.542.354 1 .313.167.333.229.708.187 1.124a7.53 7.53 0 012.5-.437c.459 0 .876.02 1.25.063.417.041.834.062 1.25.062.5 0 .938-.063 1.313-.188.167.25.292.521.375.813.083.333.146.667.188 1l.187 1c.083.333.208.625.375.875zm-23.562-17.313A523.803 523.803 0 00255.625 60a200.696 200.696 0 01-1.563-8.688 58.333 58.333 0 01-.562-4.624 80.683 80.683 0 00-.5-4.563 41.812 41.812 0 00-.75-4.563c-.292-1.5-.729-2.979-1.312-4.437V33c0-.125.041-.23.124-.313.084-.083.126-.229.126-.437V32c-.542-.375-.917-.896-1.126-1.563a33.954 33.954 0 01-.562-2.187 12.694 12.694 0 00-.562-2.25 3.927 3.927 0 00-1.126-1.875 422.802 422.802 0 01-.687 7.25c-.208 2.375-.354 4.77-.437 7.188-.417.25-.688.666-.813 1.25a7.542 7.542 0 00-.187 1.562c0 .333.02.688.062 1.063.042.333.125.687.25 1.062a27.978 27.978 0 00-1.625 5.813 144.584 144.584 0 01-1.125 5.874 21.6 21.6 0 00-.25.876c-.083.416-.188.854-.312 1.312a25.7 25.7 0 00-.313 1.25c-.083.333-.125.52-.125.563a6.13 6.13 0 00-.062.874c.041.292.062.584.062.876l-.938.937a24.576 24.576 0 01-.937 4.625 431.824 431.824 0 01-1.313 4.5c.292.042.563.063.813.063.292.041.583.062.875.062 1.333 0 2.667-.083 4-.25 1.375-.208 2.729-.396 4.062-.563.459-.083.938-.145 1.438-.187.5-.083.979-.125 1.438-.125.208-.042.458-.042.75 0 .291 0 .541-.02.75-.063.333-.083.541-.208.624-.374.126-.209.355-.334.688-.376.25.126.542.188.875.188.375 0 .729-.083 1.063-.25.333-.167.666-.354 1-.563zm68.937-55.374a5.24 5.24 0 00-.563 1.312c-.083.458-.145.917-.187 1.375h-.437c-.334 0-.626-.042-.876-.125a4.274 4.274 0 00-.874-.313c.166 1.584.27 3.188.312 4.813.042 1.625.062 3.23.062 4.813 0 2-.02 4-.062 6a276.968 276.968 0 00-.062 5.937c0 .958-.063 1.917-.188 2.875a7.856 7.856 0 01-.75 2.688c.083.708.146 1.395.188 2.062.041.625.062 1.292.062 2 0 1.958-.125 3.917-.375 5.875a90.126 90.126 0 01-.813 5.75c-.124.75-.25 1.52-.374 2.313-.084.75-.23 1.479-.438 2.187a2.467 2.467 0 01-.375.625 4.448 4.448 0 00-.313.625 40.301 40.301 0 01-1.687 3.25c-.583 1.042-1.292 2-2.125 2.875a4.717 4.717 0 00-1.812.5c-.584.292-1.126.438-1.626.438-.458 0-.833-.23-1.124-.688l-.626.25a3.309 3.309 0 01-.687.188 25.129 25.129 0 01-4.063-2.126c-1.25-.833-2.291-1.916-3.124-3.25h-.25c-.376 0-.646-.083-.813-.25a13.54 13.54 0 01-.687-.75 36.836 36.836 0 00-.563-.874 40.305 40.305 0 00-1.625-2.376 8.543 8.543 0 00-2.062-2c-.334-1.25-.834-2.312-1.5-3.187a112.104 112.104 0 01-2.063-2.938c-.542-2.083-1.542-4.02-3-5.812.208-.208.313-.354.313-.438a.596.596 0 00-.25-.5.826.826 0 01-.188-.5c0-.166.042-.291.125-.374-.542-.584-1-1.23-1.375-1.938l-1-2.25c-.292-.75-.625-1.5-1-2.25a9.377 9.377 0 00-1.25-2.063c-.458.292-.75.646-.875 1.063a6.707 6.707 0 00-.125 1.313v1c.042.333.062.666.062 1 0 .833-.104 1.645-.312 2.437a22.705 22.705 0 00-.375 2.438c-.042.583-.063 1.229-.063 1.937a12.08 12.08 0 01-.062 2.125 11.282 11.282 0 01-.312 2.063c-.167.666-.459 1.229-.876 1.687-.25 2.375-.562 4.75-.937 7.125s-.729 4.75-1.063 7.125c-.083.417-.166.938-.25 1.563-.083.624-.187 1.25-.312 1.874-.083.667-.167 1.292-.25 1.876a23.376 23.376 0 00-.062 1.5c0 .416.104.812.312 1.187.208.417.312.813.312 1.188 0 .291-.104.458-.312.5-.167.083-.271.25-.312.5.291.916.437 1.958.437 3.124 0 .334-.021.667-.063 1-.041.376-.104.73-.187 1.063a1.382 1.382 0 01-.437.563c-.209.208-.313.395-.313.562 0 .167.083.292.25.375-.25.25-.563.417-.937.5-.376.083-.646.313-.813.688a24.456 24.456 0 00-1.25-.938 7.848 7.848 0 01-1.187-.875l-.188-.063c-.292 0-.542.084-.75.25-.167.209-.396.313-.688.313a.557.557 0 01-.25-.063h-.187l-.375-1.624a7.943 7.943 0 00-.5-1.5c.333-.876.542-1.876.625-3 .125-1.084.25-2.188.375-3.313s.312-2.208.562-3.25c.25-1 .709-1.875 1.376-2.625 0-.333-.126-.563-.376-.688-.208-.124-.312-.395-.312-.812 0-.083.021-.23.062-.438.084-.208.146-.437.188-.687.083-.25.146-.48.188-.688l.187-.562a48.3 48.3 0 00.75-5 12.515 12.515 0 011.563-4.75c-.042-.167-.063-.417-.063-.75 0-.708.063-1.396.187-2.063.167-.666.25-1.354.25-2.062 0-.583-.062-1.125-.187-1.625.125-.458.292-.896.5-1.313.25-.458.375-.916.375-1.374 0-.417-.146-.709-.438-.876.209-.166.334-.354.376-.562.083-.208.124-.417.124-.625.042-.208.084-.396.126-.563.083-.208.25-.374.5-.5-.042-.416-.084-.812-.126-1.187v-1.188c0-1.541.084-3.062.25-4.562.167-1.542.25-3.104.25-4.688a26.59 26.59 0 00-.374-4.5l.687-1.375c-.417-.333-.687-.875-.813-1.625a21.208 21.208 0 01-.25-2.437 24.94 24.94 0 00-.25-2.563c-.083-.875-.312-1.583-.687-2.125v-.562c0-.667-.042-1.313-.125-1.938a14.229 14.229 0 01-.125-1.874V12.5a.754.754 0 00.437-.438c.126-.208.209-.416.25-.624h.25c.5 0 1-.042 1.5-.126.5-.083 1-.124 1.5-.124h.813c.5.374.937.812 1.313 1.312.374.5.833.958 1.374 1.375V15c.376.5.667 1.042.876 1.625.208.583.416 1.188.624 1.813.25.625.5 1.229.75 1.812s.605 1.083 1.063 1.5c-.083.417-.125.75-.125 1 0 .542.042 1.083.125 1.625.125.542.208 1.063.25 1.563.167.208.313.479.437.812.126.292.334.48.626.563a17.199 17.199 0 001.25 4.625 19.419 19.419 0 011.437 4.562c.333.333.583.75.75 1.25l.5 1.375c.208.458.417.896.625 1.313.25.374.604.645 1.062.812.25 1 .563 2 .938 3s.958 1.854 1.75 2.563c0 .833.125 1.562.375 2.187.292.583.604 1.146.937 1.688.376.5.709 1 1 1.5.292.5.48 1.041.563 1.624a15.94 15.94 0 002 2.438c.792.75 1.583 1.48 2.375 2.188a58.377 58.377 0 012.438 2.062c.791.708 1.52 1.458 2.187 2.25.458.042.833.146 1.125.313.333.124.708.229 1.125.312.292-.208.521-.458.687-.75a12 12 0 00.563-1c.167-.333.333-.646.5-.938.208-.333.458-.624.75-.874 0-.084-.021-.146-.063-.188v-.25c0-.458.063-.813.188-1.063.167-.291.354-.604.562-.937V55.75a6.677 6.677 0 00.688-2c.125-.708.188-1.417.188-2.125 0-.583-.021-1.167-.063-1.75a27.957 27.957 0 01-.063-1.875c0-.375.021-.75.063-1.125.042-.417.125-.792.25-1.125.083-.083.229-.208.437-.375.209-.208.313-.333.313-.375 0-.208-.063-.417-.187-.625a1.197 1.197 0 01-.188-.625c0-.292.125-.52.375-.688v-.374c0-.209-.042-.396-.125-.563a.572.572 0 00-.375-.438c.208-.25.354-.541.437-.874.084-.376.126-.75.126-1.126a5.744 5.744 0 000-1.187v-1.063c0-.374.02-.77.062-1.187.042-.417.208-.77.5-1.063-.125-.5-.208-.979-.25-1.437-.042-.5-.062-1-.062-1.5 0-.875.041-1.75.124-2.625.084-.875.126-1.77.126-2.688 0-.333-.021-.666-.063-1a9.568 9.568 0 01-.063-1.062c0-.333.063-.48.188-.438.167 0 .25-.104.25-.312 0-.292-.042-.583-.125-.875l-.125-.875a37.152 37.152 0 01-.188-2.125c-.041-.75-.062-1.5-.062-2.25v-1.375c.042-.5.125-.98.25-1.438-.25-.374-.417-.729-.5-1.062a32.644 32.644 0 00-.125-1l-.125-.938a2.471 2.471 0 00-.375-1c-.042-.041-.063-.166-.063-.374 0-.334.084-.584.25-.75A9.922 9.922 0 00316.688 8a6.33 6.33 0 01-.626-2.188c-.458-.25-.812-.645-1.062-1.187-.208-.583-.312-1.104-.312-1.563 0-.541.145-1.062.437-1.562.292-.542.75-.813 1.375-.813.25 0 .479.084.688.25.25.125.479.292.687.5.25.167.479.334.687.5.25.125.5.188.75.188.167 0 .417-.042.75-.125.459.625.917 1.208 1.376 1.75.5.5 1 1.02 1.5 1.563 0 .708.124 1.354.374 1.937s.521 1.146.813 1.688c.292.5.542 1 .75 1.5.25.5.354 1.041.313 1.624.083.292.25.5.5.626.25.124.479.291.687.5z" fill="#fff"/></svg>