<svg width="30" height="30" viewBox="0 0 30 30" fill="none" xmlns="http://www.w3.org/2000/svg"><path d="M26.25 1.875a1.875 1.875 0 011.875 1.875v22.5a1.875 1.875 0 01-1.875 1.875H3.75a1.875 1.875 0 01-1.875-1.875V3.75A1.875 1.875 0 013.75 1.875h22.5zM3.75 0A3.75 3.75 0 000 3.75v22.5A3.75 3.75 0 003.75 30h22.5A3.75 3.75 0 0030 26.25V3.75A3.75 3.75 0 0026.25 0H3.75z" fill="#B791F5"/><path d="M20.569 9.319a1.406 1.406 0 012.008 1.968l-7.485 9.357a1.406 1.406 0 01-2.025.037l-4.96-4.961a1.406 1.406 0 111.988-1.988l3.926 3.925 6.512-8.297a.432.432 0 01.038-.041h-.002z" fill="#B791F5"/></svg>