<svg width="20" height="20" viewBox="0 0 20 20" fill="none" xmlns="http://www.w3.org/2000/svg"><g clip-path="url(#checkbox_svg__clip0_57_312)" fill="#B791F5"><path d="M17.5 1.25a1.25 1.25 0 011.25 1.25v15a1.25 1.25 0 01-1.25 1.25h-15a1.25 1.25 0 01-1.25-1.25v-15A1.25 1.25 0 012.5 1.25h15zM2.5 0A2.5 2.5 0 000 2.5v15A2.5 2.5 0 002.5 20h15a2.5 2.5 0 002.5-2.5v-15A2.5 2.5 0 0017.5 0h-15z"/><path d="M13.712 6.213a.938.938 0 011.34 1.312l-4.99 6.237a.938.938 0 01-1.35.025L5.404 10.48A.937.937 0 116.73 9.155l2.617 2.616L13.69 6.24a.288.288 0 01.025-.027h-.002z"/></g><defs><clipPath id="checkbox_svg__clip0_57_312"><path fill="#fff" d="M0 0h20v20H0z"/></clipPath></defs></svg>