<svg width="20" height="20" viewBox="0 0 20 20" fill="none" xmlns="http://www.w3.org/2000/svg"><path d="M14.043 9.297h-3.34v-3.34a.176.176 0 00-.176-.176H9.473a.176.176 0 00-.176.176v3.34h-3.34a.176.176 0 00-.176.176v1.054c0 .097.08.176.176.176h3.34v3.34c0 .097.079.176.176.176h1.054c.097 0 .176-.08.176-.176v-3.34h3.34c.097 0 .176-.079.176-.176V9.473a.176.176 0 00-.176-.176z" fill="#B791F5"/><path d="M9.844 0C4.408 0 0 4.408 0 9.844c0 5.436 4.408 9.844 9.844 9.844 5.436 0 9.844-4.408 9.844-9.844C19.688 4.408 15.28 0 9.844 0zm0 18.018A8.175 8.175 0 011.67 9.844 8.175 8.175 0 019.844 1.67a8.175 8.175 0 018.174 8.174 8.175 8.175 0 01-8.174 8.174z" fill="#B791F5"/></svg>