<svg width="30" height="30" viewBox="0 0 30 30" fill="none" xmlns="http://www.w3.org/2000/svg"><path d="M11.786 16.607H2.143a1.607 1.607 0 00-1.607 1.607v9.643a1.607 1.607 0 001.607 1.607h9.643a1.607 1.607 0 001.607-1.607v-9.643a1.607 1.607 0 00-1.607-1.607zm-1.607 9.643h-6.43v-6.429h6.43v6.429zM27.857.536h-9.643a1.607 1.607 0 00-1.607 1.607v9.643a1.607 1.607 0 001.607 1.607h9.643a1.607 1.607 0 001.607-1.607V2.143A1.607 1.607 0 0027.857.536zm-1.607 9.643H19.82V3.75h6.429v6.429zm1.607 11.25h-3.214v-3.215a1.607 1.607 0 10-3.215 0v3.215h-3.214a1.607 1.607 0 100 3.214h3.215v3.214a1.607 1.607 0 103.214 0v-3.214h3.214a1.607 1.607 0 000-3.214zM11.786.536H2.143A1.607 1.607 0 00.536 2.143v9.643a1.607 1.607 0 001.607 1.607h9.643a1.607 1.607 0 001.607-1.607V2.143A1.607 1.607 0 0011.786.536zm-1.607 9.643h-6.43V3.75h6.43v6.429z" fill="#B791F5"/></svg>