<svg width="30" height="20" viewBox="0 0 30 20" fill="none" xmlns="http://www.w3.org/2000/svg"><g clip-path="url(#description_svg__clip0_57_280)" fill="#B791F5"><path d="M1.95.105c-.358 0-.702.15-.955.416A1.46 1.46 0 00.6 1.526c0 .377.142.739.395 1.005.253.267.597.416.955.416h26.1c.358 0 .701-.15.954-.416a1.46 1.46 0 00.396-1.005 1.46 1.46 0 00-.396-1.005 1.317 1.317 0 00-.954-.416H1.95zM1.95 5.79c-.358 0-.702.15-.955.416A1.46 1.46 0 00.6 7.21c0 .376.142.738.395 1.004.253.267.597.417.955.417h26.1c.358 0 .701-.15.954-.417a1.46 1.46 0 00.396-1.004 1.46 1.46 0 00-.396-1.005 1.317 1.317 0 00-.954-.417H1.95zM.6 12.895c0-.377.142-.739.395-1.005.253-.267.597-.416.955-.416h26.1c.358 0 .701.15.954.416s.396.628.396 1.005c0 .377-.143.738-.396 1.005a1.317 1.317 0 01-.954.416H1.95c-.358 0-.702-.15-.955-.416A1.46 1.46 0 01.6 12.895zM1.95 17.158c-.358 0-.702.15-.955.416A1.46 1.46 0 00.6 18.58c0 .377.142.738.395 1.005.253.266.597.416.955.416h17.1c.358 0 .701-.15.954-.416a1.46 1.46 0 00.396-1.005 1.46 1.46 0 00-.396-1.005 1.317 1.317 0 00-.954-.416H1.95z"/></g><defs><clipPath id="description_svg__clip0_57_280"><path fill="#fff" d="M0 0h30v20H0z"/></clipPath></defs></svg>