<svg width="18" height="20" viewBox="0 0 18 20" fill="none" xmlns="http://www.w3.org/2000/svg">
<path d="M0.99162 20C0.854587 19.9997 0.719103 19.9678 0.593783 19.9062C0.468463 19.8446 0.356049 19.7546 0.263689 19.6421C0.169659 19.5306 0.0979076 19.3982 0.0531406 19.2537C0.00837351 19.1091 -0.00839809 18.9557 0.0039252 18.8035L0.24591 15.8462L11.4246 3.42635L14.9181 7.30795L3.74235 19.7267L1.0815 19.9956C1.05162 19.9987 1.02163 20.0001 0.99162 20ZM15.6154 6.53185L12.1229 2.65025L14.2178 0.321952C14.3096 0.219888 14.4185 0.13892 14.5384 0.0836772C14.6583 0.0284343 14.7868 0 14.9166 0C15.0464 0 15.175 0.0284343 15.2949 0.0836772C15.4148 0.13892 15.5237 0.219888 15.6154 0.321952L17.7103 2.65025C17.8022 2.7522 17.875 2.87327 17.9247 3.00653C17.9744 3.1398 18 3.28264 18 3.4269C18 3.57116 17.9744 3.71401 17.9247 3.84727C17.875 3.98053 17.8022 4.1016 17.7103 4.20355L15.6164 6.53075L15.6154 6.53185Z" fill="#B791F5"/>
</svg>
