<svg width="20" height="14" viewBox="0 0 20 14" fill="none" xmlns="http://www.w3.org/2000/svg"><path d="M10 9.5a2.5 2.5 0 100-5 2.5 2.5 0 000 5z" fill="#B791F5"/><path d="M19.174 6.32c-1.034-1.598-2.375-2.956-3.878-3.927C13.633 1.318 11.796.75 9.986.75c-1.66 0-3.293.475-4.854 1.41C3.542 3.116 2.1 4.51.848 6.305a1.247 1.247 0 00-.025 1.388c1.032 1.615 2.36 2.974 3.84 3.932 1.665 1.08 3.458 1.626 5.324 1.626 1.824 0 3.664-.564 5.32-1.63 1.502-.967 2.84-2.33 3.87-3.942a1.258 1.258 0 00-.003-1.358zM10 10.75a3.75 3.75 0 110-7.5 3.75 3.75 0 010 7.5z" fill="#B791F5"/></svg>