<svg width="20" height="14" viewBox="0 0 20 14" fill="none" xmlns="http://www.w3.org/2000/svg">
<path d="M10 9.5C11.3807 9.5 12.5 8.38071 12.5 7C12.5 5.61929 11.3807 4.5 10 4.5C8.61929 4.5 7.5 5.61929 7.5 7C7.5 8.38071 8.61929 9.5 10 9.5Z" fill="#B791F5"/>
<path d="M19.1735 6.32031C18.1399 4.72188 16.7989 3.36406 15.2957 2.39336C13.6329 1.31836 11.7969 0.75 9.98676 0.75C8.32583 0.75 6.69262 1.22461 5.13247 2.16055C3.54145 3.11484 2.10005 4.50898 0.848093 6.30391C0.706759 6.50676 0.628921 6.74705 0.62447 6.99425C0.620018 7.24144 0.689155 7.48438 0.823093 7.69219C1.85473 9.30664 3.18247 10.6664 4.66216 11.6238C6.32817 12.7031 8.12114 13.25 9.98676 13.25C11.8114 13.25 13.6512 12.6863 15.3071 11.6203C16.8094 10.6527 18.1477 9.28984 19.1774 7.67812C19.3067 7.47514 19.3751 7.23932 19.3744 6.99865C19.3737 6.75797 19.304 6.52255 19.1735 6.32031ZM10 10.75C9.25837 10.75 8.53334 10.5301 7.91666 10.118C7.29997 9.70596 6.81933 9.12029 6.5355 8.43506C6.25167 7.74984 6.17741 6.99584 6.3221 6.26841C6.4668 5.54098 6.82395 4.8728 7.3484 4.34835C7.87284 3.8239 8.54103 3.46675 9.26846 3.32206C9.99589 3.17736 10.7499 3.25162 11.4351 3.53545C12.1203 3.81928 12.706 4.29993 13.1181 4.91661C13.5301 5.5333 13.75 6.25832 13.75 7C13.7489 7.99421 13.3535 8.94738 12.6504 9.65039C11.9474 10.3534 10.9943 10.7489 10 10.75Z" fill="#B791F5"/>
</svg>
