<svg width="30" height="30" viewBox="0 0 30 30" fill="none" xmlns="http://www.w3.org/2000/svg"><path d="M7.274 16.99L18.971 5.007c.125-.128 1.128-1.155 2.715-1.712 2.215-.727 4.47-.128 6.267 1.712 1.838 1.84 2.38 4.109 1.67 6.377a7.69 7.69 0 01-1.67 2.867L15.378 27.133c-2.172 2.225-7.603 5.092-12.616 0-4.97-5.093-2.13-10.7 0-12.882L16.256.385a1.24 1.24 0 011.796 0 1.314 1.314 0 010 1.84L4.6 16.091c-.208.171-4.428 4.665 0 9.201 4.303 4.408 8.523.471 8.982 0l12.574-12.924s.71-.728 1.045-1.755c.417-1.37.125-2.567-1.045-3.766-2.506-2.567-4.93-.428-5.389 0L9.07 18.787c-.417.428-.71 1.156 0 1.884.71.727 1.379.385 1.797 0l8.104-8.303c.501-.47 1.337-.47 1.796 0 .502.514.502 1.37 0 1.883l-8.104 8.26c-1.128 1.112-3.425 2.011-5.389 0-2.005-2.012-1.128-4.408 0-5.521z" fill="#B791F5"/></svg>