<svg width="175" height="38" viewBox="0 0 175 38" fill="none" xmlns="http://www.w3.org/2000/svg"><path fill-rule="evenodd" clip-rule="evenodd" d="M1.318 1.318A4.5 4.5 0 014.5 0h24.75a4.5 4.5 0 014.5 4.5v27a4.5 4.5 0 01-4.5 4.5H4.5A4.5 4.5 0 010 31.5v-27a4.5 4.5 0 011.318-3.182zM18 4.5h-2.25a2.25 2.25 0 00-2.25 2.25v6.75a2.25 2.25 0 002.25 2.25H18a2.25 2.25 0 002.25-2.25V6.75A2.25 2.25 0 0018 4.5zm-12.841.659A2.25 2.25 0 004.5 6.75V22.5a2.25 2.25 0 002.25 2.25H9a2.25 2.25 0 002.25-2.25V6.75A2.25 2.25 0 009 4.5H6.75a2.25 2.25 0 00-1.591.659zM27 4.5h-2.25a2.25 2.25 0 00-2.25 2.25v22.5a2.25 2.25 0 002.25 2.25H27a2.25 2.25 0 002.25-2.25V6.75A2.25 2.25 0 0027 4.5zm59.37 29.307a3.217 3.217 0 01-.862.287 4.238 4.238 0 01-.985.117c-.156 0-.328-.008-.515-.023a2.16 2.16 0 01-.469-.047.608.608 0 01-.164-.094.312.312 0 00-.188-.07c-.156 0-.304.023-.445.07-.14.062-.289.094-.445.094a.452.452 0 01-.234-.07.515.515 0 00-.211-.094.78.78 0 00-.329-.024c-.109.016-.226.024-.351.024-.172 0-.328-.024-.469-.07a.886.886 0 01-.351-.259 7.126 7.126 0 01-1.149-.234 15.29 15.29 0 01-1.125-.328l-1.125-.328a7.053 7.053 0 00-1.148-.188 1.044 1.044 0 00-.328-.258.505.505 0 01-.282-.257.403.403 0 00-.164.023c-.031.031-.086.047-.164.047a4.583 4.583 0 00-.867-.563 10.315 10.315 0 00-.1-.051c-.004.066-.002.13.006.192-.172.125-.304.29-.398.492a28.5 28.5 0 00-.235.633 8.637 8.637 0 01-.21.68 1.668 1.668 0 01-.329.562c.047.094.07.196.07.305 0 .234-.077.469-.234.703a3.144 3.144 0 00-.351.68c-.078.219-.14.43-.188.633a2.16 2.16 0 01-.21.586 1.219 1.219 0 01-.376.421c-.172.11-.406.164-.703.164-.281 0-.523-.054-.726-.164a1.443 1.443 0 01-.493-.421 2.223 2.223 0 01-.304-.61 5.847 5.847 0 01-.188-.703c.172-.344.336-.64.492-.89.157-.25.274-.57.352-.962.281-.203.492-.453.633-.75.125-.28.195-.593.21-.937a.95.95 0 00.376-.445c.062-.172.101-.36.117-.563l-1.172-.094a4.584 4.584 0 01-1.172-.234c0-.031.008-.062.024-.094v-.093c0-.204-.047-.391-.141-.563a.983.983 0 01-.14-.516v-.187c.124-.125.242-.258.35-.398.029-.038.058-.075.087-.11a8.416 8.416 0 01-.86-.406 3.404 3.404 0 01-.96-.75c-.313-.031-.57-.125-.774-.281a3.185 3.185 0 01-.562-.633 4.481 4.481 0 01-1.032-.492 32.772 32.772 0 01-.937-.633 6.571 6.571 0 00-.961-.586 3.556 3.556 0 00-1.125-.399c-.016-.109-.063-.187-.14-.234a.794.794 0 00-.282-.14 2.166 2.166 0 00-.281-.118.356.356 0 01-.211-.187h-.14a.44.44 0 00-.141-.024.685.685 0 00-.164.024h-.141l.023-.07c0-.063-.023-.102-.07-.118a.73.73 0 00-.14-.047.52.52 0 01-.165-.07c-.047-.031-.07-.102-.07-.21h-.07c-.172 0-.328-.032-.469-.095a2.054 2.054 0 00-.469-.14 2.757 2.757 0 00-.047.492v.422c0 .703.078 1.445.235 2.226a7.48 7.48 0 00.726 2.063c.328.125.61.289.844.492.234.203.461.438.68.703.015.422-.14.774-.469 1.055-.313.297-.68.445-1.102.445a1.23 1.23 0 01-.656-.187 1.297 1.297 0 01-.469-.492.688.688 0 00-.257.046.537.537 0 01-.422.047 6.874 6.874 0 00-.469-.703c-.14-.203-.234-.476-.281-.82a.575.575 0 01-.328-.422.797.797 0 00-.258-.492 32.336 32.336 0 00-.258-2.11 15.936 15.936 0 01-.14-2.109c0-.156.007-.313.023-.469l.047-.515a.625.625 0 00-.14-.211 1.632 1.632 0 01-.118-.235c-.313.078-.64.157-.984.235a5.374 5.374 0 01-1.008.093 4.17 4.17 0 01-.797-.093c-.313-.078-.555-.18-.727-.305-.125-.078-.21-.219-.258-.422a2.1 2.1 0 01-.093-.562c0-.266.047-.532.14-.797.094-.282.22-.524.375-.727a11.166 11.166 0 002.133-1.148 24.901 24.901 0 001.969-1.477c.016-.156.039-.312.07-.469.047-.156.07-.32.07-.492 0-.187-.046-.367-.14-.539a.477.477 0 00.14-.351.78.78 0 01.118-.422v-.14a.767.767 0 00-.024-.188.312.312 0 00-.07-.188c.11-.61.195-1.21.258-1.805.062-.609.093-1.234.093-1.875 0-.046.024-.171.07-.375.063-.218.102-.367.118-.445.063-.36.102-.71.117-1.055.031-.359.07-.718.117-1.078a5.11 5.11 0 01.094-.492c.047-.203.07-.344.07-.422 0-.11-.023-.18-.07-.21a.919.919 0 01-.094-.212c.094-.359.141-.718.141-1.078.016-.375.047-.742.094-1.101a3.34 3.34 0 00.633-.328c.156-.11.382-.164.68-.164h.046c.031.187.102.367.211.539.11.156.219.32.328.492.125.156.235.312.328.468.094.141.14.282.14.422 0 .266-.023.555-.07.868-.046.312-.085.601-.117.867-.078.703-.148 1.398-.21 2.086-.063.672-.157 1.36-.282 2.062.047.219.07.422.07.61 0 .28-.023.562-.07.843-.047.282-.07.57-.07.867 0 .141.008.29.023.446.032.156.078.297.141.422.531-.14 1.008-.43 1.43-.867.062-.063.125-.141.187-.235.078-.11.156-.195.235-.258.156-.125.32-.234.492-.328.187-.11.367-.219.539-.328.406-.266.797-.539 1.172-.82.39-.297.78-.586 1.172-.867a62.09 62.09 0 003.351-2.625 55.664 55.664 0 003.188-2.907c.046-.265.14-.476.28-.633a2.52 2.52 0 00.376-.562c.297-.11.555-.273.773-.492.094.031.188.054.282.07h.304c.11 0 .211.008.305.024.11 0 .203.023.281.07.016.234.04.445.07.633.032.187.126.367.282.539v.093a.208.208 0 01.023.094.626.626 0 01-.14.422.703.703 0 00-.165.399L72.97 7.445a11.31 11.31 0 00-1.125 1.313.75.75 0 00-.328.117 3.295 3.295 0 00-.282.21 3.714 3.714 0 01-.257.188c-.094.063-.196.11-.305.141a6.659 6.659 0 01-.961 1.031c-.36.297-.727.586-1.102.867-.375.282-.75.57-1.125.868-.359.28-.695.593-1.007.937a6.682 6.682 0 00-.961.563c-.297.203-.54.46-.727.773h-.117a.254.254 0 00-.188.07.333.333 0 01-.187.047 37.474 37.474 0 01-2.625 2.086 25.592 25.592 0 00-2.602 2.11v.586c.266.156.555.304.867.445.313.125.618.265.915.422.312.156.601.328.867.515.281.172.523.383.726.633a.261.261 0 01.117-.023c.141 0 .25.047.329.14.078.078.21.102.398.07.063.25.203.43.422.54.219.11.437.203.656.281.188.188.36.367.516.54.156.155.383.257.68.304a.832.832 0 01.07.21.515.515 0 00.094.212c.296.093.578.226.843.398.282.172.555.352.82.54l.797.515c.282.156.579.281.891.375a.508.508 0 00.258.328c.14.062.25.156.328.281h.422c.047.078.11.156.187.235a.502.502 0 01.165.28c.124.032.265.079.421.141.157.047.297.11.422.188a.347.347 0 01.094.164.465.465 0 00.14.164c.094.078.235.14.422.188.204.03.376.085.516.164.107.059.213.12.318.185.253-.55.483-1.103.69-1.662.266-.734.469-1.477.61-2.227.109-.156.21-.335.304-.539.094-.218.164-.445.21-.68.063-.234.103-.46.118-.679.031-.234.047-.445.047-.633.172-.203.29-.453.352-.75.078-.297.14-.601.187-.914l.14-.96c.063-.313.173-.587.329-.821v-.211a1.644 1.644 0 00-.07-.633c.078-.031.124-.101.14-.21a.748.748 0 01.094-.282c.016-.719.094-1.422.234-2.11.14-.703.258-1.406.352-2.109v-.07c0-.078-.031-.117-.094-.117-.047-.016-.07-.063-.07-.14 0-.142.015-.33.047-.563a6.26 6.26 0 00.093-.586c.094-.844.141-1.68.141-2.508 0-.703-.023-1.399-.07-2.086-.047-.688-.094-1.383-.14-2.086l.187-.281c.062-.094.117-.188.164-.282.156-.062.28-.125.375-.187a.709.709 0 01.421-.117c.047 0 .086.008.118.023h.093a.573.573 0 01.211.258c.063.11.118.21.164.305.063.093.141.172.235.234.094.063.226.078.398.047.078.437.297.664.656.68.079.218.172.437.282.656.125.219.289.39.492.516a1.494 1.494 0 00.117.89c.11.203.242.39.399.563v.046c0 .172-.063.29-.188.352.14.156.242.344.305.563.062.218.117.445.164.68.047.218.101.429.164.632.078.203.203.36.375.469v.07c0 .078-.031.125-.094.14-.047.016-.07.063-.07.141.281.516.476 1.079.586 1.688.11.61.25 1.195.422 1.758a.409.409 0 00.21.117.316.316 0 01.212.117c-.094.063-.141.172-.141.328 0 .156-.04.274-.117.352.125.11.18.273.164.492 0 .203.062.351.187.445V16a.29.29 0 01-.047.164c-.03.031-.046.078-.046.14v.094c.124.547.218 1.094.28 1.641l.235 1.64c.078.548.164 1.094.258 1.641.094.532.227 1.055.398 1.57.016.016.024.04.024.07 0 .08-.031.126-.094.142-.062 0-.094.039-.094.117a.74.74 0 00.07.281c.063.094.126.172.188.234a1.25 1.25 0 00-.023.282c0 .234.039.46.117.68l.281.656c.11.203.203.421.281.656.079.234.11.484.094.75.094.14.211.258.352.351.156.094.312.18.468.258.157.078.297.172.422.281.14.11.235.258.282.446a.84.84 0 00-.258.398.986.986 0 01-.258.445c.11.266.234.508.375.727.156.234.312.461.469.68l.492.656c.172.219.32.453.445.703.172 0 .297.047.375.14.061.074.15.113.268.12.105-.306.173-.65.2-1.033.048-.407.095-.82.142-1.242a9.9 9.9 0 01.21-1.22c.094-.374.266-.702.516-.984 0-.125-.047-.21-.14-.257-.079-.047-.118-.149-.118-.305a.98.98 0 01.024-.164 1.25 1.25 0 00.07-.258c.031-.094.055-.18.07-.258l.07-.21c.126-.61.22-1.235.282-1.876a4.7 4.7 0 01.586-1.781 1.244 1.244 0 01-.024-.281c0-.266.024-.524.07-.774.063-.25.094-.508.094-.773 0-.219-.023-.422-.07-.61a2.67 2.67 0 01.188-.492c.093-.172.14-.343.14-.515 0-.157-.054-.266-.164-.328a.363.363 0 00.14-.211.628.628 0 00.048-.235 4.59 4.59 0 01.047-.21.365.365 0 01.187-.188 38.528 38.528 0 00-.047-.445v-.446c0-.578.031-1.148.094-1.71.063-.579.094-1.165.094-1.759 0-.578-.047-1.14-.14-1.687l.257-.516c-.156-.125-.258-.328-.305-.61a7.852 7.852 0 01-.094-.913 9.546 9.546 0 00-.093-.961c-.031-.328-.117-.594-.258-.797v-.21c0-.25-.016-.493-.047-.727a5.306 5.306 0 01-.047-.704v-.21a.283.283 0 00.164-.165.736.736 0 00.094-.234h.094c.187 0 .375-.016.562-.047.188-.031.375-.047.563-.047h.304c.188.14.352.305.493.492.14.188.312.36.515.516V7c.14.188.25.39.328.61.079.218.157.445.235.68.094.233.187.46.281.679.094.219.227.406.398.562a2.02 2.02 0 00-.046.375c0 .203.015.406.046.61.047.203.079.398.094.586.063.078.117.18.164.304a.35.35 0 00.235.211 6.47 6.47 0 00.468 1.735c.25.546.43 1.117.54 1.71.124.126.218.282.28.47l.188.515c.078.172.156.336.235.492.093.14.226.242.398.305.094.375.21.75.352 1.125.14.375.359.695.656.96 0 .313.047.587.14.821.11.219.227.43.352.633.14.187.266.375.375.562.11.188.18.39.21.61.22.328.47.633.75.914.298.281.595.554.892.82.312.25.617.508.914.773.296.266.57.547.82.844.172.016.312.055.422.117.125.047.265.086.422.118a.892.892 0 00.258-.282c.078-.125.148-.25.21-.375a7.2 7.2 0 01.188-.351c.078-.125.172-.235.281-.328 0-.032-.008-.055-.023-.07v-.094c0-.172.023-.305.07-.399.063-.11.133-.226.211-.351v-.61c.125-.234.211-.484.258-.75.047-.265.07-.531.07-.797 0-.218-.008-.437-.023-.656a10.318 10.318 0 01-.024-.703c0-.14.008-.281.024-.422.015-.156.047-.297.093-.422.032-.031.086-.078.165-.14.078-.078.117-.125.117-.141a.452.452 0 00-.071-.234.46.46 0 01-.07-.235c0-.11.047-.195.141-.258v-.14a.468.468 0 00-.047-.211.216.216 0 00-.141-.164.81.81 0 00.164-.328c.031-.14.047-.282.047-.422a2.07 2.07 0 000-.445v-.399c0-.14.008-.289.024-.445a.635.635 0 01.187-.399 3.585 3.585 0 01-.094-.539 7.05 7.05 0 01-.023-.562c0-.328.016-.656.047-.985.031-.328.047-.664.047-1.007 0-.125-.008-.25-.024-.375a3.774 3.774 0 01-.023-.399c0-.125.023-.18.07-.164.063 0 .094-.039.094-.117 0-.11-.016-.219-.047-.328l-.047-.328a13.385 13.385 0 01-.094-1.641v-.516a3.01 3.01 0 01.094-.539 1.285 1.285 0 01-.187-.398c-.016-.14-.032-.266-.047-.375l-.047-.352a.931.931 0 00-.141-.375c-.015-.015-.023-.062-.023-.14 0-.125.031-.22.094-.282a3.74 3.74 0 00-.329-.773 2.368 2.368 0 01-.234-.82.926.926 0 01-.398-.446 1.749 1.749 0 01-.118-.586c0-.203.055-.398.164-.586a.548.548 0 01.516-.304c.094 0 .18.031.258.094.094.046.18.109.258.187.093.063.179.125.257.188.094.046.188.07.282.07.062 0 .156-.016.281-.047.172.234.344.453.516.656.187.188.375.383.562.586 0 .266.047.508.141.727a8.1 8.1 0 00.304.633c.11.187.204.375.282.562.093.188.132.39.117.61.031.109.094.187.187.234.094.047.18.11.258.187-.094.157-.164.32-.211.492a6.075 6.075 0 00-.07.516h-.164c-.125 0-.235-.016-.328-.047a1.61 1.61 0 00-.328-.117c.062.594.101 1.195.117 1.805.015.61.023 1.21.023 1.804 0 .75-.008 1.5-.023 2.25a102.23 102.23 0 00-.024 2.227c0 .36-.023.719-.07 1.078a2.95 2.95 0 01-.281 1.008 13.847 13.847 0 01.094 1.523c0 .735-.047 1.47-.141 2.203a33.99 33.99 0 01-.305 2.157c-.047.281-.093.57-.14.867a4.85 4.85 0 01-.164.82.971.971 0 01-.141.235 1.605 1.605 0 00-.117.234c-.188.406-.399.813-.633 1.219-.219.39-.484.75-.797 1.078a1.774 1.774 0 00-.68.187c-.218.11-.421.164-.609.164-.172 0-.312-.085-.422-.257l-.234.093a1.24 1.24 0 01-.258.07 9.467 9.467 0 01-1.524-.796 3.98 3.98 0 01-1.171-1.219h-.094c-.14 0-.242-.031-.305-.094a5.04 5.04 0 01-.258-.28 13.78 13.78 0 00-.21-.33c-.188-.296-.391-.593-.61-.89a3.202 3.202 0 00-.773-.75 3.39 3.39 0 00-.563-1.195c-.25-.344-.508-.71-.773-1.102a5.703 5.703 0 00-1.125-2.18c.078-.077.117-.132.117-.163a.223.223 0 00-.094-.188.312.312 0 01-.07-.187c0-.063.015-.11.047-.14a3.405 3.405 0 01-.516-.727l-.375-.844a9.958 9.958 0 00-.375-.844 3.52 3.52 0 00-.469-.773.724.724 0 00-.328.398c-.031.156-.047.32-.047.492v.375c.016.125.024.25.024.375 0 .313-.04.617-.117.914-.063.297-.11.602-.141.914-.016.22-.023.461-.023.727.015.265.007.531-.024.797a4.205 4.205 0 01-.117.773c-.063.25-.172.461-.328.633-.094.89-.211 1.781-.352 2.672-.14.89-.273 1.781-.398 2.672a9.331 9.331 0 00-.094.586c-.031.234-.07.468-.117.703-.031.25-.063.484-.094.703a8.836 8.836 0 00-.023.562c0 .157.039.305.117.446a.998.998 0 01.117.445c0 .11-.04.172-.117.188-.063.03-.102.093-.117.187a3.86 3.86 0 01.14 1.547c-.015.14-.039.273-.07.398a.461.461 0 01-.073.122l.003.019.07.375c.031.125.078.234.14.328-.046.266-.156.453-.328.563a2.124 2.124 0 00-.445.515h-.094a2.39 2.39 0 00-.468.047c-.141.031-.29.07-.446.117a1.232 1.232 0 00-.28-.07c-.11-.016-.18-.07-.212-.164-.125.062-.297.094-.516.094a1.93 1.93 0 01-1.03-.305 4.059 4.059 0 00-.985-.469 2.55 2.55 0 00-.053-.1zm-8.567-3.493c.007.01.012.02.017.03a.38.38 0 00.164.187c.125.078.32.133.586.164.266.032.485.086.657.164.218.094.43.18.632.258.22.094.438.203.657.328.468.032.93.086 1.382.164.47.078.93.157 1.383.235.453.078.906.148 1.36.21.135.019.27.033.405.045a2.334 2.334 0 01-.054-.138c-.031-.094-.07-.148-.117-.164a.465.465 0 00-.21 0 .816.816 0 00-.071-.445c-.047-.125-.164-.204-.352-.235a1.267 1.267 0 00-.328-.89 4.605 4.605 0 00-.281-.305 1.413 1.413 0 01-.235-.399 3.99 3.99 0 00-.421-.07h-.422c-.75 0-1.477.14-2.18.422-.078.031-.164.07-.258.117a1.643 1.643 0 01-.234.117h-.094c-.016.016-.039.024-.07.024a.671.671 0 01-.305-.07.957.957 0 00-.305-.047.685.685 0 00-.164.023.592.592 0 01-.14.07 2.755 2.755 0 01-.657.141 16.98 16.98 0 01-.345.064zm3.908-6.439c.234 1.063.46 2.133.68 3.21-.125.08-.25.15-.375.212a.879.879 0 01-.399.094.724.724 0 01-.328-.07c-.125.015-.21.062-.258.14-.031.062-.11.11-.234.14a1.458 1.458 0 01-.281.024.845.845 0 00-.282 0c-.171 0-.351.016-.539.047a5.604 5.604 0 00-.539.07c-.5.063-1.008.133-1.523.211-.5.063-1 .094-1.5.094-.11 0-.219-.008-.328-.024-.094 0-.196-.007-.305-.023.172-.578.336-1.14.492-1.688.172-.562.29-1.14.352-1.734l.351-.351c0-.11-.007-.22-.023-.329 0-.109.008-.218.023-.328 0-.015.016-.086.047-.21.031-.141.07-.297.117-.47.047-.171.086-.335.118-.492a8.31 8.31 0 01.093-.328c.157-.734.297-1.468.422-2.203.125-.75.328-1.476.61-2.18a2.078 2.078 0 01-.094-.398 2.828 2.828 0 01.047-.984c.047-.22.148-.375.304-.47.032-.905.086-1.804.164-2.694.094-.907.18-1.813.258-2.72.203.188.344.423.422.704.094.266.164.547.211.844.063.281.133.554.211.82.078.25.219.445.422.586v.094c0 .078-.016.133-.047.164a.16.16 0 00-.047.117v.047a9.2 9.2 0 01.492 1.664c.125.562.22 1.133.282 1.71.078.563.14 1.134.187 1.712.047.578.117 1.156.211 1.734.172 1.094.367 2.18.586 3.258zm55.266.703a1.03 1.03 0 00.164-.562c0-.391-.094-.727-.282-1.008a35.655 35.655 0 00-.562-.89 8.587 8.587 0 01-.797-.329 2.712 2.712 0 01-.703-.516c-.266.047-.453.024-.563-.07-.093-.094-.242-.18-.445-.258a11.94 11.94 0 00-2.203-.539c-.75-.11-1.5-.234-2.25-.375a5.937 5.937 0 00-.703-.164 2.195 2.195 0 01-.164-.047.29.29 0 00-.164-.047c-.36 0-.711.016-1.055.047-.344.016-.695.024-1.055.024a4323 4323 0 01-2.133.047c-.718 0-1.429.015-2.132.047.187-.141.367-.29.539-.446.172-.172.359-.336.562-.492.094-.078.196-.14.305-.188a1.7 1.7 0 00.328-.21c.172-.125.344-.274.516-.446.172-.187.343-.351.515-.492.407-.36.828-.703 1.266-1.031a13.32 13.32 0 011.406-.89c.078-.204.195-.368.352-.493.172-.125.328-.25.469-.375l.21-.234a.16.16 0 01.141-.07h.375c.313-.36.617-.72.914-1.079.297-.36.664-.648 1.102-.867.078-.219.164-.445.258-.68a.948.948 0 01.468-.515 3.01 3.01 0 00.141-.914c0-.516-.086-1-.258-1.454-.172-.453-.32-.914-.445-1.382a2.551 2.551 0 01-.75-.47l-.586-.632h-.117a.253.253 0 00-.188.07c-.031.047-.07.07-.117.07-.031 0-.063-.015-.094-.046.016-.094 0-.164-.047-.211a.462.462 0 00-.164-.14 1.495 1.495 0 00-.164-.094.299.299 0 01-.117-.165 5.448 5.448 0 00-.492-.023 4.28 4.28 0 00-.469-.023 7 7 0 00-1.5.164c-.484.093-.977.18-1.477.258a4.716 4.716 0 01-.656.093c-.218 0-.437.016-.656.047-.062 0-.18.04-.352.117a5.145 5.145 0 01-.351.164 17.57 17.57 0 00-1.008.422 2.524 2.524 0 01-1.055.235h-.093a.642.642 0 01-.329.234 6.457 6.457 0 01-.421.14l-.446.118c-.14.031-.265.086-.375.164h-.515a5.257 5.257 0 01-.938.422c-.359.11-.695.195-1.008.258a.729.729 0 01-.328.257 2.95 2.95 0 01-.422.07l-.445.048a.957.957 0 00-.375.117 1.521 1.521 0 00-.844-.399 9.515 9.515 0 00-.937-.093c-.391.203-.664.5-.82.89-.157.39-.274.79-.352 1.195.109.22.164.477.164.774 0 .156-.016.312-.047.469-.031.14-.07.289-.117.445a.57.57 0 00.164.234c.062.047.094.133.094.258a.955.955 0 01-.071.328 7.803 7.803 0 00-.07.305c-.047.406-.07.805-.07 1.195 0 .25.008.508.023.774.016.265.024.531.024.797 0 .078-.016.172-.047.28a1.22 1.22 0 01-.071.259 73.69 73.69 0 00-.093.68l-.094.656a49.298 49.298 0 00-.234 2.156 31.968 31.968 0 000 4.242c.062.734.164 1.469.304 2.203.157.735.367 1.438.633 2.11a7.822 7.822 0 001.008 1.851c.266.031.476.102.633.211.156.11.343.234.562.375.344-.031.649-.094.914-.187.266-.079.516-.172.75-.282.235-.093.469-.203.703-.328.25-.11.524-.21.821-.305a1.706 1.706 0 00-.188-.515.99.99 0 01-.14-.516c0-.14.031-.273.093-.398a.852.852 0 00-.375-.258 3.78 3.78 0 00-.445-.07l-.469-.047a1.175 1.175 0 01-.398-.117l-.024.047c0 .062.008.117.024.164a.29.29 0 01.047.164c0 .062-.039.101-.117.117a.7.7 0 01-.165.023c-.218 0-.406-.117-.562-.351a3.379 3.379 0 01-.398-.89 12.143 12.143 0 01-.235-1.22c-.062-.437-.109-.86-.14-1.265a41.937 41.937 0 01-.071-1.125v-.727c0-.312.008-.625.024-.937.015-.328.047-.649.093-.961v-.282c0-.093-.007-.187-.023-.28v-.282c0-.219.07-.39.211-.516a1.088 1.088 0 01-.117-.492 1.183 1.183 0 00-.071-.515l.141-.352c.078-.156.117-.258.117-.305 0-.172-.008-.328-.023-.468a4.6 4.6 0 01-.024-.47c0-.702.039-1.398.118-2.085.078-.703.117-1.406.117-2.11 0-.093-.008-.18-.024-.257v-.258a.79.79 0 00.469-.188c.125-.11.242-.218.352-.328.109-.125.218-.234.328-.328a.72.72 0 01.445-.14c.078 0 .195.015.352.046.047-.172.171-.312.375-.422.203-.109.39-.164.562-.164.203 0 .36.063.469.188a3.176 3.176 0 011.101-.656 5.72 5.72 0 001.172-.54c.094.032.149.079.164.141.032.063.094.102.188.117.016-.093.039-.18.07-.257a.283.283 0 01.164-.165l.539-.117.985-.234c.328-.078.656-.125.984-.14a.65.65 0 00.188-.165c.062-.062.117-.125.164-.187.312.031.617.023.914-.024.312-.047.625-.07.937-.07.313 0 .594.031.844.094.078-.031.117-.078.117-.14.016-.079.063-.118.141-.118h.07c.313.11.641.242.984.398.344.141.586.375.727.704a.7.7 0 00-.188.328c-.015.125-.023.25-.023.375 0 .093.008.164.023.21a1.024 1.024 0 00-.421.352c-.094.14-.188.29-.282.445-.093.141-.203.274-.328.399-.109.125-.273.21-.492.258.016.125 0 .218-.047.28a.737.737 0 01-.14.188l-.188.141a.428.428 0 00-.141.211c-.75.469-1.484.977-2.203 1.523l-2.156 1.641-1.406 1.078c-.11.078-.211.164-.305.258a2.094 2.094 0 01-.305.21 1.176 1.176 0 01-.515.165c-.188.016-.321.133-.399.352a.32.32 0 00-.211.023.286.286 0 01-.164.047c-.062 0-.101-.024-.117-.07a.461.461 0 01-.117.28.912.912 0 01-.234.165 4.006 4.006 0 01-.258.14.9.9 0 00-.235.165.251.251 0 00-.187-.07.776.776 0 00-.188-.024h-.304a.718.718 0 01-.281.351c-.11.063-.227.118-.352.164-.125.047-.258.094-.398.141a.56.56 0 00-.305.188.384.384 0 00-.117.28c.015.11-.032.165-.141.165h-.094c.031.344.094.656.188.937.109.266.273.532.492.797.281.032.562.102.844.211.297.094.547.25.75.469a1.19 1.19 0 01.234-.023c.094-.016.18-.024.258-.024.078 0 .156.008.234.023.094 0 .188.008.281.024.36-.063.735-.102 1.126-.117l1.171-.094c.407-.031.797-.078 1.172-.14a3.95 3.95 0 001.055-.329c.156.032.312.055.469.07h.492c.312 0 .625-.007.937-.023.328-.031.657-.047.985-.047h.304c.11.063.219.102.329.117.109.016.218.024.328.024.218 0 .429-.008.632-.024.219-.03.438-.046.657-.046.172 0 .336.015.492.046.156.016.305.07.445.165.11.015.172-.016.188-.094.031-.078.101-.117.211-.117a.26.26 0 01.117.023c.453.156.906.305 1.359.445.469.125.907.313 1.313.563h.515c.157.172.336.32.539.445a.796.796 0 01.375.563 1.433 1.433 0 00-.398.351c-.109.14-.227.274-.352.399a1.927 1.927 0 00-.539.257l-.468.305c-.157.094-.321.188-.493.281a2.155 2.155 0 01-.609.164 3.293 3.293 0 01-1.406.891c-.563.188-1.102.336-1.617.445-.219.25-.5.43-.844.54-.344.109-.656.242-.938.398h-.492c-.437.25-.89.46-1.359.633a21.94 21.94 0 01-1.43.468c-.484.141-.976.274-1.476.399l-1.454.422a1.272 1.272 0 00-.421.023 4.01 4.01 0 01-.422.07 1.146 1.146 0 01-.258.422.934.934 0 00-.235.422c.032.094.063.211.094.352.047.156.094.305.141.445.062.14.125.274.187.399.063.125.141.21.235.257.125.047.32.086.586.118.281.03.484.046.609.046.219 0 .414-.015.586-.046a9.71 9.71 0 00.586-.118c.016-.015.047-.023.094-.023.062 0 .086.031.07.094 0 .062.031.093.094.093h.07c.031-.109.055-.218.07-.328a.75.75 0 01.094-.28.772.772 0 00.563-.188 3.82 3.82 0 01.539-.305 8.042 8.042 0 011.593-.445 10.789 10.789 0 001.594-.399.785.785 0 01.352-.328c.234 0 .5-.063.797-.188.296-.109.554-.218.773-.328l.375-.164c.125-.062.25-.11.375-.14.125-.016.25-.047.375-.094a12.8 12.8 0 00.984-.445 2.75 2.75 0 011.008-.258c.219-.219.461-.399.727-.54.281-.14.555-.28.82-.421l.586-.375a3.26 3.26 0 01.469-.235c.14-.062.304-.164.492-.304.312-.235.602-.477.867-.727.281-.265.586-.484.914-.656-.031-.172 0-.29.094-.352a.687.687 0 00.258-.257c-.047-.22-.016-.407.094-.563zm19.945 9.563c.172-.11.281-.297.328-.563a1.071 1.071 0 01-.141-.328l-.07-.375-.002-.019a.464.464 0 00.072-.122c.032-.125.055-.257.071-.398a3.872 3.872 0 00-.141-1.547c.016-.094.055-.156.117-.187.078-.016.117-.079.117-.188 0-.14-.039-.289-.117-.445a.905.905 0 01-.117-.446c0-.14.008-.328.023-.562.032-.219.063-.453.094-.703.047-.235.086-.469.117-.703a10.2 10.2 0 01.094-.586c.125-.89.258-1.782.399-2.672a53.1 53.1 0 00.351-2.672 1.44 1.44 0 00.328-.633c.063-.25.102-.508.117-.773.032-.266.04-.532.024-.797 0-.266.008-.508.023-.727.032-.312.079-.617.141-.914.078-.297.117-.601.117-.914 0-.125-.008-.25-.023-.375v-.375c0-.172.015-.336.047-.492a.724.724 0 01.328-.398c.187.234.343.492.469.773.14.281.265.563.374.844l.376.843c.14.266.312.508.515.727-.031.031-.047.078-.047.14 0 .063.024.126.071.188.062.047.093.11.093.188 0 .03-.039.086-.117.164a5.7 5.7 0 011.125 2.18c.266.39.524.757.774 1.101.25.328.437.727.562 1.195.297.203.555.453.774.75.218.297.421.594.609.89.062.095.133.204.211.33.094.108.18.202.258.28.062.063.164.094.304.094h.094c.313.5.703.906 1.172 1.219.484.312.992.578 1.523.797.094-.016.18-.04.258-.07l.235-.094c.109.172.25.257.421.257.188 0 .391-.054.61-.164a1.77 1.77 0 01.679-.187c.313-.328.579-.688.797-1.078.235-.407.446-.813.633-1.219.031-.078.07-.156.117-.234a.911.911 0 00.141-.235c.078-.265.133-.539.164-.82.047-.297.094-.586.141-.867.125-.719.226-1.438.304-2.157.094-.734.141-1.468.141-2.203 0-.265-.008-.515-.023-.75a13.87 13.87 0 00-.071-.773c.156-.328.25-.664.282-1.008.046-.36.07-.719.07-1.078 0-.75.008-1.492.023-2.227.016-.75.024-1.5.024-2.25 0-.593-.008-1.195-.024-1.804-.015-.61-.054-1.211-.117-1.805.125.031.234.07.328.117.094.032.203.047.328.047h.164a5.7 5.7 0 01.071-.516c.047-.171.117-.335.211-.492a.984.984 0 00-.258-.187.36.36 0 01-.188-.235 1.148 1.148 0 00-.117-.609 4.756 4.756 0 00-.281-.562 7.763 7.763 0 01-.305-.633 1.821 1.821 0 01-.14-.727 20.324 20.324 0 00-.563-.586 12.025 12.025 0 01-.516-.656 1.276 1.276 0 01-.281.047.623.623 0 01-.281-.07 3.603 3.603 0 00-.258-.188.984.984 0 00-.258-.187.403.403 0 00-.258-.094.545.545 0 00-.515.304 1.15 1.15 0 00-.164.586c0 .172.039.368.117.586a.936.936 0 00.398.446c.032.297.11.57.235.82.14.25.25.508.328.773-.063.063-.094.157-.094.282 0 .078.008.125.024.14.078.125.125.25.14.375l.047.352c.016.11.031.234.047.375.031.125.094.258.187.398a3.01 3.01 0 00-.093.54v.515a14.277 14.277 0 00.093 1.64l.047.329c.032.11.047.219.047.328 0 .078-.031.117-.094.117-.046-.016-.07.04-.07.164 0 .125.008.258.024.399.015.125.023.25.023.375 0 .343-.016.68-.047 1.007a10.46 10.46 0 00-.047.985c0 .187.008.375.024.562.015.172.047.352.093.54a.64.64 0 00-.187.398 4.366 4.366 0 00-.023.445v.399c.015.14.015.289 0 .445 0 .14-.016.281-.047.422a.824.824 0 01-.164.328.213.213 0 01.14.164.468.468 0 01.047.21v.141a.293.293 0 00-.14.258.45.45 0 00.07.235.45.45 0 01.07.234c0 .016-.039.063-.117.14-.078.063-.133.11-.164.141a1.685 1.685 0 00-.094.422c-.015.14-.023.281-.023.422 0 .234.008.469.023.703.016.219.024.438.024.656 0 .266-.024.532-.071.797a2.513 2.513 0 01-.258.75v.61a9.73 9.73 0 00-.21.351.907.907 0 00-.071.399v.093c.016.016.024.04.024.07-.11.094-.203.204-.282.329-.062.11-.125.226-.187.351-.063.125-.133.25-.211.375a.892.892 0 01-.258.282 2.729 2.729 0 01-.422-.118 1.037 1.037 0 00-.422-.117 8.331 8.331 0 00-.82-.843 21.486 21.486 0 00-.914-.774c-.297-.266-.594-.539-.891-.82a6.019 6.019 0 01-.75-.914 1.649 1.649 0 00-.211-.61 5.724 5.724 0 00-.375-.562 8.082 8.082 0 01-.351-.633 2.195 2.195 0 01-.141-.82 2.404 2.404 0 01-.656-.961c-.141-.375-.258-.75-.352-1.125a.79.79 0 01-.398-.305c-.078-.156-.156-.32-.234-.492l-.188-.516a1.171 1.171 0 00-.281-.469 7.247 7.247 0 00-.539-1.71 6.44 6.44 0 01-.469-1.735.351.351 0 01-.234-.21 1.126 1.126 0 00-.164-.305 4.178 4.178 0 00-.094-.586 4.033 4.033 0 01-.047-.61c0-.094.016-.219.047-.375a1.608 1.608 0 01-.399-.562 35.716 35.716 0 01-.281-.68c-.078-.234-.156-.46-.234-.68a2.313 2.313 0 00-.328-.609v-.422a2.701 2.701 0 01-.516-.516 2.47 2.47 0 00-.492-.492h-.305a3.41 3.41 0 00-.562.047 3.422 3.422 0 01-.563.047h-.094a.717.717 0 01-.093.234.285.285 0 01-.164.165v.21c0 .235.015.47.046.704.032.234.047.476.047.726v.211c.141.203.227.469.258.797.047.312.078.633.094.96.016.329.047.634.094.915s.148.484.304.61l-.257.515c.093.547.14 1.11.14 1.687 0 .594-.031 1.18-.094 1.758a15.609 15.609 0 00-.093 1.711v.445l.047.446a.364.364 0 00-.188.187 4.574 4.574 0 00-.047.211.612.612 0 01-.047.235.36.36 0 01-.14.21c.109.063.164.172.164.329 0 .172-.047.343-.141.515-.078.157-.141.32-.187.492.046.188.07.391.07.61 0 .265-.031.523-.094.773-.047.25-.07.508-.07.774 0 .125.008.218.023.281a4.723 4.723 0 00-.586 1.781c-.062.64-.156 1.266-.281 1.875l-.07.211a2.291 2.291 0 01-.07.258c-.016.094-.04.18-.071.258a1.044 1.044 0 00-.023.164c0 .156.039.258.117.305.094.046.141.132.141.257a2.3 2.3 0 00-.516.985 9.88 9.88 0 00-.211 1.218l-.141 1.243a4.057 4.057 0 01-.201 1.033.356.356 0 01-.267-.12c-.078-.093-.204-.14-.375-.14a4.108 4.108 0 00-.446-.703l-.492-.656a28.484 28.484 0 01-.469-.68 4.637 4.637 0 01-.375-.727.987.987 0 00.258-.445.842.842 0 01.258-.398.79.79 0 00-.281-.446 1.994 1.994 0 00-.422-.28 6.986 6.986 0 01-.469-.259 1.24 1.24 0 01-.351-.351 1.998 1.998 0 00-.094-.75 4.168 4.168 0 00-.281-.656l-.282-.657a2.009 2.009 0 01-.117-.68c0-.124.008-.218.024-.28a1.535 1.535 0 01-.188-.235.734.734 0 01-.07-.281c0-.078.031-.117.094-.117.062-.016.093-.063.093-.141 0-.031-.008-.055-.023-.07a11.026 11.026 0 01-.399-1.57 62.03 62.03 0 01-.257-1.641l-.235-1.64a14.885 14.885 0 00-.281-1.642v-.093c0-.063.016-.11.047-.14a.291.291 0 00.047-.165v-.094c-.125-.094-.188-.242-.188-.445.016-.219-.039-.383-.164-.492.078-.078.117-.196.117-.352 0-.156.047-.265.141-.328a.315.315 0 00-.211-.117.412.412 0 01-.211-.117 15.308 15.308 0 01-.422-1.758 5.513 5.513 0 00-.586-1.688c0-.078.024-.125.071-.14.062-.016.093-.063.093-.14v-.071a.935.935 0 01-.375-.469 7.726 7.726 0 01-.164-.633 8.482 8.482 0 00-.164-.68 1.393 1.393 0 00-.305-.562c.126-.062.188-.18.188-.351v-.047a2.816 2.816 0 01-.398-.563 1.49 1.49 0 01-.118-.89 1.42 1.42 0 01-.492-.516 5.966 5.966 0 01-.281-.656c-.359-.016-.578-.243-.656-.68-.172.031-.305.016-.399-.047a.826.826 0 01-.234-.234 6.868 6.868 0 00-.164-.305.572.572 0 00-.211-.258h-.094a.259.259 0 00-.117-.023.708.708 0 00-.422.117 2.098 2.098 0 01-.375.187 2.558 2.558 0 01-.164.282l-.187.28c.046.704.093 1.4.14 2.087.047.687.07 1.383.07 2.086 0 .828-.046 1.664-.14 2.508a6.372 6.372 0 01-.094.586 4.528 4.528 0 00-.047.562c0 .078.024.125.071.14.062 0 .093.04.093.118v.07a32.897 32.897 0 01-.351 2.11c-.141.687-.219 1.39-.235 2.109a.734.734 0 00-.093.281c-.016.11-.063.18-.141.211.062.188.086.399.07.633v.21a2.274 2.274 0 00-.328.821 138.8 138.8 0 00-.141.961 8.423 8.423 0 01-.187.914c-.063.297-.18.547-.352.75 0 .188-.015.399-.046.633a3.641 3.641 0 01-.118.68 3.42 3.42 0 01-.211.68 3.454 3.454 0 01-.304.538c-.141.75-.344 1.493-.61 2.227a22.79 22.79 0 01-.914 2.133c-.218.047-.429.07-.632.07a5.28 5.28 0 01-.868-.07 7.853 7.853 0 00-.867-.047c-.219 0-.398.031-.539.094a1.666 1.666 0 00-.375.28c-.109.11-.211.227-.305.352-.109.141-.226.274-.351.399v.187c0 .188.047.36.14.516.094.172.141.36.141.563v.093a.203.203 0 00-.023.094c.359.125.75.203 1.171.234l1.172.094c-.015.203-.054.39-.117.563a.947.947 0 01-.375.445 2.564 2.564 0 01-.211.938 1.93 1.93 0 01-.633.75c-.078.39-.195.71-.351.96-.156.25-.32.547-.492.891a5.9 5.9 0 00.187.703c.078.235.18.438.305.61.125.171.289.312.492.421.203.11.445.164.727.164.296 0 .531-.054.703-.164.156-.109.281-.25.375-.421a2.16 2.16 0 00.211-.586c.047-.203.109-.414.187-.633.078-.219.196-.446.352-.68.156-.234.234-.469.234-.703a.67.67 0 00-.07-.305c.14-.156.25-.343.328-.562.078-.219.148-.446.211-.68.078-.219.156-.43.234-.633a1.24 1.24 0 01.399-.492 1.16 1.16 0 01.023-.398.417.417 0 01.235-.282 6.035 6.035 0 011.945-.492 19.435 19.435 0 002.039-.281 2.75 2.75 0 00.656-.14.595.595 0 00.141-.07.68.68 0 01.164-.024c.109 0 .211.015.305.047.093.046.195.07.304.07.031 0 .055-.008.07-.024h.094c.078-.03.156-.07.235-.117.093-.047.179-.086.257-.117a5.824 5.824 0 012.18-.422H149c.141.016.281.04.422.07.062.157.14.29.234.399.11.11.203.21.282.305.093.109.171.234.234.375.062.14.094.312.094.515.187.031.304.11.351.235a.816.816 0 01.071.445.461.461 0 01.21 0c.047.015.086.07.118.164.078.219.179.406.304.562.125.157.25.305.375.446.141.14.274.281.399.422.14.156.258.328.351.515.344.11.672.266.985.469a1.93 1.93 0 001.031.305c.219 0 .391-.032.516-.094.031.094.101.148.211.164.109.016.203.04.281.07.156-.047.304-.086.445-.117.156-.031.313-.047.469-.047h.094c.14-.218.289-.39.445-.515zm-9.188-10.266c.235 1.063.461 2.133.68 3.21-.125.08-.25.15-.375.212a.88.88 0 01-.398.094.73.73 0 01-.329-.07c-.124.015-.21.062-.257.14-.032.062-.11.11-.235.14a1.457 1.457 0 01-.281.024.844.844 0 00-.281 0c-.172 0-.352.016-.539.047a5.585 5.585 0 00-.539.07c-.5.063-1.008.133-1.524.211-.5.063-1 .094-1.5.094-.109 0-.218-.008-.328-.024-.094 0-.195-.007-.305-.023.172-.578.336-1.14.493-1.688.172-.562.289-1.14.351-1.734l.352-.351c0-.11-.008-.22-.024-.329 0-.109.008-.218.024-.328 0-.015.015-.086.047-.21.031-.141.07-.297.117-.47.047-.171.086-.335.117-.492a7.77 7.77 0 01.094-.328c.156-.734.297-1.468.422-2.203.125-.75.328-1.476.609-2.18a2.102 2.102 0 01-.094-.398 2.819 2.819 0 01.047-.984c.047-.22.149-.375.305-.47.031-.905.086-1.804.164-2.694.094-.907.18-1.813.258-2.72.203.188.343.423.422.704.093.266.164.547.211.844.062.281.132.554.21.82.079.25.219.445.422.586v.094c0 .078-.015.133-.047.164a.16.16 0 00-.046.117v.047c.218.547.382 1.101.492 1.664.125.562.219 1.133.281 1.71.078.563.141 1.134.188 1.712.046.578.117 1.156.21 1.734.172 1.094.368 2.18.586 3.258z" fill="#fff"/></svg>