<svg width="175" height="38" viewBox="0 0 175 38" fill="none" xmlns="http://www.w3.org/2000/svg">
<path fill-rule="evenodd" clip-rule="evenodd" d="M1.31802 1.31802C2.16193 0.474106 3.30653 0 4.5 0H29.25C30.4435 0 31.5881 0.474106 32.432 1.31802C33.2759 2.16193 33.75 3.30653 33.75 4.5V31.5C33.75 32.6935 33.2759 33.8381 32.432 34.682C31.5881 35.5259 30.4435 36 29.25 36H4.5C3.30653 36 2.16193 35.5259 1.31802 34.682C0.474106 33.8381 0 32.6935 0 31.5V4.5C0 3.30653 0.474106 2.16193 1.31802 1.31802ZM18 4.5H15.75C15.1533 4.5 14.581 4.73705 14.159 5.15901C13.7371 5.58097 13.5 6.15326 13.5 6.75V13.5C13.5 14.0967 13.7371 14.669 14.159 15.091C14.581 15.5129 15.1533 15.75 15.75 15.75H18C18.5967 15.75 19.169 15.5129 19.591 15.091C20.0129 14.669 20.25 14.0967 20.25 13.5V6.75C20.25 6.15326 20.0129 5.58097 19.591 5.15901C19.169 4.73705 18.5967 4.5 18 4.5ZM5.15901 5.15901C4.73705 5.58097 4.5 6.15326 4.5 6.75V22.5C4.5 23.0967 4.73705 23.669 5.15901 24.091C5.58097 24.5129 6.15326 24.75 6.75 24.75H9C9.59674 24.75 10.169 24.5129 10.591 24.091C11.0129 23.669 11.25 23.0967 11.25 22.5V6.75C11.25 6.15326 11.0129 5.58097 10.591 5.15901C10.169 4.73705 9.59674 4.5 9 4.5H6.75C6.15326 4.5 5.58097 4.73705 5.15901 5.15901ZM27 4.5H24.75C24.1533 4.5 23.581 4.73705 23.159 5.15901C22.7371 5.58097 22.5 6.15326 22.5 6.75V29.25C22.5 29.8467 22.7371 30.419 23.159 30.841C23.581 31.2629 24.1533 31.5 24.75 31.5H27C27.5967 31.5 28.169 31.2629 28.591 30.841C29.0129 30.419 29.25 29.8467 29.25 29.25V6.75C29.25 6.15326 29.0129 5.58097 28.591 5.15901C28.169 4.73705 27.5967 4.5 27 4.5ZM86.3691 33.8067C86.0938 33.9437 85.8067 34.0394 85.5078 34.0938C85.1797 34.1719 84.8516 34.2109 84.5234 34.2109C84.3672 34.2109 84.1953 34.2031 84.0078 34.1875C83.8359 34.1875 83.6797 34.1719 83.5391 34.1406C83.4922 34.125 83.4375 34.0938 83.375 34.0469C83.3125 34 83.25 33.9766 83.1875 33.9766C83.0312 33.9766 82.8828 34 82.7422 34.0469C82.6016 34.1094 82.4531 34.1406 82.2969 34.1406C82.2188 34.1406 82.1406 34.1172 82.0625 34.0703C82 34.0234 81.9297 33.9922 81.8516 33.9766C81.7422 33.9453 81.6328 33.9375 81.5234 33.9531C81.4141 33.9688 81.2969 33.9766 81.1719 33.9766C81 33.9766 80.8438 33.9531 80.7031 33.9062C80.5781 33.8594 80.4609 33.7734 80.3516 33.6484C79.9609 33.6016 79.5781 33.5234 79.2031 33.4141C78.8281 33.3203 78.4531 33.2109 78.0781 33.0859L76.9531 32.7578C76.5781 32.6641 76.1953 32.6016 75.8047 32.5703C75.7109 32.4609 75.6016 32.375 75.4766 32.3125C75.3516 32.2656 75.2578 32.1797 75.1953 32.0547C75.1172 32.0547 75.0625 32.0625 75.0312 32.0781C75 32.1094 74.9453 32.125 74.8672 32.125C74.6016 31.9062 74.3125 31.7188 74 31.5625C73.967 31.5451 73.9338 31.5278 73.9003 31.5106C73.8965 31.5767 73.8985 31.6409 73.9062 31.7031C73.7344 31.8281 73.6016 31.9922 73.5078 32.1953C73.4297 32.3984 73.3516 32.6094 73.2734 32.8281C73.2109 33.0625 73.1406 33.2891 73.0625 33.5078C72.9844 33.7266 72.875 33.9141 72.7344 34.0703C72.7812 34.1641 72.8047 34.2656 72.8047 34.375C72.8047 34.6094 72.7266 34.8438 72.5703 35.0781C72.4141 35.3125 72.2969 35.5391 72.2188 35.7578C72.1406 35.9766 72.0781 36.1875 72.0312 36.3906C71.9844 36.6094 71.9141 36.8047 71.8203 36.9766C71.7266 37.1484 71.6016 37.2891 71.4453 37.3984C71.2734 37.5078 71.0391 37.5625 70.7422 37.5625C70.4609 37.5625 70.2188 37.5078 70.0156 37.3984C69.8125 37.2891 69.6484 37.1484 69.5234 36.9766C69.3984 36.8047 69.2969 36.6016 69.2188 36.3672C69.1406 36.1328 69.0781 35.8984 69.0312 35.6641C69.2031 35.3203 69.3672 35.0234 69.5234 34.7734C69.6797 34.5234 69.7969 34.2031 69.875 33.8125C70.1562 33.6094 70.3672 33.3594 70.5078 33.0625C70.6328 32.7812 70.7031 32.4688 70.7188 32.125C70.8906 32.0156 71.0156 31.8672 71.0938 31.6797C71.1562 31.5078 71.1953 31.3203 71.2109 31.1172C70.8359 31.0859 70.4453 31.0547 70.0391 31.0234C69.6172 30.9922 69.2266 30.9141 68.8672 30.7891C68.8672 30.7578 68.875 30.7266 68.8906 30.6953V30.6016C68.8906 30.3984 68.8438 30.2109 68.75 30.0391C68.6562 29.8828 68.6094 29.7109 68.6094 29.5234V29.3359C68.7344 29.2109 68.8516 29.0781 68.9609 28.9375C68.989 28.9001 69.0178 28.8633 69.0473 28.8273C68.7562 28.7099 68.4697 28.5747 68.1875 28.4219C67.8281 28.2344 67.5078 27.9844 67.2266 27.6719C66.9141 27.6406 66.6562 27.5469 66.4531 27.3906C66.25 27.2188 66.0625 27.0078 65.8906 26.7578C65.5156 26.6328 65.1719 26.4688 64.8594 26.2656C64.5469 26.0625 64.2344 25.8516 63.9219 25.6328C63.625 25.4141 63.3047 25.2188 62.9609 25.0469C62.6328 24.8594 62.2578 24.7266 61.8359 24.6484C61.8203 24.5391 61.7734 24.4609 61.6953 24.4141C61.6172 24.3516 61.5234 24.3047 61.4141 24.2734C61.3203 24.2266 61.2266 24.1875 61.1328 24.1562C61.0391 24.125 60.9688 24.0625 60.9219 23.9688H60.7812C60.7344 23.9531 60.6875 23.9453 60.6406 23.9453C60.5938 23.9453 60.5391 23.9531 60.4766 23.9688H60.3359L60.3594 23.8984C60.3594 23.8359 60.3359 23.7969 60.2891 23.7812C60.2578 23.7656 60.2109 23.75 60.1484 23.7344C60.0859 23.7188 60.0312 23.6953 59.9844 23.6641C59.9375 23.6328 59.9141 23.5625 59.9141 23.4531H59.8438C59.6719 23.4531 59.5156 23.4219 59.375 23.3594C59.2344 23.2969 59.0781 23.25 58.9062 23.2188C58.875 23.3906 58.8594 23.5547 58.8594 23.7109V24.1328C58.8594 24.8359 58.9375 25.5781 59.0938 26.3594C59.25 27.125 59.4922 27.8125 59.8203 28.4219C60.1484 28.5469 60.4297 28.7109 60.6641 28.9141C60.8984 29.1172 61.125 29.3516 61.3438 29.6172C61.3594 30.0391 61.2031 30.3906 60.875 30.6719C60.5625 30.9688 60.1953 31.1172 59.7734 31.1172C59.5391 31.1172 59.3203 31.0547 59.1172 30.9297C58.9297 30.8203 58.7734 30.6562 58.6484 30.4375C58.5547 30.4375 58.4688 30.4531 58.3906 30.4844C58.3125 30.5312 58.2188 30.5547 58.1094 30.5547C58.0625 30.5547 58.0156 30.5469 57.9688 30.5312C57.8125 30.2656 57.6562 30.0312 57.5 29.8281C57.3594 29.625 57.2656 29.3516 57.2188 29.0078C57.0469 28.9297 56.9375 28.7891 56.8906 28.5859C56.8594 28.3828 56.7734 28.2188 56.6328 28.0938C56.5703 27.3906 56.4844 26.6875 56.375 25.9844C56.2812 25.2812 56.2344 24.5781 56.2344 23.875C56.2344 23.7188 56.2422 23.5625 56.2578 23.4062L56.3047 22.8906C56.2734 22.8125 56.2266 22.7422 56.1641 22.6797C56.1172 22.6016 56.0781 22.5234 56.0469 22.4453C55.7344 22.5234 55.4062 22.6016 55.0625 22.6797C54.7344 22.7422 54.3984 22.7734 54.0547 22.7734C53.8359 22.7734 53.5703 22.7422 53.2578 22.6797C52.9453 22.6016 52.7031 22.5 52.5312 22.375C52.4062 22.2969 52.3203 22.1562 52.2734 21.9531C52.2109 21.7344 52.1797 21.5469 52.1797 21.3906C52.1797 21.125 52.2266 20.8594 52.3203 20.5938C52.4141 20.3125 52.5391 20.0703 52.6953 19.8672C53.4609 19.5547 54.1719 19.1719 54.8281 18.7188C55.5 18.2656 56.1562 17.7734 56.7969 17.2422C56.8125 17.0859 56.8359 16.9297 56.8672 16.7734C56.9141 16.6172 56.9375 16.4531 56.9375 16.2812C56.9375 16.0938 56.8906 15.9141 56.7969 15.7422C56.8906 15.6484 56.9375 15.5312 56.9375 15.3906C56.9375 15.2344 56.9766 15.0938 57.0547 14.9688V14.8281C57.0547 14.7656 57.0469 14.7031 57.0312 14.6406C57.0312 14.5781 57.0078 14.5156 56.9609 14.4531C57.0703 13.8438 57.1562 13.2422 57.2188 12.6484C57.2812 12.0391 57.3125 11.4141 57.3125 10.7734C57.3125 10.7266 57.3359 10.6016 57.3828 10.3984C57.4453 10.1797 57.4844 10.0312 57.5 9.95312C57.5625 9.59375 57.6016 9.24219 57.6172 8.89844C57.6484 8.53906 57.6875 8.17969 57.7344 7.82031C57.75 7.69531 57.7812 7.53125 57.8281 7.32812C57.875 7.125 57.8984 6.98438 57.8984 6.90625C57.8984 6.79688 57.875 6.72656 57.8281 6.69531C57.7969 6.64844 57.7656 6.57812 57.7344 6.48438C57.8281 6.125 57.875 5.76562 57.875 5.40625C57.8906 5.03125 57.9219 4.66406 57.9688 4.30469C58.2344 4.19531 58.4453 4.08594 58.6016 3.97656C58.7578 3.86719 58.9844 3.8125 59.2812 3.8125H59.3281C59.3594 4 59.4297 4.17969 59.5391 4.35156C59.6484 4.50781 59.7578 4.67188 59.8672 4.84375C59.9922 5 60.1016 5.15625 60.1953 5.3125C60.2891 5.45312 60.3359 5.59375 60.3359 5.73438C60.3359 6 60.3125 6.28906 60.2656 6.60156C60.2188 6.91406 60.1797 7.20312 60.1484 7.46875C60.0703 8.17188 60 8.86719 59.9375 9.55469C59.875 10.2266 59.7812 10.9141 59.6562 11.6172C59.7031 11.8359 59.7266 12.0391 59.7266 12.2266C59.7266 12.5078 59.7031 12.7891 59.6562 13.0703C59.6094 13.3516 59.5859 13.6406 59.5859 13.9375C59.5859 14.0781 59.5938 14.2266 59.6094 14.3828C59.6406 14.5391 59.6875 14.6797 59.75 14.8047C60.2812 14.6641 60.7578 14.375 61.1797 13.9375C61.2422 13.875 61.3047 13.7969 61.3672 13.7031C61.4453 13.5938 61.5234 13.5078 61.6016 13.4453C61.7578 13.3203 61.9219 13.2109 62.0938 13.1172C62.2812 13.0078 62.4609 12.8984 62.6328 12.7891C63.0391 12.5234 63.4297 12.25 63.8047 11.9688C64.1953 11.6719 64.5859 11.3828 64.9766 11.1016C66.1328 10.2578 67.25 9.38281 68.3281 8.47656C69.4219 7.55469 70.4844 6.58594 71.5156 5.57031C71.5625 5.30469 71.6562 5.09375 71.7969 4.9375C71.9375 4.78125 72.0625 4.59375 72.1719 4.375C72.4688 4.26562 72.7266 4.10156 72.9453 3.88281C73.0391 3.91406 73.1328 3.9375 73.2266 3.95312H73.5312C73.6406 3.95312 73.7422 3.96094 73.8359 3.97656C73.9453 3.97656 74.0391 4 74.1172 4.04688C74.1328 4.28125 74.1562 4.49219 74.1875 4.67969C74.2188 4.86719 74.3125 5.04688 74.4688 5.21875V5.3125C74.4844 5.34375 74.4922 5.375 74.4922 5.40625C74.4922 5.57812 74.4453 5.71875 74.3516 5.82812C74.2578 5.9375 74.2031 6.07031 74.1875 6.22656L72.9688 7.44531C72.5625 7.85156 72.1875 8.28906 71.8438 8.75781C71.7188 8.77344 71.6094 8.8125 71.5156 8.875C71.4219 8.9375 71.3281 9.00781 71.2344 9.08594C71.1562 9.14844 71.0703 9.21094 70.9766 9.27344C70.8828 9.33594 70.7812 9.38281 70.6719 9.41406C70.3906 9.78906 70.0703 10.1328 69.7109 10.4453C69.3516 10.7422 68.9844 11.0312 68.6094 11.3125C68.2344 11.5938 67.8594 11.8828 67.4844 12.1797C67.125 12.4609 66.7891 12.7734 66.4766 13.1172C66.1484 13.2734 65.8281 13.4609 65.5156 13.6797C65.2188 13.8828 64.9766 14.1406 64.7891 14.4531H64.6719C64.5938 14.4531 64.5312 14.4766 64.4844 14.5234C64.4375 14.5547 64.375 14.5703 64.2969 14.5703C63.4531 15.3047 62.5781 16 61.6719 16.6562C60.7656 17.2969 59.8984 18 59.0703 18.7656V19.3516C59.3359 19.5078 59.625 19.6562 59.9375 19.7969C60.25 19.9219 60.5547 20.0625 60.8516 20.2188C61.1641 20.375 61.4531 20.5469 61.7188 20.7344C62 20.9062 62.2422 21.1172 62.4453 21.3672C62.4766 21.3516 62.5156 21.3438 62.5625 21.3438C62.7031 21.3438 62.8125 21.3906 62.8906 21.4844C62.9688 21.5625 63.1016 21.5859 63.2891 21.5547C63.3516 21.8047 63.4922 21.9844 63.7109 22.0938C63.9297 22.2031 64.1484 22.2969 64.3672 22.375C64.5547 22.5625 64.7266 22.7422 64.8828 22.9141C65.0391 23.0703 65.2656 23.1719 65.5625 23.2188C65.5938 23.2812 65.6172 23.3516 65.6328 23.4297C65.6484 23.5078 65.6797 23.5781 65.7266 23.6406C66.0234 23.7344 66.3047 23.8672 66.5703 24.0391C66.8516 24.2109 67.125 24.3906 67.3906 24.5781L68.1875 25.0938C68.4688 25.25 68.7656 25.375 69.0781 25.4688C69.125 25.625 69.2109 25.7344 69.3359 25.7969C69.4766 25.8594 69.5859 25.9531 69.6641 26.0781H70.0859C70.1328 26.1562 70.1953 26.2344 70.2734 26.3125C70.3516 26.375 70.4062 26.4688 70.4375 26.5938C70.5625 26.625 70.7031 26.6719 70.8594 26.7344C71.0156 26.7812 71.1562 26.8438 71.2812 26.9219C71.3281 26.9688 71.3594 27.0234 71.375 27.0859C71.4062 27.1484 71.4531 27.2031 71.5156 27.25C71.6094 27.3281 71.75 27.3906 71.9375 27.4375C72.1406 27.4688 72.3125 27.5234 72.4531 27.6016C72.5602 27.661 72.666 27.7227 72.7708 27.7867C73.0244 27.2375 73.2545 26.6836 73.4609 26.125C73.7266 25.3906 73.9297 24.6484 74.0703 23.8984C74.1797 23.7422 74.2812 23.5625 74.375 23.3594C74.4688 23.1406 74.5391 22.9141 74.5859 22.6797C74.6484 22.4453 74.6875 22.2188 74.7031 22C74.7344 21.7656 74.75 21.5547 74.75 21.3672C74.9219 21.1641 75.0391 20.9141 75.1016 20.6172C75.1797 20.3203 75.2422 20.0156 75.2891 19.7031C75.3359 19.375 75.3828 19.0547 75.4297 18.7422C75.4922 18.4297 75.6016 18.1562 75.7578 17.9219V17.7109C75.7734 17.4766 75.75 17.2656 75.6875 17.0781C75.7656 17.0469 75.8125 16.9766 75.8281 16.8672C75.8438 16.7578 75.875 16.6641 75.9219 16.5859C75.9375 15.8672 76.0156 15.1641 76.1562 14.4766C76.2969 13.7734 76.4141 13.0703 76.5078 12.3672V12.2969C76.5078 12.2188 76.4766 12.1797 76.4141 12.1797C76.3672 12.1641 76.3438 12.1172 76.3438 12.0391C76.3438 11.8984 76.3594 11.7109 76.3906 11.4766C76.4375 11.2422 76.4688 11.0469 76.4844 10.8906C76.5781 10.0469 76.625 9.21094 76.625 8.38281C76.625 7.67969 76.6016 6.98438 76.5547 6.29688C76.5078 5.60938 76.4609 4.91406 76.4141 4.21094L76.6016 3.92969C76.6641 3.83594 76.7188 3.74219 76.7656 3.64844C76.9219 3.58594 77.0469 3.52344 77.1406 3.46094C77.25 3.38281 77.3906 3.34375 77.5625 3.34375C77.6094 3.34375 77.6484 3.35156 77.6797 3.36719H77.7734C77.8672 3.42969 77.9375 3.51562 77.9844 3.625C78.0469 3.73438 78.1016 3.83594 78.1484 3.92969C78.2109 4.02344 78.2891 4.10156 78.3828 4.16406C78.4766 4.22656 78.6094 4.24219 78.7812 4.21094C78.8594 4.64844 79.0781 4.875 79.4375 4.89062C79.5156 5.10938 79.6094 5.32812 79.7188 5.54688C79.8438 5.76562 80.0078 5.9375 80.2109 6.0625C80.1953 6.125 80.1875 6.21094 80.1875 6.32031C80.1875 6.53906 80.2344 6.75 80.3281 6.95312C80.4375 7.15625 80.5703 7.34375 80.7266 7.51562V7.5625C80.7266 7.73438 80.6641 7.85156 80.5391 7.91406C80.6797 8.07031 80.7812 8.25781 80.8438 8.47656C80.9062 8.69531 80.9609 8.92188 81.0078 9.15625C81.0547 9.375 81.1094 9.58594 81.1719 9.78906C81.25 9.99219 81.375 10.1484 81.5469 10.2578V10.3281C81.5469 10.4062 81.5156 10.4531 81.4531 10.4688C81.4062 10.4844 81.3828 10.5312 81.3828 10.6094C81.6641 11.125 81.8594 11.6875 81.9688 12.2969C82.0781 12.9062 82.2188 13.4922 82.3906 14.0547C82.4531 14.1172 82.5234 14.1562 82.6016 14.1719C82.6953 14.1875 82.7656 14.2266 82.8125 14.2891C82.7188 14.3516 82.6719 14.4609 82.6719 14.6172C82.6719 14.7734 82.6328 14.8906 82.5547 14.9688C82.6797 15.0781 82.7344 15.2422 82.7188 15.4609C82.7188 15.6641 82.7812 15.8125 82.9062 15.9062V16C82.9062 16.0625 82.8906 16.1172 82.8594 16.1641C82.8281 16.1953 82.8125 16.2422 82.8125 16.3047V16.3984C82.9375 16.9453 83.0312 17.4922 83.0938 18.0391L83.3281 19.6797C83.4062 20.2266 83.4922 20.7734 83.5859 21.3203C83.6797 21.8516 83.8125 22.375 83.9844 22.8906C84 22.9062 84.0078 22.9297 84.0078 22.9609C84.0078 23.0391 83.9766 23.0859 83.9141 23.1016C83.8516 23.1016 83.8203 23.1406 83.8203 23.2188C83.8203 23.2969 83.8438 23.3906 83.8906 23.5C83.9531 23.5938 84.0156 23.6719 84.0781 23.7344C84.0625 23.7969 84.0547 23.8906 84.0547 24.0156C84.0547 24.25 84.0938 24.4766 84.1719 24.6953L84.4531 25.3516C84.5625 25.5547 84.6562 25.7734 84.7344 26.0078C84.8125 26.2422 84.8438 26.4922 84.8281 26.7578C84.9219 26.8984 85.0391 27.0156 85.1797 27.1094C85.3359 27.2031 85.4922 27.2891 85.6484 27.3672C85.8047 27.4453 85.9453 27.5391 86.0703 27.6484C86.2109 27.7578 86.3047 27.9062 86.3516 28.0938C86.2266 28.2031 86.1406 28.3359 86.0938 28.4922C86.0469 28.6641 85.9609 28.8125 85.8359 28.9375C85.9453 29.2031 86.0703 29.4453 86.2109 29.6641C86.3672 29.8984 86.5234 30.125 86.6797 30.3438L87.1719 31C87.3438 31.2188 87.4922 31.4531 87.6172 31.7031C87.7891 31.7031 87.9141 31.75 87.9922 31.8438C88.053 31.9167 88.1422 31.9565 88.2598 31.9633C88.3655 31.6574 88.4326 31.3129 88.4609 30.9297C88.5078 30.5234 88.5547 30.1094 88.6016 29.6875C88.6484 29.2656 88.7188 28.8594 88.8125 28.4688C88.9062 28.0938 89.0781 27.7656 89.3281 27.4844C89.3281 27.3594 89.2812 27.2734 89.1875 27.2266C89.1094 27.1797 89.0703 27.0781 89.0703 26.9219C89.0703 26.8906 89.0781 26.8359 89.0938 26.7578C89.125 26.6797 89.1484 26.5938 89.1641 26.5C89.1953 26.4062 89.2188 26.3203 89.2344 26.2422L89.3047 26.0312C89.4297 25.4219 89.5234 24.7969 89.5859 24.1562C89.6641 23.5156 89.8594 22.9219 90.1719 22.375C90.1562 22.3125 90.1484 22.2188 90.1484 22.0938C90.1484 21.8281 90.1719 21.5703 90.2188 21.3203C90.2812 21.0703 90.3125 20.8125 90.3125 20.5469C90.3125 20.3281 90.2891 20.125 90.2422 19.9375C90.2891 19.7656 90.3516 19.6016 90.4297 19.4453C90.5234 19.2734 90.5703 19.1016 90.5703 18.9297C90.5703 18.7734 90.5156 18.6641 90.4062 18.6016C90.4844 18.5391 90.5312 18.4688 90.5469 18.3906C90.5781 18.3125 90.5938 18.2344 90.5938 18.1562C90.6094 18.0781 90.625 18.0078 90.6406 17.9453C90.6719 17.8672 90.7344 17.8047 90.8281 17.7578C90.8125 17.6016 90.7969 17.4531 90.7812 17.3125V16.8672C90.7812 16.2891 90.8125 15.7188 90.875 15.1562C90.9375 14.5781 90.9688 13.9922 90.9688 13.3984C90.9688 12.8203 90.9219 12.2578 90.8281 11.7109L91.0859 11.1953C90.9297 11.0703 90.8281 10.8672 90.7812 10.5859C90.7344 10.3047 90.7031 10 90.6875 9.67188C90.6719 9.34375 90.6406 9.02344 90.5938 8.71094C90.5625 8.38281 90.4766 8.11719 90.3359 7.91406V7.70312C90.3359 7.45312 90.3203 7.21094 90.2891 6.97656C90.2578 6.74219 90.2422 6.50781 90.2422 6.27344V6.0625C90.3203 6.03125 90.375 5.97656 90.4062 5.89844C90.4531 5.82031 90.4844 5.74219 90.5 5.66406H90.5938C90.7812 5.66406 90.9688 5.64844 91.1562 5.61719C91.3438 5.58594 91.5312 5.57031 91.7188 5.57031H92.0234C92.2109 5.71094 92.375 5.875 92.5156 6.0625C92.6562 6.25 92.8281 6.42188 93.0312 6.57812V7C93.1719 7.1875 93.2812 7.39062 93.3594 7.60938C93.4375 7.82812 93.5156 8.05469 93.5938 8.28906C93.6875 8.52344 93.7812 8.75 93.875 8.96875C93.9688 9.1875 94.1016 9.375 94.2734 9.53125C94.2422 9.6875 94.2266 9.8125 94.2266 9.90625C94.2266 10.1094 94.2422 10.3125 94.2734 10.5156C94.3203 10.7188 94.3516 10.9141 94.3672 11.1016C94.4297 11.1797 94.4844 11.2812 94.5312 11.4062C94.5781 11.5156 94.6562 11.5859 94.7656 11.6172C94.8438 12.2266 95 12.8047 95.2344 13.3516C95.4844 13.8984 95.6641 14.4688 95.7734 15.0625C95.8984 15.1875 95.9922 15.3438 96.0547 15.5312L96.2422 16.0469C96.3203 16.2188 96.3984 16.3828 96.4766 16.5391C96.5703 16.6797 96.7031 16.7812 96.875 16.8438C96.9688 17.2188 97.0859 17.5938 97.2266 17.9688C97.3672 18.3438 97.5859 18.6641 97.8828 18.9297C97.8828 19.2422 97.9297 19.5156 98.0234 19.75C98.1328 19.9688 98.25 20.1797 98.375 20.3828C98.5156 20.5703 98.6406 20.7578 98.75 20.9453C98.8594 21.1328 98.9297 21.3359 98.9609 21.5547C99.1797 21.8828 99.4297 22.1875 99.7109 22.4688C100.008 22.75 100.305 23.0234 100.602 23.2891C100.914 23.5391 101.219 23.7969 101.516 24.0625C101.812 24.3281 102.086 24.6094 102.336 24.9062C102.508 24.9219 102.648 24.9609 102.758 25.0234C102.883 25.0703 103.023 25.1094 103.18 25.1406C103.289 25.0625 103.375 24.9688 103.438 24.8594C103.516 24.7344 103.586 24.6094 103.648 24.4844C103.711 24.3594 103.773 24.2422 103.836 24.1328C103.914 24.0078 104.008 23.8984 104.117 23.8047C104.117 23.7734 104.109 23.75 104.094 23.7344V23.6406C104.094 23.4688 104.117 23.3359 104.164 23.2422C104.227 23.1328 104.297 23.0156 104.375 22.8906V22.2812C104.5 22.0469 104.586 21.7969 104.633 21.5312C104.68 21.2656 104.703 21 104.703 20.7344C104.703 20.5156 104.695 20.2969 104.68 20.0781C104.664 19.8438 104.656 19.6094 104.656 19.375C104.656 19.2344 104.664 19.0938 104.68 18.9531C104.695 18.7969 104.727 18.6562 104.773 18.5312C104.805 18.5 104.859 18.4531 104.938 18.3906C105.016 18.3125 105.055 18.2656 105.055 18.25C105.055 18.1719 105.031 18.0938 104.984 18.0156C104.938 17.9375 104.914 17.8594 104.914 17.7812C104.914 17.6719 104.961 17.5859 105.055 17.5234V17.3828C105.055 17.3047 105.039 17.2344 105.008 17.1719C104.992 17.0938 104.945 17.0391 104.867 17.0078C104.945 16.9141 105 16.8047 105.031 16.6797C105.062 16.5391 105.078 16.3984 105.078 16.2578C105.094 16.1016 105.094 15.9531 105.078 15.8125V15.4141C105.078 15.2734 105.086 15.125 105.102 14.9688C105.117 14.8125 105.18 14.6797 105.289 14.5703C105.242 14.3828 105.211 14.2031 105.195 14.0312C105.18 13.8438 105.172 13.6562 105.172 13.4688C105.172 13.1406 105.188 12.8125 105.219 12.4844C105.25 12.1562 105.266 11.8203 105.266 11.4766C105.266 11.3516 105.258 11.2266 105.242 11.1016C105.227 10.9609 105.219 10.8281 105.219 10.7031C105.219 10.5781 105.242 10.5234 105.289 10.5391C105.352 10.5391 105.383 10.5 105.383 10.4219C105.383 10.3125 105.367 10.2031 105.336 10.0938L105.289 9.76562C105.258 9.5 105.234 9.23438 105.219 8.96875C105.203 8.6875 105.195 8.40625 105.195 8.125V7.60938C105.211 7.42188 105.242 7.24219 105.289 7.07031C105.195 6.92969 105.133 6.79688 105.102 6.67188C105.086 6.53125 105.07 6.40625 105.055 6.29688L105.008 5.94531C104.992 5.82031 104.945 5.69531 104.867 5.57031C104.852 5.55469 104.844 5.50781 104.844 5.42969C104.844 5.30469 104.875 5.21094 104.938 5.14844C104.859 4.88281 104.75 4.625 104.609 4.375C104.484 4.125 104.406 3.85156 104.375 3.55469C104.203 3.46094 104.07 3.3125 103.977 3.10938C103.898 2.89062 103.859 2.69531 103.859 2.52344C103.859 2.32031 103.914 2.125 104.023 1.9375C104.133 1.73438 104.305 1.63281 104.539 1.63281C104.633 1.63281 104.719 1.66406 104.797 1.72656C104.891 1.77344 104.977 1.83594 105.055 1.91406C105.148 1.97656 105.234 2.03906 105.312 2.10156C105.406 2.14844 105.5 2.17188 105.594 2.17188C105.656 2.17188 105.75 2.15625 105.875 2.125C106.047 2.35938 106.219 2.57812 106.391 2.78125C106.578 2.96875 106.766 3.16406 106.953 3.36719C106.953 3.63281 107 3.875 107.094 4.09375C107.188 4.3125 107.289 4.52344 107.398 4.72656C107.508 4.91406 107.602 5.10156 107.68 5.28906C107.773 5.47656 107.812 5.67969 107.797 5.89844C107.828 6.00781 107.891 6.08594 107.984 6.13281C108.078 6.17969 108.164 6.24219 108.242 6.32031C108.148 6.47656 108.078 6.64062 108.031 6.8125C108 6.98438 107.977 7.15625 107.961 7.32812H107.797C107.672 7.32812 107.562 7.3125 107.469 7.28125C107.375 7.23438 107.266 7.19531 107.141 7.16406C107.203 7.75781 107.242 8.35938 107.258 8.96875C107.273 9.57812 107.281 10.1797 107.281 10.7734C107.281 11.5234 107.273 12.2734 107.258 13.0234C107.242 13.7578 107.234 14.5 107.234 15.25C107.234 15.6094 107.211 15.9688 107.164 16.3281C107.133 16.6719 107.039 17.0078 106.883 17.3359C106.914 17.6016 106.938 17.8594 106.953 18.1094C106.969 18.3438 106.977 18.5938 106.977 18.8594C106.977 19.5938 106.93 20.3281 106.836 21.0625C106.758 21.7812 106.656 22.5 106.531 23.2188C106.484 23.5 106.438 23.7891 106.391 24.0859C106.359 24.3672 106.305 24.6406 106.227 24.9062C106.195 24.9844 106.148 25.0625 106.086 25.1406C106.039 25.2188 106 25.2969 105.969 25.375C105.781 25.7812 105.57 26.1875 105.336 26.5938C105.117 26.9844 104.852 27.3438 104.539 27.6719C104.305 27.6875 104.078 27.75 103.859 27.8594C103.641 27.9688 103.438 28.0234 103.25 28.0234C103.078 28.0234 102.938 27.9375 102.828 27.7656L102.594 27.8594C102.516 27.8906 102.43 27.9141 102.336 27.9297C101.805 27.7109 101.297 27.4453 100.812 27.1328C100.344 26.8203 99.9531 26.4141 99.6406 25.9141H99.5469C99.4062 25.9141 99.3047 25.8828 99.2422 25.8203C99.1641 25.7422 99.0781 25.6484 98.9844 25.5391C98.9062 25.4141 98.8359 25.3047 98.7734 25.2109C98.5859 24.9141 98.3828 24.6172 98.1641 24.3203C97.9453 24.0234 97.6875 23.7734 97.3906 23.5703C97.2656 23.1016 97.0781 22.7031 96.8281 22.375C96.5781 22.0312 96.3203 21.6641 96.0547 21.2734C95.8516 20.4922 95.4766 19.7656 94.9297 19.0938C95.0078 19.0156 95.0469 18.9609 95.0469 18.9297C95.0469 18.8516 95.0156 18.7891 94.9531 18.7422C94.9062 18.6797 94.8828 18.6172 94.8828 18.5547C94.8828 18.4922 94.8984 18.4453 94.9297 18.4141C94.7266 18.1953 94.5547 17.9531 94.4141 17.6875L94.0391 16.8438C93.9297 16.5625 93.8047 16.2812 93.6641 16C93.5391 15.7188 93.3828 15.4609 93.1953 15.2266C93.0234 15.3359 92.9141 15.4688 92.8672 15.625C92.8359 15.7812 92.8203 15.9453 92.8203 16.1172V16.4922C92.8359 16.6172 92.8438 16.7422 92.8438 16.8672C92.8438 17.1797 92.8047 17.4844 92.7266 17.7812C92.6641 18.0781 92.6172 18.3828 92.5859 18.6953C92.5703 18.9141 92.5625 19.1562 92.5625 19.4219C92.5781 19.6875 92.5703 19.9531 92.5391 20.2188C92.5234 20.4844 92.4844 20.7422 92.4219 20.9922C92.3594 21.2422 92.25 21.4531 92.0938 21.625C92 22.5156 91.8828 23.4062 91.7422 24.2969C91.6016 25.1875 91.4688 26.0781 91.3438 26.9688C91.3125 27.125 91.2812 27.3203 91.25 27.5547C91.2188 27.7891 91.1797 28.0234 91.1328 28.2578C91.1016 28.5078 91.0703 28.7422 91.0391 28.9609C91.0234 29.1953 91.0156 29.3828 91.0156 29.5234C91.0156 29.6797 91.0547 29.8281 91.1328 29.9688C91.2109 30.125 91.25 30.2734 91.25 30.4141C91.25 30.5234 91.2109 30.5859 91.1328 30.6016C91.0703 30.6328 91.0312 30.6953 91.0156 30.7891C91.125 31.1328 91.1797 31.5234 91.1797 31.9609C91.1797 32.0859 91.1719 32.2109 91.1562 32.3359C91.1406 32.4766 91.1172 32.6094 91.0859 32.7344C91.0688 32.7773 91.0445 32.8179 91.0132 32.8561C91.014 32.8624 91.0148 32.8687 91.0156 32.875L91.0859 33.25C91.1172 33.375 91.1641 33.4844 91.2266 33.5781C91.1797 33.8438 91.0703 34.0312 90.8984 34.1406C90.7422 34.2656 90.5938 34.4375 90.4531 34.6562H90.3594C90.2031 34.6562 90.0469 34.6719 89.8906 34.7031C89.75 34.7344 89.6016 34.7734 89.4453 34.8203C89.3672 34.7891 89.2734 34.7656 89.1641 34.75C89.0547 34.7344 88.9844 34.6797 88.9531 34.5859C88.8281 34.6484 88.6562 34.6797 88.4375 34.6797C88.0781 34.6797 87.7344 34.5781 87.4062 34.375C87.0938 34.1719 86.7656 34.0156 86.4219 33.9062C86.405 33.8726 86.3874 33.8394 86.3691 33.8067ZM77.8031 30.3137C77.8095 30.3235 77.8152 30.3335 77.8203 30.3438C77.8516 30.4219 77.9062 30.4844 77.9844 30.5312C78.1094 30.6094 78.3047 30.6641 78.5703 30.6953C78.8359 30.7266 79.0547 30.7812 79.2266 30.8594C79.4453 30.9531 79.6562 31.0391 79.8594 31.1172C80.0781 31.2109 80.2969 31.3203 80.5156 31.4453C80.9844 31.4766 81.4453 31.5312 81.8984 31.6094C82.3672 31.6875 82.8281 31.7656 83.2812 31.8438C83.7344 31.9219 84.1875 31.9922 84.6406 32.0547C84.7759 32.0727 84.9111 32.0875 85.0464 32.099C85.0272 32.0545 85.0092 32.0084 84.9922 31.9609C84.9609 31.8672 84.9219 31.8125 84.875 31.7969C84.8281 31.7812 84.7578 31.7812 84.6641 31.7969C84.6797 31.625 84.6562 31.4766 84.5938 31.3516C84.5469 31.2266 84.4297 31.1484 84.2422 31.1172C84.2422 30.9141 84.2109 30.7422 84.1484 30.6016C84.0859 30.4609 84.0078 30.3359 83.9141 30.2266C83.8359 30.1328 83.7422 30.0312 83.6328 29.9219C83.5391 29.8125 83.4609 29.6797 83.3984 29.5234C83.2578 29.4922 83.1172 29.4688 82.9766 29.4531H82.5547C81.8047 29.4531 81.0781 29.5938 80.375 29.875C80.2969 29.9062 80.2109 29.9453 80.1172 29.9922C80.0391 30.0391 79.9609 30.0781 79.8828 30.1094H79.7891C79.7734 30.125 79.75 30.1328 79.7188 30.1328C79.6094 30.1328 79.5078 30.1094 79.4141 30.0625C79.3203 30.0312 79.2188 30.0156 79.1094 30.0156C79.0625 30.0156 79.0078 30.0234 78.9453 30.0391C78.8984 30.0703 78.8516 30.0938 78.8047 30.1094C78.5703 30.1875 78.3516 30.2344 78.1484 30.25C78.0346 30.2722 77.9194 30.2935 77.8031 30.3137ZM81.7109 23.875C81.9453 24.9375 82.1719 26.0078 82.3906 27.0859C82.2656 27.1641 82.1406 27.2344 82.0156 27.2969C81.8906 27.3594 81.7578 27.3906 81.6172 27.3906C81.4922 27.3906 81.3828 27.3672 81.2891 27.3203C81.1641 27.3359 81.0781 27.3828 81.0312 27.4609C81 27.5234 80.9219 27.5703 80.7969 27.6016C80.7188 27.6172 80.625 27.625 80.5156 27.625C80.4062 27.6094 80.3125 27.6094 80.2344 27.625C80.0625 27.625 79.8828 27.6406 79.6953 27.6719C79.5078 27.6875 79.3281 27.7109 79.1562 27.7422C78.6562 27.8047 78.1484 27.875 77.6328 27.9531C77.1328 28.0156 76.6328 28.0469 76.1328 28.0469C76.0234 28.0469 75.9141 28.0391 75.8047 28.0234C75.7109 28.0234 75.6094 28.0156 75.5 28C75.6719 27.4219 75.8359 26.8594 75.9922 26.3125C76.1641 25.75 76.2812 25.1719 76.3438 24.5781L76.6953 24.2266C76.6953 24.1172 76.6875 24.0078 76.6719 23.8984C76.6719 23.7891 76.6797 23.6797 76.6953 23.5703C76.6953 23.5547 76.7109 23.4844 76.7422 23.3594C76.7734 23.2188 76.8125 23.0625 76.8594 22.8906C76.9062 22.7188 76.9453 22.5547 76.9766 22.3984C77.0234 22.2266 77.0547 22.1172 77.0703 22.0703C77.2266 21.3359 77.3672 20.6016 77.4922 19.8672C77.6172 19.1172 77.8203 18.3906 78.1016 17.6875C78.0547 17.5469 78.0234 17.4141 78.0078 17.2891C77.9922 17.1484 77.9844 17.0156 77.9844 16.8906C77.9844 16.7188 78.0078 16.5234 78.0547 16.3047C78.1016 16.0859 78.2031 15.9297 78.3594 15.8359C78.3906 14.9297 78.4453 14.0312 78.5234 13.1406C78.6172 12.2344 78.7031 11.3281 78.7812 10.4219C78.9844 10.6094 79.125 10.8438 79.2031 11.125C79.2969 11.3906 79.3672 11.6719 79.4141 11.9688C79.4766 12.25 79.5469 12.5234 79.625 12.7891C79.7031 13.0391 79.8438 13.2344 80.0469 13.375V13.4688C80.0469 13.5469 80.0312 13.6016 80 13.6328C79.9688 13.6641 79.9531 13.7031 79.9531 13.75V13.7969C80.1719 14.3438 80.3359 14.8984 80.4453 15.4609C80.5703 16.0234 80.6641 16.5938 80.7266 17.1719C80.8047 17.7344 80.8672 18.3047 80.9141 18.8828C80.9609 19.4609 81.0312 20.0391 81.125 20.6172C81.2969 21.7109 81.4922 22.7969 81.7109 23.875ZM136.977 24.5781C137.086 24.4062 137.141 24.2188 137.141 24.0156C137.141 23.625 137.047 23.2891 136.859 23.0078C136.688 22.7266 136.5 22.4297 136.297 22.1172C136.031 22.0234 135.766 21.9141 135.5 21.7891C135.25 21.6641 135.016 21.4922 134.797 21.2734C134.531 21.3203 134.344 21.2969 134.234 21.2031C134.141 21.1094 133.992 21.0234 133.789 20.9453C133.07 20.6953 132.336 20.5156 131.586 20.4062C130.836 20.2969 130.086 20.1719 129.336 20.0312C129.133 19.9688 128.898 19.9141 128.633 19.8672C128.57 19.8516 128.516 19.8359 128.469 19.8203C128.422 19.7891 128.367 19.7734 128.305 19.7734C127.945 19.7734 127.594 19.7891 127.25 19.8203C126.906 19.8359 126.555 19.8438 126.195 19.8438C125.492 19.8594 124.781 19.875 124.062 19.8906C123.344 19.8906 122.633 19.9062 121.93 19.9375C122.117 19.7969 122.297 19.6484 122.469 19.4922C122.641 19.3203 122.828 19.1562 123.031 19C123.125 18.9219 123.227 18.8594 123.336 18.8125C123.461 18.75 123.57 18.6797 123.664 18.6016C123.836 18.4766 124.008 18.3281 124.18 18.1562C124.352 17.9688 124.523 17.8047 124.695 17.6641C125.102 17.3047 125.523 16.9609 125.961 16.6328C126.414 16.3047 126.883 16.0078 127.367 15.7422C127.445 15.5391 127.562 15.375 127.719 15.25C127.891 15.125 128.047 15 128.188 14.875L128.398 14.6406C128.43 14.5938 128.477 14.5703 128.539 14.5703H128.914C129.227 14.2109 129.531 13.8516 129.828 13.4922C130.125 13.1328 130.492 12.8438 130.93 12.625C131.008 12.4062 131.094 12.1797 131.188 11.9453C131.281 11.7109 131.438 11.5391 131.656 11.4297C131.75 11.1328 131.797 10.8281 131.797 10.5156C131.797 10 131.711 9.51562 131.539 9.0625C131.367 8.60938 131.219 8.14844 131.094 7.67969C130.797 7.55469 130.547 7.39844 130.344 7.21094C130.156 7.00781 129.961 6.79688 129.758 6.57812H129.641C129.562 6.57812 129.5 6.60156 129.453 6.64844C129.422 6.69531 129.383 6.71875 129.336 6.71875C129.305 6.71875 129.273 6.70312 129.242 6.67188C129.258 6.57812 129.242 6.50781 129.195 6.46094C129.148 6.39844 129.094 6.35156 129.031 6.32031C128.984 6.28906 128.93 6.25781 128.867 6.22656C128.805 6.17969 128.766 6.125 128.75 6.0625C128.578 6.04688 128.414 6.03906 128.258 6.03906C128.117 6.02344 127.961 6.01562 127.789 6.01562C127.289 6.01562 126.789 6.07031 126.289 6.17969C125.805 6.27344 125.312 6.35938 124.812 6.4375C124.594 6.48438 124.375 6.51562 124.156 6.53125C123.938 6.53125 123.719 6.54688 123.5 6.57812C123.438 6.57812 123.32 6.61719 123.148 6.69531C122.992 6.77344 122.875 6.82812 122.797 6.85938C122.469 6.98438 122.133 7.125 121.789 7.28125C121.445 7.4375 121.094 7.51562 120.734 7.51562H120.641C120.562 7.625 120.453 7.70312 120.312 7.75C120.188 7.79688 120.047 7.84375 119.891 7.89062L119.445 8.00781C119.305 8.03906 119.18 8.09375 119.07 8.17188H118.555C118.289 8.32812 117.977 8.46875 117.617 8.59375C117.258 8.70312 116.922 8.78906 116.609 8.85156C116.516 8.97656 116.406 9.0625 116.281 9.10938C116.156 9.14062 116.016 9.16406 115.859 9.17969L115.414 9.22656C115.273 9.24219 115.148 9.28125 115.039 9.34375C114.805 9.125 114.523 8.99219 114.195 8.94531C113.883 8.89844 113.57 8.86719 113.258 8.85156C112.867 9.05469 112.594 9.35156 112.438 9.74219C112.281 10.1328 112.164 10.5312 112.086 10.9375C112.195 11.1562 112.25 11.4141 112.25 11.7109C112.25 11.8672 112.234 12.0234 112.203 12.1797C112.172 12.3203 112.133 12.4688 112.086 12.625C112.133 12.7344 112.188 12.8125 112.25 12.8594C112.312 12.9062 112.344 12.9922 112.344 13.1172C112.344 13.2109 112.32 13.3203 112.273 13.4453C112.242 13.5703 112.219 13.6719 112.203 13.75C112.156 14.1562 112.133 14.5547 112.133 14.9453C112.133 15.1953 112.141 15.4531 112.156 15.7188C112.172 15.9844 112.18 16.25 112.18 16.5156C112.18 16.5938 112.164 16.6875 112.133 16.7969C112.117 16.8906 112.094 16.9766 112.062 17.0547C112.031 17.2734 112 17.5 111.969 17.7344L111.875 18.3906C111.781 19.1094 111.703 19.8281 111.641 20.5469C111.594 21.25 111.57 21.9609 111.57 22.6797C111.57 23.3359 111.594 24.0391 111.641 24.7891C111.703 25.5234 111.805 26.2578 111.945 26.9922C112.102 27.7266 112.312 28.4297 112.578 29.1016C112.844 29.7891 113.18 30.4062 113.586 30.9531C113.852 30.9844 114.062 31.0547 114.219 31.1641C114.375 31.2734 114.562 31.3984 114.781 31.5391C115.125 31.5078 115.43 31.4453 115.695 31.3516C115.961 31.2734 116.211 31.1797 116.445 31.0703C116.68 30.9766 116.914 30.8672 117.148 30.7422C117.398 30.6328 117.672 30.5312 117.969 30.4375C117.938 30.2656 117.875 30.0938 117.781 29.9219C117.688 29.7656 117.641 29.5938 117.641 29.4062C117.641 29.2656 117.672 29.1328 117.734 29.0078C117.625 28.8828 117.5 28.7969 117.359 28.75C117.219 28.7188 117.07 28.6953 116.914 28.6797L116.445 28.6328C116.305 28.6172 116.172 28.5781 116.047 28.5156L116.023 28.5625C116.023 28.625 116.031 28.6797 116.047 28.7266C116.078 28.7734 116.094 28.8281 116.094 28.8906C116.094 28.9531 116.055 28.9922 115.977 29.0078C115.914 29.0234 115.859 29.0312 115.812 29.0312C115.594 29.0312 115.406 28.9141 115.25 28.6797C115.094 28.4453 114.961 28.1484 114.852 27.7891C114.758 27.4141 114.68 27.0078 114.617 26.5703C114.555 26.1328 114.508 25.7109 114.477 25.3047C114.445 24.8828 114.422 24.5078 114.406 24.1797V23.4531C114.406 23.1406 114.414 22.8281 114.43 22.5156C114.445 22.1875 114.477 21.8672 114.523 21.5547V21.2734C114.523 21.1797 114.516 21.0859 114.5 20.9922V20.7109C114.5 20.4922 114.57 20.3203 114.711 20.1953C114.633 20.0391 114.594 19.875 114.594 19.7031C114.609 19.5312 114.586 19.3594 114.523 19.1875L114.664 18.8359C114.742 18.6797 114.781 18.5781 114.781 18.5312C114.781 18.3594 114.773 18.2031 114.758 18.0625C114.742 17.9062 114.734 17.75 114.734 17.5938C114.734 16.8906 114.773 16.1953 114.852 15.5078C114.93 14.8047 114.969 14.1016 114.969 13.3984C114.969 13.3047 114.961 13.2188 114.945 13.1406V12.8828C115.133 12.8672 115.289 12.8047 115.414 12.6953C115.539 12.5859 115.656 12.4766 115.766 12.3672C115.875 12.2422 115.984 12.1328 116.094 12.0391C116.219 11.9453 116.367 11.8984 116.539 11.8984C116.617 11.8984 116.734 11.9141 116.891 11.9453C116.938 11.7734 117.062 11.6328 117.266 11.5234C117.469 11.4141 117.656 11.3594 117.828 11.3594C118.031 11.3594 118.188 11.4219 118.297 11.5469C118.625 11.25 118.992 11.0312 119.398 10.8906C119.82 10.75 120.211 10.5703 120.57 10.3516C120.664 10.3828 120.719 10.4297 120.734 10.4922C120.766 10.5547 120.828 10.5938 120.922 10.6094C120.938 10.5156 120.961 10.4297 120.992 10.3516C121.023 10.2734 121.078 10.2188 121.156 10.1875L121.695 10.0703L122.68 9.83594C123.008 9.75781 123.336 9.71094 123.664 9.69531C123.742 9.64844 123.805 9.59375 123.852 9.53125C123.914 9.46875 123.969 9.40625 124.016 9.34375C124.328 9.375 124.633 9.36719 124.93 9.32031C125.242 9.27344 125.555 9.25 125.867 9.25C126.18 9.25 126.461 9.28125 126.711 9.34375C126.789 9.3125 126.828 9.26562 126.828 9.20312C126.844 9.125 126.891 9.08594 126.969 9.08594H127.039C127.352 9.19531 127.68 9.32812 128.023 9.48438C128.367 9.625 128.609 9.85938 128.75 10.1875C128.656 10.2812 128.594 10.3906 128.562 10.5156C128.547 10.6406 128.539 10.7656 128.539 10.8906C128.539 10.9844 128.547 11.0547 128.562 11.1016C128.391 11.1797 128.25 11.2969 128.141 11.4531C128.047 11.5938 127.953 11.7422 127.859 11.8984C127.766 12.0391 127.656 12.1719 127.531 12.2969C127.422 12.4219 127.258 12.5078 127.039 12.5547C127.055 12.6797 127.039 12.7734 126.992 12.8359C126.961 12.8984 126.914 12.9609 126.852 13.0234L126.664 13.1641C126.602 13.2109 126.555 13.2812 126.523 13.375C125.773 13.8438 125.039 14.3516 124.32 14.8984L122.164 16.5391L120.758 17.6172C120.648 17.6953 120.547 17.7812 120.453 17.875C120.359 17.9531 120.258 18.0234 120.148 18.0859C119.992 18.1797 119.82 18.2344 119.633 18.25C119.445 18.2656 119.312 18.3828 119.234 18.6016C119.156 18.5859 119.086 18.5938 119.023 18.625C118.977 18.6562 118.922 18.6719 118.859 18.6719C118.797 18.6719 118.758 18.6484 118.742 18.6016C118.727 18.7266 118.688 18.8203 118.625 18.8828C118.562 18.9453 118.484 19 118.391 19.0469C118.312 19.0938 118.227 19.1406 118.133 19.1875C118.039 19.2344 117.961 19.2891 117.898 19.3516C117.852 19.3047 117.789 19.2812 117.711 19.2812C117.648 19.2656 117.586 19.2578 117.523 19.2578H117.219C117.156 19.4141 117.062 19.5312 116.938 19.6094C116.828 19.6719 116.711 19.7266 116.586 19.7734C116.461 19.8203 116.328 19.8672 116.188 19.9141C116.062 19.9453 115.961 20.0078 115.883 20.1016C115.805 20.1797 115.766 20.2734 115.766 20.3828C115.781 20.4922 115.734 20.5469 115.625 20.5469H115.531C115.562 20.8906 115.625 21.2031 115.719 21.4844C115.828 21.75 115.992 22.0156 116.211 22.2812C116.492 22.3125 116.773 22.3828 117.055 22.4922C117.352 22.5859 117.602 22.7422 117.805 22.9609C117.883 22.9453 117.961 22.9375 118.039 22.9375C118.133 22.9219 118.219 22.9141 118.297 22.9141C118.375 22.9141 118.453 22.9219 118.531 22.9375C118.625 22.9375 118.719 22.9453 118.812 22.9609C119.172 22.8984 119.547 22.8594 119.938 22.8438L121.109 22.75C121.516 22.7188 121.906 22.6719 122.281 22.6094C122.656 22.5469 123.008 22.4375 123.336 22.2812C123.492 22.3125 123.648 22.3359 123.805 22.3516H124.297C124.609 22.3516 124.922 22.3438 125.234 22.3281C125.562 22.2969 125.891 22.2812 126.219 22.2812H126.523C126.633 22.3438 126.742 22.3828 126.852 22.3984C126.961 22.4141 127.07 22.4219 127.18 22.4219C127.398 22.4219 127.609 22.4141 127.812 22.3984C128.031 22.3672 128.25 22.3516 128.469 22.3516C128.641 22.3516 128.805 22.3672 128.961 22.3984C129.117 22.4141 129.266 22.4688 129.406 22.5625C129.516 22.5781 129.578 22.5469 129.594 22.4688C129.625 22.3906 129.695 22.3516 129.805 22.3516C129.852 22.3516 129.891 22.3594 129.922 22.375C130.375 22.5312 130.828 22.6797 131.281 22.8203C131.75 22.9453 132.188 23.1328 132.594 23.3828H133.109C133.266 23.5547 133.445 23.7031 133.648 23.8281C133.852 23.9531 133.977 24.1406 134.023 24.3906C133.867 24.4844 133.734 24.6016 133.625 24.7422C133.516 24.8828 133.398 25.0156 133.273 25.1406C133.07 25.2031 132.891 25.2891 132.734 25.3984L132.266 25.7031C132.109 25.7969 131.945 25.8906 131.773 25.9844C131.602 26.0625 131.398 26.1172 131.164 26.1484C130.789 26.5547 130.32 26.8516 129.758 27.0391C129.195 27.2266 128.656 27.375 128.141 27.4844C127.922 27.7344 127.641 27.9141 127.297 28.0234C126.953 28.1328 126.641 28.2656 126.359 28.4219H125.867C125.43 28.6719 124.977 28.8828 124.508 29.0547C124.039 29.2266 123.562 29.3828 123.078 29.5234C122.594 29.6641 122.102 29.7969 121.602 29.9219L120.148 30.3438C120.008 30.3281 119.867 30.3359 119.727 30.3672C119.586 30.3984 119.445 30.4219 119.305 30.4375C119.242 30.6094 119.156 30.75 119.047 30.8594C118.938 30.9688 118.859 31.1094 118.812 31.2812C118.844 31.375 118.875 31.4922 118.906 31.6328C118.953 31.7891 119 31.9375 119.047 32.0781C119.109 32.2188 119.172 32.3516 119.234 32.4766C119.297 32.6016 119.375 32.6875 119.469 32.7344C119.594 32.7812 119.789 32.8203 120.055 32.8516C120.336 32.8828 120.539 32.8984 120.664 32.8984C120.883 32.8984 121.078 32.8828 121.25 32.8516C121.438 32.8203 121.633 32.7812 121.836 32.7344C121.852 32.7188 121.883 32.7109 121.93 32.7109C121.992 32.7109 122.016 32.7422 122 32.8047C122 32.8672 122.031 32.8984 122.094 32.8984H122.164C122.195 32.7891 122.219 32.6797 122.234 32.5703C122.25 32.4609 122.281 32.3672 122.328 32.2891C122.531 32.3047 122.719 32.2422 122.891 32.1016C123.078 31.9766 123.258 31.875 123.43 31.7969C123.945 31.5938 124.477 31.4453 125.023 31.3516C125.57 31.2578 126.102 31.125 126.617 30.9531C126.711 30.7969 126.828 30.6875 126.969 30.625C127.203 30.625 127.469 30.5625 127.766 30.4375C128.062 30.3281 128.32 30.2188 128.539 30.1094L128.914 29.9453C129.039 29.8828 129.164 29.8359 129.289 29.8047C129.414 29.7891 129.539 29.7578 129.664 29.7109C129.977 29.5859 130.305 29.4375 130.648 29.2656C130.992 29.1094 131.328 29.0234 131.656 29.0078C131.875 28.7891 132.117 28.6094 132.383 28.4688C132.664 28.3281 132.938 28.1875 133.203 28.0469L133.789 27.6719C133.977 27.5625 134.133 27.4844 134.258 27.4375C134.398 27.375 134.562 27.2734 134.75 27.1328C135.062 26.8984 135.352 26.6562 135.617 26.4062C135.898 26.1406 136.203 25.9219 136.531 25.75C136.5 25.5781 136.531 25.4609 136.625 25.3984C136.734 25.3359 136.82 25.25 136.883 25.1406C136.836 24.9219 136.867 24.7344 136.977 24.5781ZM156.922 34.1406C157.094 34.0312 157.203 33.8438 157.25 33.5781C157.188 33.4844 157.141 33.375 157.109 33.25L157.039 32.875C157.038 32.8687 157.037 32.8624 157.037 32.8561C157.068 32.8179 157.092 32.7773 157.109 32.7344C157.141 32.6094 157.164 32.4766 157.18 32.3359C157.195 32.2109 157.203 32.0859 157.203 31.9609C157.203 31.5234 157.148 31.1328 157.039 30.7891C157.055 30.6953 157.094 30.6328 157.156 30.6016C157.234 30.5859 157.273 30.5234 157.273 30.4141C157.273 30.2734 157.234 30.125 157.156 29.9688C157.078 29.8281 157.039 29.6797 157.039 29.5234C157.039 29.3828 157.047 29.1953 157.062 28.9609C157.094 28.7422 157.125 28.5078 157.156 28.2578C157.203 28.0234 157.242 27.7891 157.273 27.5547C157.305 27.3203 157.336 27.125 157.367 26.9688C157.492 26.0781 157.625 25.1875 157.766 24.2969C157.906 23.4062 158.023 22.5156 158.117 21.625C158.273 21.4531 158.383 21.2422 158.445 20.9922C158.508 20.7422 158.547 20.4844 158.562 20.2188C158.594 19.9531 158.602 19.6875 158.586 19.4219C158.586 19.1562 158.594 18.9141 158.609 18.6953C158.641 18.3828 158.688 18.0781 158.75 17.7812C158.828 17.4844 158.867 17.1797 158.867 16.8672C158.867 16.7422 158.859 16.6172 158.844 16.4922V16.1172C158.844 15.9453 158.859 15.7812 158.891 15.625C158.938 15.4688 159.047 15.3359 159.219 15.2266C159.406 15.4609 159.562 15.7188 159.688 16C159.828 16.2812 159.953 16.5625 160.062 16.8438L160.438 17.6875C160.578 17.9531 160.75 18.1953 160.953 18.4141C160.922 18.4453 160.906 18.4922 160.906 18.5547C160.906 18.6172 160.93 18.6797 160.977 18.7422C161.039 18.7891 161.07 18.8516 161.07 18.9297C161.07 18.9609 161.031 19.0156 160.953 19.0938C161.5 19.7656 161.875 20.4922 162.078 21.2734C162.344 21.6641 162.602 22.0312 162.852 22.375C163.102 22.7031 163.289 23.1016 163.414 23.5703C163.711 23.7734 163.969 24.0234 164.188 24.3203C164.406 24.6172 164.609 24.9141 164.797 25.2109C164.859 25.3047 164.93 25.4141 165.008 25.5391C165.102 25.6484 165.188 25.7422 165.266 25.8203C165.328 25.8828 165.43 25.9141 165.57 25.9141H165.664C165.977 26.4141 166.367 26.8203 166.836 27.1328C167.32 27.4453 167.828 27.7109 168.359 27.9297C168.453 27.9141 168.539 27.8906 168.617 27.8594L168.852 27.7656C168.961 27.9375 169.102 28.0234 169.273 28.0234C169.461 28.0234 169.664 27.9688 169.883 27.8594C170.102 27.75 170.328 27.6875 170.562 27.6719C170.875 27.3438 171.141 26.9844 171.359 26.5938C171.594 26.1875 171.805 25.7812 171.992 25.375C172.023 25.2969 172.062 25.2188 172.109 25.1406C172.172 25.0625 172.219 24.9844 172.25 24.9062C172.328 24.6406 172.383 24.3672 172.414 24.0859C172.461 23.7891 172.508 23.5 172.555 23.2188C172.68 22.5 172.781 21.7812 172.859 21.0625C172.953 20.3281 173 19.5938 173 18.8594C173 18.5938 172.992 18.3438 172.977 18.1094C172.961 17.8594 172.938 17.6016 172.906 17.3359C173.062 17.0078 173.156 16.6719 173.188 16.3281C173.234 15.9688 173.258 15.6094 173.258 15.25C173.258 14.5 173.266 13.7578 173.281 13.0234C173.297 12.2734 173.305 11.5234 173.305 10.7734C173.305 10.1797 173.297 9.57812 173.281 8.96875C173.266 8.35938 173.227 7.75781 173.164 7.16406C173.289 7.19531 173.398 7.23438 173.492 7.28125C173.586 7.3125 173.695 7.32812 173.82 7.32812H173.984C174 7.15625 174.023 6.98438 174.055 6.8125C174.102 6.64062 174.172 6.47656 174.266 6.32031C174.188 6.24219 174.102 6.17969 174.008 6.13281C173.914 6.08594 173.852 6.00781 173.82 5.89844C173.836 5.67969 173.797 5.47656 173.703 5.28906C173.625 5.10156 173.531 4.91406 173.422 4.72656C173.312 4.52344 173.211 4.3125 173.117 4.09375C173.023 3.875 172.977 3.63281 172.977 3.36719C172.789 3.16406 172.602 2.96875 172.414 2.78125C172.242 2.57812 172.07 2.35938 171.898 2.125C171.773 2.15625 171.68 2.17188 171.617 2.17188C171.523 2.17188 171.43 2.14844 171.336 2.10156C171.258 2.03906 171.172 1.97656 171.078 1.91406C171 1.83594 170.914 1.77344 170.82 1.72656C170.742 1.66406 170.656 1.63281 170.562 1.63281C170.328 1.63281 170.156 1.73438 170.047 1.9375C169.938 2.125 169.883 2.32031 169.883 2.52344C169.883 2.69531 169.922 2.89062 170 3.10938C170.094 3.3125 170.227 3.46094 170.398 3.55469C170.43 3.85156 170.508 4.125 170.633 4.375C170.773 4.625 170.883 4.88281 170.961 5.14844C170.898 5.21094 170.867 5.30469 170.867 5.42969C170.867 5.50781 170.875 5.55469 170.891 5.57031C170.969 5.69531 171.016 5.82031 171.031 5.94531L171.078 6.29688C171.094 6.40625 171.109 6.53125 171.125 6.67188C171.156 6.79688 171.219 6.92969 171.312 7.07031C171.266 7.24219 171.234 7.42188 171.219 7.60938V8.125C171.219 8.40625 171.227 8.6875 171.242 8.96875C171.258 9.23438 171.281 9.5 171.312 9.76562L171.359 10.0938C171.391 10.2031 171.406 10.3125 171.406 10.4219C171.406 10.5 171.375 10.5391 171.312 10.5391C171.266 10.5234 171.242 10.5781 171.242 10.7031C171.242 10.8281 171.25 10.9609 171.266 11.1016C171.281 11.2266 171.289 11.3516 171.289 11.4766C171.289 11.8203 171.273 12.1562 171.242 12.4844C171.211 12.8125 171.195 13.1406 171.195 13.4688C171.195 13.6562 171.203 13.8438 171.219 14.0312C171.234 14.2031 171.266 14.3828 171.312 14.5703C171.203 14.6797 171.141 14.8125 171.125 14.9688C171.109 15.125 171.102 15.2734 171.102 15.4141V15.8125C171.117 15.9531 171.117 16.1016 171.102 16.2578C171.102 16.3984 171.086 16.5391 171.055 16.6797C171.023 16.8047 170.969 16.9141 170.891 17.0078C170.969 17.0391 171.016 17.0938 171.031 17.1719C171.062 17.2344 171.078 17.3047 171.078 17.3828V17.5234C170.984 17.5859 170.938 17.6719 170.938 17.7812C170.938 17.8594 170.961 17.9375 171.008 18.0156C171.055 18.0938 171.078 18.1719 171.078 18.25C171.078 18.2656 171.039 18.3125 170.961 18.3906C170.883 18.4531 170.828 18.5 170.797 18.5312C170.75 18.6562 170.719 18.7969 170.703 18.9531C170.688 19.0938 170.68 19.2344 170.68 19.375C170.68 19.6094 170.688 19.8438 170.703 20.0781C170.719 20.2969 170.727 20.5156 170.727 20.7344C170.727 21 170.703 21.2656 170.656 21.5312C170.609 21.7969 170.523 22.0469 170.398 22.2812V22.8906C170.32 23.0156 170.25 23.1328 170.188 23.2422C170.141 23.3359 170.117 23.4688 170.117 23.6406V23.7344C170.133 23.75 170.141 23.7734 170.141 23.8047C170.031 23.8984 169.938 24.0078 169.859 24.1328C169.797 24.2422 169.734 24.3594 169.672 24.4844C169.609 24.6094 169.539 24.7344 169.461 24.8594C169.398 24.9688 169.312 25.0625 169.203 25.1406C169.047 25.1094 168.906 25.0703 168.781 25.0234C168.672 24.9609 168.531 24.9219 168.359 24.9062C168.109 24.6094 167.836 24.3281 167.539 24.0625C167.242 23.7969 166.938 23.5391 166.625 23.2891C166.328 23.0234 166.031 22.75 165.734 22.4688C165.453 22.1875 165.203 21.8828 164.984 21.5547C164.953 21.3359 164.883 21.1328 164.773 20.9453C164.664 20.7578 164.539 20.5703 164.398 20.3828C164.273 20.1797 164.156 19.9688 164.047 19.75C163.953 19.5156 163.906 19.2422 163.906 18.9297C163.609 18.6641 163.391 18.3438 163.25 17.9688C163.109 17.5938 162.992 17.2188 162.898 16.8438C162.727 16.7812 162.594 16.6797 162.5 16.5391C162.422 16.3828 162.344 16.2188 162.266 16.0469L162.078 15.5312C162.016 15.3438 161.922 15.1875 161.797 15.0625C161.688 14.4688 161.508 13.8984 161.258 13.3516C161.023 12.8047 160.867 12.2266 160.789 11.6172C160.68 11.5859 160.602 11.5156 160.555 11.4062C160.508 11.2812 160.453 11.1797 160.391 11.1016C160.375 10.9141 160.344 10.7188 160.297 10.5156C160.266 10.3125 160.25 10.1094 160.25 9.90625C160.25 9.8125 160.266 9.6875 160.297 9.53125C160.125 9.375 159.992 9.1875 159.898 8.96875C159.805 8.75 159.711 8.52344 159.617 8.28906C159.539 8.05469 159.461 7.82812 159.383 7.60938C159.305 7.39062 159.195 7.1875 159.055 7V6.57812C158.852 6.42188 158.68 6.25 158.539 6.0625C158.398 5.875 158.234 5.71094 158.047 5.57031H157.742C157.555 5.57031 157.367 5.58594 157.18 5.61719C156.992 5.64844 156.805 5.66406 156.617 5.66406H156.523C156.508 5.74219 156.477 5.82031 156.43 5.89844C156.398 5.97656 156.344 6.03125 156.266 6.0625V6.27344C156.266 6.50781 156.281 6.74219 156.312 6.97656C156.344 7.21094 156.359 7.45312 156.359 7.70312V7.91406C156.5 8.11719 156.586 8.38281 156.617 8.71094C156.664 9.02344 156.695 9.34375 156.711 9.67188C156.727 10 156.758 10.3047 156.805 10.5859C156.852 10.8672 156.953 11.0703 157.109 11.1953L156.852 11.7109C156.945 12.2578 156.992 12.8203 156.992 13.3984C156.992 13.9922 156.961 14.5781 156.898 15.1562C156.836 15.7188 156.805 16.2891 156.805 16.8672V17.3125C156.82 17.4531 156.836 17.6016 156.852 17.7578C156.758 17.8047 156.695 17.8672 156.664 17.9453C156.648 18.0078 156.633 18.0781 156.617 18.1562C156.617 18.2344 156.602 18.3125 156.57 18.3906C156.555 18.4688 156.508 18.5391 156.43 18.6016C156.539 18.6641 156.594 18.7734 156.594 18.9297C156.594 19.1016 156.547 19.2734 156.453 19.4453C156.375 19.6016 156.312 19.7656 156.266 19.9375C156.312 20.125 156.336 20.3281 156.336 20.5469C156.336 20.8125 156.305 21.0703 156.242 21.3203C156.195 21.5703 156.172 21.8281 156.172 22.0938C156.172 22.2188 156.18 22.3125 156.195 22.375C155.883 22.9219 155.688 23.5156 155.609 24.1562C155.547 24.7969 155.453 25.4219 155.328 26.0312L155.258 26.2422C155.242 26.3203 155.219 26.4062 155.188 26.5C155.172 26.5938 155.148 26.6797 155.117 26.7578C155.102 26.8359 155.094 26.8906 155.094 26.9219C155.094 27.0781 155.133 27.1797 155.211 27.2266C155.305 27.2734 155.352 27.3594 155.352 27.4844C155.102 27.7656 154.93 28.0938 154.836 28.4688C154.742 28.8594 154.672 29.2656 154.625 29.6875C154.578 30.1094 154.531 30.5234 154.484 30.9297C154.456 31.3129 154.389 31.6574 154.283 31.9633C154.166 31.9565 154.076 31.9167 154.016 31.8438C153.938 31.75 153.812 31.7031 153.641 31.7031C153.516 31.4531 153.367 31.2188 153.195 31L152.703 30.3438C152.547 30.125 152.391 29.8984 152.234 29.6641C152.094 29.4453 151.969 29.2031 151.859 28.9375C151.984 28.8125 152.07 28.6641 152.117 28.4922C152.164 28.3359 152.25 28.2031 152.375 28.0938C152.328 27.9062 152.234 27.7578 152.094 27.6484C151.969 27.5391 151.828 27.4453 151.672 27.3672C151.516 27.2891 151.359 27.2031 151.203 27.1094C151.062 27.0156 150.945 26.8984 150.852 26.7578C150.867 26.4922 150.836 26.2422 150.758 26.0078C150.68 25.7734 150.586 25.5547 150.477 25.3516L150.195 24.6953C150.117 24.4766 150.078 24.25 150.078 24.0156C150.078 23.8906 150.086 23.7969 150.102 23.7344C150.039 23.6719 149.977 23.5938 149.914 23.5C149.867 23.3906 149.844 23.2969 149.844 23.2188C149.844 23.1406 149.875 23.1016 149.938 23.1016C150 23.0859 150.031 23.0391 150.031 22.9609C150.031 22.9297 150.023 22.9062 150.008 22.8906C149.836 22.375 149.703 21.8516 149.609 21.3203C149.516 20.7734 149.43 20.2266 149.352 19.6797L149.117 18.0391C149.055 17.4922 148.961 16.9453 148.836 16.3984V16.3047C148.836 16.2422 148.852 16.1953 148.883 16.1641C148.914 16.1172 148.93 16.0625 148.93 16V15.9062C148.805 15.8125 148.742 15.6641 148.742 15.4609C148.758 15.2422 148.703 15.0781 148.578 14.9688C148.656 14.8906 148.695 14.7734 148.695 14.6172C148.695 14.4609 148.742 14.3516 148.836 14.2891C148.789 14.2266 148.719 14.1875 148.625 14.1719C148.547 14.1562 148.477 14.1172 148.414 14.0547C148.242 13.4922 148.102 12.9062 147.992 12.2969C147.883 11.6875 147.688 11.125 147.406 10.6094C147.406 10.5312 147.43 10.4844 147.477 10.4688C147.539 10.4531 147.57 10.4062 147.57 10.3281V10.2578C147.398 10.1484 147.273 9.99219 147.195 9.78906C147.133 9.58594 147.078 9.375 147.031 9.15625C146.984 8.92188 146.93 8.69531 146.867 8.47656C146.805 8.25781 146.703 8.07031 146.562 7.91406C146.688 7.85156 146.75 7.73438 146.75 7.5625V7.51562C146.594 7.34375 146.461 7.15625 146.352 6.95312C146.258 6.75 146.211 6.53906 146.211 6.32031C146.211 6.21094 146.219 6.125 146.234 6.0625C146.031 5.9375 145.867 5.76562 145.742 5.54688C145.633 5.32812 145.539 5.10938 145.461 4.89062C145.102 4.875 144.883 4.64844 144.805 4.21094C144.633 4.24219 144.5 4.22656 144.406 4.16406C144.312 4.10156 144.234 4.02344 144.172 3.92969C144.125 3.83594 144.07 3.73438 144.008 3.625C143.961 3.51562 143.891 3.42969 143.797 3.36719H143.703C143.672 3.35156 143.633 3.34375 143.586 3.34375C143.414 3.34375 143.273 3.38281 143.164 3.46094C143.07 3.52344 142.945 3.58594 142.789 3.64844C142.742 3.74219 142.688 3.83594 142.625 3.92969L142.438 4.21094C142.484 4.91406 142.531 5.60938 142.578 6.29688C142.625 6.98438 142.648 7.67969 142.648 8.38281C142.648 9.21094 142.602 10.0469 142.508 10.8906C142.492 11.0469 142.461 11.2422 142.414 11.4766C142.383 11.7109 142.367 11.8984 142.367 12.0391C142.367 12.1172 142.391 12.1641 142.438 12.1797C142.5 12.1797 142.531 12.2188 142.531 12.2969V12.3672C142.438 13.0703 142.32 13.7734 142.18 14.4766C142.039 15.1641 141.961 15.8672 141.945 16.5859C141.898 16.6641 141.867 16.7578 141.852 16.8672C141.836 16.9766 141.789 17.0469 141.711 17.0781C141.773 17.2656 141.797 17.4766 141.781 17.7109V17.9219C141.625 18.1562 141.516 18.4297 141.453 18.7422C141.406 19.0547 141.359 19.375 141.312 19.7031C141.266 20.0156 141.203 20.3203 141.125 20.6172C141.062 20.9141 140.945 21.1641 140.773 21.3672C140.773 21.5547 140.758 21.7656 140.727 22C140.711 22.2188 140.672 22.4453 140.609 22.6797C140.562 22.9141 140.492 23.1406 140.398 23.3594C140.305 23.5625 140.203 23.7422 140.094 23.8984C139.953 24.6484 139.75 25.3906 139.484 26.125C139.219 26.8438 138.914 27.5547 138.57 28.2578C138.352 28.3047 138.141 28.3281 137.938 28.3281C137.641 28.3281 137.352 28.3047 137.07 28.2578C136.789 28.2266 136.5 28.2109 136.203 28.2109C135.984 28.2109 135.805 28.2422 135.664 28.3047C135.523 28.3828 135.398 28.4766 135.289 28.5859C135.18 28.6953 135.078 28.8125 134.984 28.9375C134.875 29.0781 134.758 29.2109 134.633 29.3359V29.5234C134.633 29.7109 134.68 29.8828 134.773 30.0391C134.867 30.2109 134.914 30.3984 134.914 30.6016V30.6953C134.898 30.7266 134.891 30.7578 134.891 30.7891C135.25 30.9141 135.641 30.9922 136.062 31.0234C136.469 31.0547 136.859 31.0859 137.234 31.1172C137.219 31.3203 137.18 31.5078 137.117 31.6797C137.039 31.8672 136.914 32.0156 136.742 32.125C136.727 32.4688 136.656 32.7812 136.531 33.0625C136.391 33.3594 136.18 33.6094 135.898 33.8125C135.82 34.2031 135.703 34.5234 135.547 34.7734C135.391 35.0234 135.227 35.3203 135.055 35.6641C135.102 35.8984 135.164 36.1328 135.242 36.3672C135.32 36.6016 135.422 36.8047 135.547 36.9766C135.672 37.1484 135.836 37.2891 136.039 37.3984C136.242 37.5078 136.484 37.5625 136.766 37.5625C137.062 37.5625 137.297 37.5078 137.469 37.3984C137.625 37.2891 137.75 37.1484 137.844 36.9766C137.938 36.8047 138.008 36.6094 138.055 36.3906C138.102 36.1875 138.164 35.9766 138.242 35.7578C138.32 35.5391 138.438 35.3125 138.594 35.0781C138.75 34.8438 138.828 34.6094 138.828 34.375C138.828 34.2656 138.805 34.1641 138.758 34.0703C138.898 33.9141 139.008 33.7266 139.086 33.5078C139.164 33.2891 139.234 33.0625 139.297 32.8281C139.375 32.6094 139.453 32.3984 139.531 32.1953C139.625 31.9922 139.758 31.8281 139.93 31.7031C139.914 31.5781 139.922 31.4453 139.953 31.3047C139.984 31.1797 140.062 31.0859 140.188 31.0234C140.781 30.7578 141.43 30.5938 142.133 30.5312C142.852 30.4688 143.531 30.375 144.172 30.25C144.375 30.2344 144.594 30.1875 144.828 30.1094C144.875 30.0938 144.922 30.0703 144.969 30.0391C145.031 30.0234 145.086 30.0156 145.133 30.0156C145.242 30.0156 145.344 30.0312 145.438 30.0625C145.531 30.1094 145.633 30.1328 145.742 30.1328C145.773 30.1328 145.797 30.125 145.812 30.1094H145.906C145.984 30.0781 146.062 30.0391 146.141 29.9922C146.234 29.9453 146.32 29.9062 146.398 29.875C147.102 29.5938 147.828 29.4531 148.578 29.4531H149C149.141 29.4688 149.281 29.4922 149.422 29.5234C149.484 29.6797 149.562 29.8125 149.656 29.9219C149.766 30.0312 149.859 30.1328 149.938 30.2266C150.031 30.3359 150.109 30.4609 150.172 30.6016C150.234 30.7422 150.266 30.9141 150.266 31.1172C150.453 31.1484 150.57 31.2266 150.617 31.3516C150.68 31.4766 150.703 31.625 150.688 31.7969C150.781 31.7812 150.852 31.7812 150.898 31.7969C150.945 31.8125 150.984 31.8672 151.016 31.9609C151.094 32.1797 151.195 32.3672 151.32 32.5234C151.445 32.6797 151.57 32.8281 151.695 32.9688C151.836 33.1094 151.969 33.25 152.094 33.3906C152.234 33.5469 152.352 33.7188 152.445 33.9062C152.789 34.0156 153.117 34.1719 153.43 34.375C153.758 34.5781 154.102 34.6797 154.461 34.6797C154.68 34.6797 154.852 34.6484 154.977 34.5859C155.008 34.6797 155.078 34.7344 155.188 34.75C155.297 34.7656 155.391 34.7891 155.469 34.8203C155.625 34.7734 155.773 34.7344 155.914 34.7031C156.07 34.6719 156.227 34.6562 156.383 34.6562H156.477C156.617 34.4375 156.766 34.2656 156.922 34.1406ZM147.734 23.875C147.969 24.9375 148.195 26.0078 148.414 27.0859C148.289 27.1641 148.164 27.2344 148.039 27.2969C147.914 27.3594 147.781 27.3906 147.641 27.3906C147.516 27.3906 147.406 27.3672 147.312 27.3203C147.188 27.3359 147.102 27.3828 147.055 27.4609C147.023 27.5234 146.945 27.5703 146.82 27.6016C146.742 27.6172 146.648 27.625 146.539 27.625C146.43 27.6094 146.336 27.6094 146.258 27.625C146.086 27.625 145.906 27.6406 145.719 27.6719C145.531 27.6875 145.352 27.7109 145.18 27.7422C144.68 27.8047 144.172 27.875 143.656 27.9531C143.156 28.0156 142.656 28.0469 142.156 28.0469C142.047 28.0469 141.938 28.0391 141.828 28.0234C141.734 28.0234 141.633 28.0156 141.523 28C141.695 27.4219 141.859 26.8594 142.016 26.3125C142.188 25.75 142.305 25.1719 142.367 24.5781L142.719 24.2266C142.719 24.1172 142.711 24.0078 142.695 23.8984C142.695 23.7891 142.703 23.6797 142.719 23.5703C142.719 23.5547 142.734 23.4844 142.766 23.3594C142.797 23.2188 142.836 23.0625 142.883 22.8906C142.93 22.7188 142.969 22.5547 143 22.3984C143.047 22.2266 143.078 22.1172 143.094 22.0703C143.25 21.3359 143.391 20.6016 143.516 19.8672C143.641 19.1172 143.844 18.3906 144.125 17.6875C144.078 17.5469 144.047 17.4141 144.031 17.2891C144.016 17.1484 144.008 17.0156 144.008 16.8906C144.008 16.7188 144.031 16.5234 144.078 16.3047C144.125 16.0859 144.227 15.9297 144.383 15.8359C144.414 14.9297 144.469 14.0312 144.547 13.1406C144.641 12.2344 144.727 11.3281 144.805 10.4219C145.008 10.6094 145.148 10.8438 145.227 11.125C145.32 11.3906 145.391 11.6719 145.438 11.9688C145.5 12.25 145.57 12.5234 145.648 12.7891C145.727 13.0391 145.867 13.2344 146.07 13.375V13.4688C146.07 13.5469 146.055 13.6016 146.023 13.6328C145.992 13.6641 145.977 13.7031 145.977 13.75V13.7969C146.195 14.3438 146.359 14.8984 146.469 15.4609C146.594 16.0234 146.688 16.5938 146.75 17.1719C146.828 17.7344 146.891 18.3047 146.938 18.8828C146.984 19.4609 147.055 20.0391 147.148 20.6172C147.32 21.7109 147.516 22.7969 147.734 23.875Z" fill="white"/>
</svg>
