<svg width="26" height="18" viewBox="0 0 26 18" fill="none" xmlns="http://www.w3.org/2000/svg">
<path d="M11.375 18C11.375 18 9.75 18 9.75 16.5C9.75 15 11.375 10.5 17.875 10.5C24.375 10.5 26 15 26 16.5C26 18 24.375 18 24.375 18H11.375ZM17.875 9C19.1679 9 20.4079 8.52589 21.3221 7.68198C22.2364 6.83807 22.75 5.69347 22.75 4.5C22.75 3.30653 22.2364 2.16193 21.3221 1.31802C20.4079 0.474106 19.1679 0 17.875 0C16.5821 0 15.3421 0.474106 14.4279 1.31802C13.5136 2.16193 13 3.30653 13 4.5C13 5.69347 13.5136 6.83807 14.4279 7.68198C15.3421 8.52589 16.5821 9 17.875 9V9Z" fill="#B791F5"/>
<path fill-rule="evenodd" clip-rule="evenodd" d="M8.476 18C8.2351 17.5318 8.11496 17.0183 8.125 16.5C8.125 14.4675 9.23 12.375 11.271 10.92C10.2523 10.6303 9.19092 10.4886 8.125 10.5C1.625 10.5 0 15 0 16.5C0 18 1.625 18 1.625 18H8.476Z" fill="#B791F5"/>
<path d="M7.3125 9C8.38994 9 9.42325 8.60491 10.1851 7.90165C10.947 7.19839 11.375 6.24456 11.375 5.25C11.375 4.25544 10.947 3.30161 10.1851 2.59835C9.42325 1.89509 8.38994 1.5 7.3125 1.5C6.23506 1.5 5.20175 1.89509 4.43988 2.59835C3.67801 3.30161 3.25 4.25544 3.25 5.25C3.25 6.24456 3.67801 7.19839 4.43988 7.90165C5.20175 8.60491 6.23506 9 7.3125 9V9Z" fill="#B791F5"/>
</svg>
