<svg width="16" height="16" viewBox="0 0 16 16" fill="none" xmlns="http://www.w3.org/2000/svg">
<path d="M7.35547 0.265625H8.64453C8.75911 0.265625 8.81641 0.322917 8.81641 0.4375V15.5625C8.81641 15.6771 8.75911 15.7344 8.64453 15.7344H7.35547C7.24089 15.7344 7.18359 15.6771 7.18359 15.5625V0.4375C7.18359 0.322917 7.24089 0.265625 7.35547 0.265625Z" fill="#4D4C50"/>
<path d="M0.78125 7.18359H15.2188C15.3333 7.18359 15.3906 7.24089 15.3906 7.35547V8.64453C15.3906 8.75911 15.3333 8.81641 15.2188 8.81641H0.78125C0.666667 8.81641 0.609375 8.75911 0.609375 8.64453V7.35547C0.609375 7.24089 0.666667 7.18359 0.78125 7.18359Z" fill="#4D4C50"/>
</svg>
