<svg width="20" height="16" viewBox="0 0 20 16" fill="none" xmlns="http://www.w3.org/2000/svg"><path d="M16.875 15.5a.623.623 0 01-.442-.183L2.683 1.567a.625.625 0 01.884-.884l13.75 13.75a.624.624 0 01-.442 1.067zM9.687 10.338L7.664 8.315a.078.078 0 00-.132.066 2.504 2.504 0 002.09 2.09.078.078 0 00.087-.09.078.078 0 00-.022-.043zM10.312 5.662l2.027 2.026a.078.078 0 00.132-.067A2.505 2.505 0 0010.38 5.53a.078.078 0 00-.068.132z" fill="#B791F5"/><path d="M19.18 8.678a1.258 1.258 0 00-.004-1.358c-1.034-1.598-2.375-2.956-3.878-3.927-1.665-1.075-3.501-1.643-5.31-1.643a8.85 8.85 0 00-2.806.46.156.156 0 00-.06.26l1.845 1.845a.156.156 0 00.149.04 3.75 3.75 0 014.531 4.532.155.155 0 00.041.149l2.654 2.656a.156.156 0 00.211.01 13.432 13.432 0 002.627-3.024zM10 11.75a3.75 3.75 0 01-3.645-4.634.156.156 0 00-.04-.149L3.703 4.355a.156.156 0 00-.212-.009C2.54 5.16 1.656 6.148.85 7.304a1.247 1.247 0 00-.025 1.388c1.031 1.615 2.359 2.974 3.839 3.932 1.667 1.08 3.459 1.626 5.325 1.626a9.305 9.305 0 002.837-.451.156.156 0 00.063-.26l-1.854-1.854a.156.156 0 00-.15-.04c-.289.07-.586.105-.884.105z" fill="#B791F5"/></svg>