<svg width="7" height="30" viewBox="0 0 7 30" fill="none" xmlns="http://www.w3.org/2000/svg">
<path d="M6.75 25.875C6.75 26.7701 6.39442 27.6286 5.76149 28.2615C5.12855 28.8944 4.27011 29.25 3.375 29.25C2.47989 29.25 1.62145 28.8944 0.988514 28.2615C0.355579 27.6286 0 26.7701 0 25.875C0 24.9799 0.355579 24.1214 0.988514 23.4885C1.62145 22.8556 2.47989 22.5 3.375 22.5C4.27011 22.5 5.12855 22.8556 5.76149 23.4885C6.39442 24.1214 6.75 24.9799 6.75 25.875ZM6.75 14.625C6.75 15.5201 6.39442 16.3786 5.76149 17.0115C5.12855 17.6444 4.27011 18 3.375 18C2.47989 18 1.62145 17.6444 0.988514 17.0115C0.355579 16.3786 0 15.5201 0 14.625C0 13.7299 0.355579 12.8714 0.988514 12.2385C1.62145 11.6056 2.47989 11.25 3.375 11.25C4.27011 11.25 5.12855 11.6056 5.76149 12.2385C6.39442 12.8714 6.75 13.7299 6.75 14.625ZM6.75 3.375C6.75 4.27011 6.39442 5.12855 5.76149 5.76149C5.12855 6.39442 4.27011 6.75 3.375 6.75C2.47989 6.75 1.62145 6.39442 0.988514 5.76149C0.355579 5.12855 0 4.27011 0 3.375C0 2.47989 0.355579 1.62145 0.988514 0.988515C1.62145 0.355579 2.47989 0 3.375 0C4.27011 0 5.12855 0.355579 5.76149 0.988515C6.39442 1.62145 6.75 2.47989 6.75 3.375Z" fill="#B791F5"/>
</svg>
